<?xml version="1.0" encoding="utf-8"?>
<!-- Generator: Adobe Illustrator 19.0.0, SVG Export Plug-In . SVG Version: 6.00 Build 0)  -->
<svg version="1.1" id="_x31_" xmlns="http://www.w3.org/2000/svg" xmlns:xlink="http://www.w3.org/1999/xlink" x="0px" y="0px"
	 viewBox="0 0 1400 980" style="enable-background:new 0 0 1400 980;" xml:space="preserve">
<style type="text/css">
	.st0{fill:#151D38;}
	.st1{fill:#D6E9F6;}
	.st2{fill:#7DA6ED;}
	.st3{fill:#FFFAC2;}
	.st4{fill:#CED8DC;}
	.st5{fill:#EDC062;}
	.st6{fill:#249A4B;}
	.st7{fill:#E8384A;}
	.st8{fill:#FFFFFF;}
	.st9{fill:#DC9617;}
	.st10{fill:#F7AB00;}
	.st11{fill:#E56145;}
	.st12{fill:#F1A465;}
	.st13{fill:#F5CAE0;}
	.st14{fill:#EA6AA2;}
</style>
<g>
	
		<rect x="349.7" y="412.3" transform="matrix(0.8739 -0.4861 0.4861 0.8739 -216.9055 325.0331)" class="st0" width="336.7" height="336.7"/>
	<path class="st0" d="M142.8,357.4c1.7-1.2,3.7-1.1,5.6-1.4c16.9-2.3,33.9-4.6,50.9-6.9c18.1-2.5,36.3-5,54.4-7.5
		c3.7-0.5,7.4-1.1,11.1-1.5c1.7-0.2,2.5-1,3.2-2.4c4.4-9.2,9.4-17.9,15-26.4c23.4-35.6,53.9-63.4,91.5-83.5
		c23.6-12.5,48.6-20.9,74.9-25.3c17.1-2.9,34.3-3.9,51.7-3.1c34.2,1.6,66.7,9.8,97.5,24.9c23.5,11.5,44.7,26.4,63.4,44.6
		c28.8,28,49.6,61.1,62.4,99.1c5.5,16.2,9.1,32.8,11,49.8c1.2,10.2,1.7,20.4,1.6,30.6c-0.1,10.8-0.9,21.6-2.3,32.3
		c-0.3,2.1-0.2,2.1,1.9,2.1c4.8,0.1,9.6,0.3,14.3,0.1c4.8-0.3,9,4.6,6.7,10c-4.2,9.9-8.3,20-12.4,30c-2.4,5.9-1.1,8.8,5,10.8
		c23.2,7.5,46.5,15,69.7,22.6c8.4,2.7,14.9,11.4,15.6,20.4c0.9,12.8-7.3,23.5-19.9,25.8c-5.1,0.9-10,0.2-14.7-2.1
		c-13.9-7.1-27.8-14.1-41.7-21.1c-8-4.1-16.1-8.2-24.1-12.2c-3.1-1.6-5.7-1.3-7.8,0.7c-1,0.9-1.5,2.1-1.9,3.3
		c-4,9.8-8,19.5-12.1,29.3c-0.2,0.6-0.4,1.1-0.7,1.7c-2.1,4.8-7.5,6-11.3,2.5c-2.8-2.5-5.4-5.2-8.1-7.8c-0.8-0.8-1.6-1.6-2.4-2.3
		c-1.7-1.6-1.7-1.6-3,0.2c-7.4,9.9-15.5,19.2-24.3,27.9c-26.2,25.8-56.6,44.9-91.2,57.2c-17.9,6.4-36.3,10.5-55.1,12.6
		c-10.7,1.2-21.4,1.7-32.1,1.4c-20.1-0.5-39.9-3.1-59.3-8.4c-1.2-0.3-2.3-0.4-3.5-0.2c-18.8,2.6-37.6,5.1-56.4,7.7
		c-18.2,2.5-36.4,4.9-54.7,7.4c-18.1,2.5-36.3,5-54.4,7.4c-18.2,2.5-36.4,4.9-54.7,7.4c-2.6,0.4-5.2,0.7-7.8,1
		c-2.1,0.2-2.6-0.1-2.8-2.2c-0.9-6.6-1.8-13.2-2.7-19.7c-1.6-12-3.3-23.9-4.9-35.9c-1.4-10.5-2.9-21.1-4.3-31.6
		c-1.6-12.1-3.3-24.1-4.9-36.2c-1.4-10.5-2.9-21.1-4.3-31.6c-1.6-11.9-3.2-23.8-4.8-35.7c-1.6-12.1-3.3-24.1-4.9-36.2
		c-1.6-11.8-3.2-23.6-4.8-35.4c-1.5-10.7-2.9-21.4-4.4-32.1c-1.4-10.5-2.9-21.1-4.3-31.6c-1.1-8.2-2.2-16.4-3.3-24.5
		c-0.1-1.1,0-2.2-1-3C142.8,359.1,142.8,358.3,142.8,357.4z"/>
	<path class="st1" d="M616.6,452.3c27.3,0,54.7,0,82,0c7.8,0,15.7,0,23.5,0c2.6,0,2.9,0.3,2.9,3c0,2.7-0.1,5.4-0.2,8.2
		c-0.2,6-0.8,11.9-1.5,17.8c-0.1,1.1,0.1,1.6,1.3,1.5c1.6-0.1,3.2-0.1,4.9,0c1.3,0.1,1.7-0.5,1.9-1.7c0.8-5.2,1.3-10.5,1.7-15.7
		c1.1-15.3,0.9-30.6-0.8-45.9c-1.9-16.8-5.4-33.3-10.7-49.3c-12.6-38.1-33.4-71-62.2-98.9c-22.8-22.1-49-39.1-78.5-51.1
		c-26.7-10.8-54.5-16.5-83.3-17.5c-12.7-0.4-25.4,0.3-38,1.8c-15.9,1.9-31.5,5.4-46.7,10.5c-38.7,13-72.1,34.3-100.2,63.9
		c-17.6,18.6-31.9,39.4-43,62.5c-18.6,39.1-26.2,80.2-23.1,123.3c1.4,19.8,5.2,39.1,11.5,58c12.6,37.9,33.2,70.7,61.7,98.6
		c17.4,17,36.8,31.1,58.4,42.1c42.2,21.6,87.1,30.1,134.3,25.9c17.9-1.6,35.4-5.2,52.4-10.8c46.1-15.1,84.3-41.6,114.9-79.2
		c2-2.5,3.9-5.2,6-7.7c0.8-1,0.7-1.7-0.3-2.5c-1.1-0.9-2.1-2-3.1-3c-1.4-1.3-1.4-1.4-2.6,0.2c-3.4,4.4-6.9,8.6-10.7,12.7
		c-2.1,2.3-4.3,4.6-6.5,6.8c-1.3,1.3-1.8,1.3-3.2,0c-0.3-0.3-0.6-0.6-0.9-0.9c-12.9-12.9-25.8-25.7-38.7-38.6
		c-22.4-22.3-44.7-44.7-67.1-67c-14.1-14.1-28.2-28.2-42.3-42.2c-0.6-0.6-1.2-1.2-1.7-1.9c-1-1.5-0.4-2.7,1.3-2.9
		c0.8-0.1,1.7,0,2.6,0C547.3,452.3,581.9,452.3,616.6,452.3z"/>
	<path class="st2" d="M263.7,343.6c-0.4,0-1,0.1-1.6,0.2c-11.9,1.6-23.8,3.3-35.7,4.9c-11.9,1.6-23.8,3.2-35.7,4.8
		c-13.5,1.8-27,3.6-40.5,5.5c-4.3,0.6-3.8-0.2-3.2,4.3c1.4,10.8,2.9,21.6,4.4,32.4c1.4,10.5,2.9,21.1,4.3,31.6
		c1.4,10.6,2.9,21.2,4.4,31.9c1.4,10.6,2.9,21.3,4.3,31.9c1.5,10.9,3,21.8,4.4,32.6c1.4,10.5,2.8,20.9,4.3,31.4
		c1.6,11.9,3.3,23.8,4.9,35.7c1.6,11.8,3.2,23.6,4.8,35.4c2,14.4,4,28.8,5.9,43.3c1.9,13.7,3.7,27.5,5.6,41.2
		c0.3,1.9,0.3,1.9,2.2,1.7c15.9-2.1,31.7-4.3,47.6-6.4c18.2-2.5,36.4-5,54.6-7.5c18.1-2.5,36.3-4.9,54.4-7.3c20-2.7,40-5.4,60-8.2
		c0.7-0.1,1.5-0.1,2.2-0.6c-0.6-0.5-1.3-0.7-2.1-0.9c-12.2-4-24-8.8-35.3-14.7c-1.8-1-3.6-1.3-5.6-1c-15.6,2.2-31.2,4.3-46.8,6.5
		c-17,2.3-33.9,4.5-50.9,6.8c-19.3,2.6-38.6,5.3-57.9,7.9c-2.5,0.3-3,0-3.3-2.5c-1-7.5-2-15-3.1-22.5c-2.4-17.5-4.8-34.9-7.1-52.4
		c-2.7-20.1-5.5-40.1-8.2-60.2c-2.4-17.5-4.8-35.1-7.2-52.6c-2.6-18.8-5.1-37.6-7.7-56.4c-2.7-19.6-5.3-39.1-7.9-58.7
		c-0.3-2.5-0.1-2.9,2.6-3.2c4.2-0.6,8.4-1.1,12.7-1.7c10.9-1.5,21.8-3,32.6-4.5c10.5-1.4,21.1-3,31.6-4.2c3.1-0.4,4.5-1.5,5.4-4.4
		c1.9-6.3,4.6-12.4,7.3-18.5C264.9,344.4,265.4,343.5,263.7,343.6z"/>
	<path class="st3" d="M603.4,455.5c-28.9,0-57.7,0-86.6,0c-0.9,0-2.2-0.5-2.5,0.4c-0.3,0.8,1,1.4,1.6,2.1
		c12.2,12.2,24.5,24.4,36.7,36.6c25.5,25.5,51.1,51.1,76.6,76.6c2.2,2.2,4.5,4.4,6.7,6.6c0.9,1,1.6,1.2,2.8,0.4
		c2.6-1.6,5.4-2.8,8.2-4.1c3-1.3,6.1-2.7,9-4.3c5.2-2.9,8.3-7.2,9.4-13c0.8-3.9,1.2-7.9,1.5-11.9c0.5-9.2,4-16.9,11-23.1
		c3.5-3.1,6.9-6.3,9.8-10.1c3.2-4.1,4.3-8.8,3.5-13.9c-0.7-4.5-1.9-8.8-3.1-13.2c-2.2-8.3-1.6-16.2,2.6-23.7
		c0.5-0.9,0.9-1.8,1.4-2.7c1.7-3.3,1.3-2.9-1.7-2.9C661.3,455.5,632.4,455.5,603.4,455.5z"/>
	<path class="st4" d="M737.9,486.2c0-0.1,0-0.1,0-0.2c-3.7,0-7.5,0-11.2,0c-4,0-3.9,0-4.6,4c-3.4,20.5-9.7,40.1-18.8,58.9
		c-5.4,11-11.7,21.5-18.9,31.5c-1.4,1.9-1.3,1.6,0.1,3.1c4.3,4.2,8.6,8.5,13,12.7c2,2,4,4,6.1,5.8c2.3,2.1,4.8,1.5,6.2-1.4
		c0.4-0.8,0.7-1.7,1.1-2.6c3.9-9.5,7.8-19,11.8-28.6c2.6-6.3,8.3-8.3,14.4-5.2c21.8,11.1,43.5,22.1,65.3,33.1
		c8.6,4.3,18.8,2.2,25-5.1c9.7-11.3,4.8-28.6-9.4-33.2c-16.1-5.2-32.2-10.4-48.3-15.7c-7.3-2.4-14.6-4.7-21.8-7.1
		c-5-1.6-7.6-5.8-6.9-10.8c0.2-1.4,0.8-2.6,1.3-3.9c4.1-9.9,8.2-19.8,12.3-29.7c1.4-3.4-0.2-5.7-3.9-5.8
		C746.4,486.2,742.1,486.2,737.9,486.2z"/>
	<path class="st5" d="M710.7,455.5c-0.8,0-1.5,0-2.3,0c-2.5,0-4.9,0-7.4,0c-1.1,0-1.6,0.4-1.5,1.5c0,0.3,0,0.7,0,1
		c-0.3,11.1-1.4,22.1-3.5,33c-0.7,3.4-1.9,6.7-1.7,10.3c0.2,4.2-1.1,7.9-3.4,11.3c-0.6,0.9-1.1,1.9-1.5,2.9c-5,15-12,29.1-20.6,42.3
		c-0.6,0.9-1,1.8-1.3,2.7c-1.3,4.2-3.7,7.6-7.3,10.2c-0.7,0.5-1.4,0.9-2,1.6c-3.7,4.8-7.7,9.3-11.9,13.6c-1,1-0.8,1.6,0.1,2.4
		c3.9,3.8,7.7,7.7,11.6,11.5c1,0.9,1.7,2.6,3,2.6c1.3,0,2-1.7,2.9-2.6c21-22.3,36.4-47.9,46.3-76.8c5.4-15.6,8.8-31.6,10.5-48
		c0.6-5.8,0.8-11.5,1.1-17.3c0.1-2.2,0-2.2-2.2-2.2C716.7,455.5,713.7,455.5,710.7,455.5z"/>
	<path class="st2" d="M225.3,534.3c-0.5-3.6-0.9-6.9-1.4-10.3c-0.1-1-0.5-1.5-1.7-1.3c-3.3,0.5-6.5,1-9.8,1.3
		c-1.1,0.1-1.7,0.5-1.5,1.8c0.5,3.4,1,6.7,1.4,10.1c0.1,1,0.5,1.3,1.5,1.2c3.4-0.5,6.7-0.9,10.1-1.3
		C224.9,535.6,225.6,535.2,225.3,534.3z"/>
	<path class="st2" d="M275.6,627c3.2-0.4,6.6-0.9,10-1.3c1.1-0.1,1.4-0.6,1.3-1.7c-0.5-3.4-0.9-6.7-1.4-10.1
		c-0.1-0.9-0.4-1.4-1.5-1.2c-3.4,0.5-6.9,0.9-10.3,1.4c-0.9,0.1-1.3,0.5-1.2,1.5c0.5,3.4,0.9,6.7,1.4,10.1
		C273.9,626.8,274.3,627.4,275.6,627z"/>
	<path class="st2" d="M210,421.6c-0.5-3.5-0.9-6.7-1.3-10c-0.1-1.1-0.5-1.7-1.8-1.5c-3.4,0.5-6.7,1-10.1,1.4c-1,0.1-1.3,0.6-1.1,1.5
		c0.5,3.4,1,6.7,1.4,10.1c0.1,1.2,0.7,1.4,1.7,1.2c3.4-0.5,6.7-1,10.1-1.4C209.9,422.8,210.2,422.3,210,421.6z"/>
	<path class="st2" d="M233.7,571.6c0.5,3.6,1,7,1.4,10.3c0.1,1.1,0.7,1.4,1.7,1.2c3.3-0.5,6.5-1,9.8-1.3c1.2-0.1,1.6-0.6,1.4-1.8
		c-0.5-3.3-1-6.5-1.4-9.8c-0.1-1-0.5-1.5-1.6-1.3c-3.4,0.5-6.7,0.9-10.1,1.3C233.9,570.3,233.4,570.8,233.7,571.6z"/>
	<path class="st2" d="M223.5,376.1c0.5,3.8,1,7.2,1.4,10.5c0.1,0.9,0.6,1.3,1.5,1.1c3.4-0.5,6.7-0.9,10.1-1.3
		c1.3-0.2,1.5-0.8,1.3-1.9c-0.5-3.3-1-6.5-1.4-9.8c-0.1-1.1-0.5-1.4-1.6-1.3c-3.3,0.5-6.5,1-9.8,1.4
		C223.8,374.9,223.3,375.3,223.5,376.1z"/>
	<path class="st2" d="M223.8,601.3c2.5-0.3,5.7-0.7,8.8-1.1c0.9-0.1,1.7-0.2,1.5-1.5c-0.5-3.4-1-6.9-1.4-10.4
		c-0.1-1.1-0.7-1.3-1.7-1.2c-3.3,0.5-6.6,1-9.8,1.3c-1.2,0.1-1.6,0.6-1.4,1.8c0.5,3.1,0.9,6.2,1.3,9.3
		C221.3,601.5,221.3,601.5,223.8,601.3z"/>
	<path class="st2" d="M218.4,459.1c0.4,3.4,0.9,6.6,1.3,9.8c0.1,1.1,0.5,1.7,1.8,1.5c3.3-0.5,6.7-1,10.1-1.4
		c1.1-0.1,1.3-0.7,1.2-1.7c-0.5-3.3-1-6.5-1.4-9.8c-0.1-1.3-0.7-1.5-1.8-1.4c-3.3,0.5-6.5,1-9.8,1.4
		C218.4,457.6,218.1,458.2,218.4,459.1z"/>
	<path class="st2" d="M197.9,429.5c0.4,3.2,0.8,6.3,1.2,9.4c0.1,1.1,0.5,1.6,1.8,1.4c3.3-0.5,6.6-0.9,9.8-1.3
		c1.2-0.1,1.6-0.7,1.4-1.9c-0.5-3.2-0.9-6.4-1.4-9.6c-0.2-1.7-0.3-1.7-2.1-1.5c-3,0.4-6,0.9-9.1,1.2
		C197.9,427.5,197.5,428,197.9,429.5z"/>
	<path class="st2" d="M212.5,406c3.4-0.5,6.9-1,10.3-1.4c0.9-0.1,1.3-0.5,1.1-1.5c-0.5-3.4-1-6.7-1.4-10.1c-0.1-1.1-0.6-1.5-1.7-1.3
		c-3.4,0.5-6.9,1-10.3,1.4c-0.8,0.1-1.1,0.4-1,1.3c0.5,3.4,0.9,6.9,1.4,10.3C211.1,405.7,211.5,406.2,212.5,406z"/>
	<path class="st2" d="M254.6,633.2c-4,0.5-7.5,1-11.1,1.5c-1,0.1-1.2,0.7-1.1,1.6c0.5,3.4,0.9,6.7,1.3,10.1c0.1,1,0.6,1.4,1.7,1.2
		c3.3-0.5,6.6-1,9.9-1.4c1.1-0.1,1.5-0.5,1.4-1.6c-0.5-3.5-1-6.9-1.5-10.4C255.2,633.6,255,633.1,254.6,633.2z"/>
	<path class="st2" d="M197.5,408c2.5-0.3,5.6-0.8,8.7-1.1c1.1-0.1,1.7-0.6,1.5-1.8c-0.5-3.4-1-6.7-1.4-10.1
		c-0.1-1.2-0.7-1.3-1.7-1.1c-3.3,0.5-6.5,1-9.8,1.3c-1.3,0.1-1.5,0.7-1.4,1.9c0.5,3.2,0.9,6.4,1.4,9.6
		C195.1,408.3,195.2,408.3,197.5,408z"/>
	<path class="st2" d="M293,646.2c0.4,3.2,0.8,6.3,1.2,9.4c0.1,0.9,0.3,1.7,1.5,1.5c3.4-0.5,6.9-0.9,10.3-1.4
		c1.1-0.1,1.3-0.7,1.1-1.8c-0.5-3.3-1-6.5-1.3-9.8c-0.1-1.3-0.7-1.5-1.9-1.3c-3.1,0.5-6.2,1-9.3,1.3
		C293.2,644.2,292.5,644.5,293,646.2z"/>
	<path class="st2" d="M205.7,472.5c3.1-0.4,6.2-0.8,9.3-1.2c0.9-0.1,1.7-0.3,1.5-1.5c-0.5-3.5-1-7.1-1.4-10.6
		c-0.1-0.9-0.6-1.1-1.4-0.9c-3.4,0.5-6.7,1-10.1,1.4c-1.2,0.1-1.6,0.7-1.4,1.8c0.5,3.2,0.9,6.4,1.4,9.6
		C203.8,472.7,203.9,472.7,205.7,472.5z"/>
	<path class="st2" d="M235.2,504.6c-2.6,0.3-5.8,0.8-8.9,1.2c-1.1,0.1-1.7,0.4-1.4,1.8c0.5,3.3,0.9,6.6,1.3,9.8
		c0.1,1.2,0.6,1.6,1.8,1.4c3.3-0.5,6.5-1,9.8-1.3c1.3-0.1,1.5-0.7,1.3-1.9c-0.5-3.1-0.9-6.2-1.3-9.3
		C237.7,504.4,237.7,504.4,235.2,504.6z"/>
	<path class="st2" d="M232.7,665.7c2.5-0.3,5.6-0.7,8.7-1.2c0.9-0.1,1.6-0.3,1.4-1.5c-0.5-3.4-1-6.9-1.4-10.3
		c-0.1-1-0.5-1.3-1.5-1.1c-3.4,0.5-6.7,1-10.1,1.4c-1.3,0.1-1.5,0.7-1.3,1.9c0.5,3.1,0.8,6.2,1.2,9.3C230,666,230.1,666,232.7,665.7
		z"/>
	<path class="st2" d="M248.2,548.8c3.6-0.5,6.9-0.9,10.3-1.4c0.8-0.1,1.4-0.4,1.3-1.5c-0.5-3.5-1-7.1-1.4-10.6
		c-0.1-0.9-0.7-1-1.4-0.9c-3.4,0.5-6.9,1-10.3,1.4c-1,0.1-1.3,0.5-1.1,1.5c0.5,3.4,0.9,6.7,1.3,10.1
		C246.8,548.4,247.2,549.1,248.2,548.8z"/>
	<path class="st2" d="M243.6,548c-0.5-3.5-0.9-6.7-1.3-9.9c-0.1-1.1-0.4-1.7-1.8-1.5c-3.3,0.5-6.6,0.9-9.9,1.3
		c-1.2,0.1-1.5,0.8-1.3,1.9c0.5,3.3,1,6.6,1.4,9.9c0.1,1.1,0.6,1.4,1.7,1.2c3.2-0.5,6.4-1,9.6-1.3
		C243.3,549.5,243.9,549.1,243.6,548z"/>
	<path class="st2" d="M272.2,647.1c-3.6,0.5-6.9,0.9-10.2,1.4c-0.8,0.1-1.5,0.2-1.3,1.4c0.5,3.4,0.9,6.9,1.4,10.3
		c0.1,1.1,0.7,1.4,1.7,1.2c3.4-0.5,6.7-1,10.1-1.4c1.2-0.1,1.3-0.7,1.2-1.7c-0.5-3.2-0.9-6.4-1.3-9.6
		C273.6,647.5,273.2,646.9,272.2,647.1z"/>
	<path class="st2" d="M291.2,656.5c-0.5-3.7-1-7-1.4-10.3c-0.1-1.1-0.5-1.4-1.7-1.2c-3.3,0.5-6.6,0.9-9.9,1.3
		c-1.3,0.1-1.5,0.8-1.4,1.9c0.5,3.3,1,6.6,1.4,9.9c0.1,1.1,0.5,1.4,1.7,1.3c3.2-0.5,6.4-0.9,9.6-1.3
		C290.7,657.8,291.4,657.5,291.2,656.5z"/>
	<path class="st2" d="M323.4,652.2c-0.5-3.5-1-6.9-1.4-10.4c-0.1-1.1-0.7-1.4-1.7-1.2c-3.4,0.5-6.7,1-10.1,1.4
		c-1.1,0.1-1.2,0.7-1.1,1.6c0.5,3.4,1,6.7,1.4,10.1c0.1,1.2,0.7,1.4,1.7,1.2c3.4-0.5,6.7-1,10.1-1.4
		C323,653.4,323.5,653.1,323.4,652.2z"/>
	<path class="st2" d="M264.1,578.1c-0.5-3.6-1-6.9-1.4-10.2c-0.1-1-0.5-1.5-1.7-1.3c-3.3,0.5-6.7,1-10.1,1.4
		c-1.2,0.1-1.4,0.7-1.2,1.7c0.5,3.4,1,6.7,1.4,10.1c0.1,1,0.5,1.3,1.5,1.2c3.4-0.5,6.7-0.9,10.1-1.3
		C263.9,579.5,264.3,578.8,264.1,578.1z"/>
	<path class="st2" d="M263.4,582.7c-3.5,0.5-7,1-10.6,1.5c-0.9,0.1-1,0.6-0.9,1.4c0.5,3.4,1,6.7,1.4,10.1c0.1,1.1,0.5,1.5,1.6,1.4
		c3.4-0.5,6.9-1,10.3-1.4c0.8-0.1,1.2-0.4,1.1-1.3c-0.5-3.4-0.9-6.9-1.4-10.3C264.8,583.1,264.4,582.6,263.4,582.7z"/>
	<path class="st2" d="M305,638c-0.5-3.4-0.9-6.6-1.3-9.8c-0.1-1.1-0.6-1.6-1.8-1.5c-3.3,0.5-6.5,0.9-9.8,1.3
		c-1.2,0.1-1.6,0.7-1.4,1.9c0.5,3.3,1,6.5,1.4,9.8c0.1,1.3,0.8,1.5,1.9,1.3c3.2-0.5,6.4-1,9.6-1.3C304.8,639.5,305.4,639.1,305,638z
		"/>
	<path class="st2" d="M227.5,633.6c3.2-0.4,6.3-0.8,9.5-1.2c1.1-0.1,1.7-0.5,1.5-1.8c-0.5-3.4-1-6.9-1.5-10.3
		c-0.1-0.9-0.6-1.1-1.4-1c-3.4,0.5-6.7,1-10.1,1.4c-1.3,0.1-1.6,0.7-1.4,1.8c0.5,3.2,0.9,6.4,1.3,9.6
		C225.7,633.9,226.1,633.9,227.5,633.6z"/>
	<path class="st2" d="M282.4,592.1c-0.5-3.5-1-7.1-1.5-10.6c-0.1-0.7-0.3-1.1-1.1-1c-3.5,0.5-7.1,0.9-10.6,1.4
		c-0.8,0.1-1.2,0.6-1.1,1.4c0.5,3.5,1,7.1,1.5,10.6c0.1,0.7,0.4,1.1,1.2,1c3.5-0.5,7.1-1,10.6-1.4
		C282.1,593.4,282.5,593,282.4,592.1z"/>
	<path class="st2" d="M242.9,631.5c3.8-0.5,7-1,10.3-1.4c1.2-0.2,1.5-0.6,1.3-1.9c-0.5-3.2-0.9-6.4-1.3-9.6
		c-0.1-1.2-0.5-1.7-1.8-1.5c-3.4,0.5-6.9,1-10.3,1.5c-0.9,0.1-1.1,0.5-0.9,1.4c0.5,3.4,1,6.7,1.4,10.1
		C241.7,631.3,242.3,631.7,242.9,631.5z"/>
	<path class="st2" d="M230.5,451.7c-0.5-3.6-0.9-7.2-1.4-10.8c-0.1-0.7-0.5-1-1.3-0.9c-3.5,0.5-7.1,0.9-10.6,1.4
		c-0.7,0.1-1.2,0.4-1.1,1.4c0.5,3.5,1,7.1,1.4,10.6c0.1,0.9,0.6,1.1,1.4,1c3.4-0.5,6.9-1,10.3-1.4
		C230,452.9,230.6,452.7,230.5,451.7z"/>
	<path class="st2" d="M218.6,484.8C218.6,484.8,218.6,484.8,218.6,484.8c-0.3-2.9-0.8-5.9-1.1-8.8c-0.1-1.1-0.4-1.7-1.7-1.6
		c-3.4,0.5-6.9,1-10.3,1.4c-0.8,0.1-1.1,0.5-1,1.4c0.5,3.4,1,6.9,1.4,10.3c0.1,1,0.6,1.3,1.5,1.2c3.5-0.5,7-1,10.6-1.5
		c0.7-0.1,1-0.4,0.9-1.2C218.7,485.7,218.6,485.2,218.6,484.8z"/>
	<path class="st2" d="M234.9,483.7c-0.5-3.5-1-6.9-1.5-10.4c-0.1-0.8-0.4-1.2-1.3-1.1c-3.5,0.5-6.9,0.9-10.4,1.4
		c-0.9,0.1-1.3,0.6-1.2,1.5c0.5,3.5,1,6.9,1.4,10.4c0.1,1.1,0.7,1.2,1.6,1.1c3.4-0.5,6.7-1,10.1-1.4
		C234.6,485.1,235,484.6,234.9,483.7z"/>
	<path class="st2" d="M200,444.9c0.5,3.7,1,7,1.4,10.2c0.1,1.2,0.7,1.6,1.8,1.4c3.3-0.5,6.6-1,9.8-1.4c1.1-0.1,1.4-0.6,1.3-1.7
		c-0.5-3.4-1-6.7-1.4-10.1c-0.1-1-0.6-1.3-1.5-1.2c-3.4,0.5-6.7,1-10.1,1.4C200.2,443.7,199.8,444.2,200,444.9z"/>
	<path class="st2" d="M284.6,608.4c-0.5-3.7-1-7.1-1.4-10.5c-0.1-1.1-0.7-1.4-1.8-1.2c-3.3,0.5-6.6,1-9.8,1.4
		c-1.3,0.1-1.5,0.7-1.3,1.8c0.5,3.2,1,6.4,1.4,9.6c0.1,1.2,0.5,1.7,1.8,1.5c3.3-0.5,6.6-0.9,9.9-1.4
		C284.2,609.5,284.9,609.2,284.6,608.4z"/>
	<path class="st2" d="M254.1,601.5c0.5,3.9,1,7.2,1.4,10.4c0.1,0.8,0.4,1.4,1.5,1.2c3.5-0.5,6.9-0.9,10.4-1.4c1-0.1,1.3-0.6,1.1-1.6
		c-0.5-3.4-1-6.7-1.4-10.1c-0.1-1.1-0.6-1.4-1.7-1.2c-3.3,0.5-6.6,1-9.9,1.4C254.3,600.3,254,600.9,254.1,601.5z"/>
	<path class="st2" d="M215.3,557.7c0.5,3.7,1,7,1.4,10.3c0.1,1.1,0.6,1.4,1.7,1.2c3.3-0.5,6.6-0.9,9.9-1.3c1.2-0.1,1.5-0.7,1.4-1.9
		c-0.5-3.3-1-6.6-1.4-9.9c-0.1-1.1-0.5-1.4-1.6-1.3c-3.3,0.5-6.6,1-9.9,1.3C215.5,556.4,215.2,557,215.3,557.7z"/>
	<path class="st2" d="M234.3,567.1c3.7-0.5,7-1,10.2-1.4c1-0.1,1.4-0.5,1.2-1.6c-0.5-3.3-0.9-6.6-1.3-9.8c-0.1-1.1-0.6-1.7-1.8-1.5
		c-3.4,0.5-6.7,1-10.1,1.4c-1.2,0.1-1.3,0.7-1.1,1.7c0.5,3.2,1,6.4,1.3,9.6C232.9,566.8,233.4,567.3,234.3,567.1z"/>
	<path class="st2" d="M206.6,493.3c0.5,3.5,1,7.1,1.5,10.6c0.1,0.8,0.4,1.1,1.4,1c3.4-0.5,6.9-0.9,10.3-1.4c0.9-0.1,1.4-0.5,1.2-1.5
		c-0.5-3.5-1-7-1.5-10.6c-0.1-0.7-0.5-1-1.2-0.9c-3.5,0.5-7.1,1-10.6,1.4C206.9,492,206.5,492.4,206.6,493.3z"/>
	<path class="st2" d="M291.3,624.9c3.7-0.5,6.9-0.9,10.2-1.4c1-0.1,1.5-0.6,1.3-1.7c-0.5-3.4-1-6.7-1.4-10.1
		c-0.1-1.2-0.7-1.4-1.7-1.2c-3.3,0.5-6.6,1-9.8,1.4c-1.3,0.1-1.5,0.8-1.3,1.9c0.5,3.2,0.9,6.4,1.3,9.6
		C290,624.5,290.4,625.2,291.3,624.9z"/>
	<path class="st2" d="M268,614.9c-3.7,0.5-7,1-10.3,1.4c-1.2,0.1-1.5,0.7-1.3,1.9c0.5,3.3,1,6.6,1.4,9.8c0.1,1.1,0.6,1.4,1.7,1.3
		c3.4-0.5,6.7-1,10.1-1.4c1.1-0.1,1.3-0.6,1.1-1.5c-0.5-3.4-1-6.7-1.4-10.1C269.1,615.1,268.6,614.8,268,614.9z"/>
	<path class="st2" d="M211.7,410.6c0.5,3.7,1,6.9,1.4,10.2c0.2,1.2,0.7,1.5,1.9,1.3c3.2-0.5,6.4-1,9.6-1.3c1.2-0.1,1.6-0.6,1.5-1.8
		c-0.5-3.3-1-6.6-1.4-9.9c-0.1-1.1-0.5-1.5-1.6-1.3c-3.3,0.5-6.6,0.9-9.9,1.3C212.1,409.3,211.5,409.7,211.7,410.6z"/>
	<path class="st2" d="M242.2,417.1c-0.5-3.5-0.9-6.9-1.4-10.3c-0.1-0.8-0.3-1.5-1.4-1.3c-3.5,0.5-7.1,1-10.6,1.5
		c-0.9,0.1-1.1,0.6-1,1.4c0.5,3.4,1,6.9,1.4,10.3c0.1,1,0.5,1.3,1.5,1.2c3.4-0.5,6.7-0.9,10.1-1.3
		C241.8,418.5,242.5,418.2,242.2,417.1z"/>
	<path class="st2" d="M272.8,642.6c-0.5-3.6-0.9-7-1.4-10.4c-0.1-1.1-0.7-1.3-1.8-1.1c-3.3,0.5-6.5,1-9.8,1.3
		c-1.2,0.1-1.6,0.6-1.4,1.8c0.5,3.3,1,6.5,1.4,9.8c0.1,1.1,0.5,1.5,1.6,1.3c3.4-0.5,6.7-0.9,10.1-1.3
		C272.6,643.9,273.1,643.3,272.8,642.6z"/>
	<path class="st2" d="M240.7,647.1c-0.5-3.5-1-7.1-1.4-10.6c-0.1-0.8-0.6-1.1-1.4-1c-3.5,0.5-6.9,1-10.4,1.4c-1,0.1-1.3,0.5-1.2,1.5
		c0.5,3.4,1,6.7,1.4,10.1c0.1,0.9,0.4,1.4,1.4,1.3c3.5-0.5,7.1-1,10.6-1.5C240.5,648.2,240.7,647.8,240.7,647.1z"/>
	<path class="st2" d="M221.7,387c-0.5-3.5-0.9-6.8-1.3-10.1c-0.1-0.7-0.2-1.5-1.4-1.3c-3.4,0.5-6.9,0.9-10.3,1.4
		c-1.1,0.1-1.4,0.7-1.3,1.7c0.5,3.4,1,6.7,1.4,10.1c0.1,1.2,0.7,1.3,1.7,1.2c3.3-0.5,6.5-1,9.8-1.4
		C221.5,388.4,221.9,387.9,221.7,387z"/>
	<path class="st2" d="M213.3,542.9c0.3,2.5,0.8,5.6,1.1,8.7c0.1,1.3,0.6,1.8,2,1.6c3.3-0.5,6.5-1,9.8-1.4c1.1-0.1,1.4-0.5,1.3-1.6
		c-0.5-3.3-1-6.5-1.3-9.8c-0.1-1.2-0.6-1.6-1.8-1.4c-3.2,0.5-6.4,0.8-9.6,1.3C213.1,540.4,213.1,540.5,213.3,542.9z"/>
	<path class="st2" d="M223.2,518.3c-0.5-3.5-1-7.1-1.5-10.6c-0.1-0.9-0.6-1.1-1.4-1c-3.5,0.5-6.9,1-10.4,1.4c-1,0.1-1.3,0.6-1.1,1.5
		c0.5,3.5,1,6.9,1.4,10.4c0.1,0.9,0.6,1.1,1.4,1c3.5-0.5,7.1-1,10.6-1.5C223,519.4,223.2,519,223.2,518.3z"/>
	<path class="st2" d="M247.5,553.4c0.5,3.7,1,6.9,1.4,10.2c0.1,1.1,0.6,1.5,1.7,1.3c3.4-0.5,6.7-1,10.1-1.4c1.3-0.1,1.3-0.8,1.2-1.7
		c-0.5-3.3-1-6.6-1.4-9.8c-0.1-1.1-0.6-1.4-1.7-1.3c-3.3,0.5-6.6,0.9-9.9,1.3C247.8,552,247.3,552.5,247.5,553.4z"/>
	<path class="st2" d="M230,534.9c3.6-0.5,6.9-1,10.2-1.4c1.1-0.1,1.4-0.6,1.3-1.7c-0.5-3.3-1-6.6-1.4-9.9c-0.1-1.3-0.7-1.6-1.8-1.4
		c-3.3,0.5-6.6,1-9.9,1.4c-1.2,0.1-1.4,0.7-1.2,1.7c0.5,3.3,0.9,6.6,1.3,9.9C228.6,534.6,229.1,535.1,230,534.9z"/>
	<path class="st2" d="M231.9,582.6c-0.5-3.6-1-6.9-1.4-10.2c-0.1-1-0.6-1.5-1.7-1.3c-3.4,0.5-6.7,1-10.1,1.4
		c-1.2,0.1-1.3,0.8-1.2,1.7c0.5,3.3,1,6.6,1.4,9.9c0.2,1.4,0.8,1.5,1.9,1.3c3.2-0.5,6.4-1,9.6-1.3
		C231.6,583.8,232.1,583.5,231.9,582.6z"/>
	<path class="st2" d="M252.4,612.6c-0.5-3.5-0.9-7.1-1.4-10.6c-0.1-0.8-0.5-1.1-1.4-1c-3.4,0.5-6.9,0.9-10.3,1.4
		c-0.9,0.1-1.4,0.5-1.2,1.5c0.5,3.5,1,7,1.5,10.6c0.1,0.7,0.5,1,1.2,0.9c3.5-0.5,7.1-1,10.6-1.4
		C252.1,613.9,252.5,613.5,252.4,612.6z"/>
	<path class="st2" d="M221.9,605.9c0.5,3.7,1,7.1,1.4,10.4c0.1,1.1,0.7,1.4,1.7,1.2c3.3-0.5,6.6-1,9.8-1.4c1.3-0.1,1.5-0.7,1.4-1.8
		c-0.5-3.2-1-6.4-1.4-9.6c-0.1-1.2-0.5-1.7-1.8-1.5c-3.3,0.5-6.6,0.9-9.9,1.3C222.3,604.7,221.7,605.1,221.9,605.9z"/>
	<path class="st2" d="M317.4,624.6c-3,0.4-6.2,0.8-9.5,1.2c-1.1,0.1-1.1,0.9-1,1.7c0.3,2.1,0.6,4.2,0.8,6.3c0.2,1.3,0.4,2.7,0.6,4
		c0.1,0.6,0.3,1.1,1.1,1c3.6-0.5,7.2-1,10.8-1.5c0.7-0.1,1-0.5,0.9-1.2c-0.5-3.4-0.9-6.7-1.4-10.1
		C319.6,625.1,318.8,624.5,317.4,624.6z"/>
	<path class="st2" d="M259,660.9c-0.5-3.6-1-6.9-1.4-10.2c-0.1-1-0.5-1.5-1.6-1.3c-3.4,0.5-6.7,1-10.1,1.4c-1.2,0.1-1.3,0.7-1.2,1.7
		c0.5,3.3,1,6.6,1.4,9.9c0.1,1.3,0.8,1.5,1.9,1.3c3.2-0.5,6.4-0.9,9.6-1.3C258.6,662.2,259.3,661.8,259,660.9z"/>
	<path class="st2" d="M240.1,401.2c-0.5-3.8-1-6.9-1.4-10.2c-0.1-1.1-0.5-1.7-1.8-1.5c-3.3,0.5-6.6,1-9.9,1.3
		c-1.3,0.1-1.5,0.8-1.3,1.9c0.5,3.3,1,6.6,1.4,9.8c0.1,1.2,0.7,1.4,1.7,1.2c3.3-0.5,6.6-1,9.9-1.4
		C239.9,402.3,240.2,401.7,240.1,401.2z"/>
	<path class="st2" d="M191.3,380.6c0.5,3.6,0.9,6.9,1.3,10.1c0.1,1.2,0.8,1.5,1.9,1.3c3.3-0.5,6.6-1,9.8-1.4
		c1.1-0.1,1.4-0.6,1.3-1.7c-0.5-3.3-1-6.6-1.4-9.9c-0.1-1.3-0.8-1.5-1.9-1.4c-3.2,0.5-6.4,0.9-9.6,1.3
		C191.7,379.3,190.9,379.6,191.3,380.6z"/>
	<path class="st2" d="M228.3,435.3c-0.5-3.6-1-6.9-1.4-10.2c-0.1-1.1-0.7-1.4-1.7-1.3c-3.4,0.5-6.7,1-10.1,1.4
		c-1.1,0.1-1.3,0.6-1.2,1.5c0.5,3.4,1,6.7,1.4,10.1c0.1,1.1,0.6,1.4,1.7,1.3c3.3-0.5,6.6-0.9,9.9-1.3
		C228.1,436.7,228.5,436.2,228.3,435.3z"/>
	<path class="st2" d="M250.2,596.4c-0.5-3.6-1-7-1.4-10.4c-0.1-1-0.6-1.3-1.5-1.2c-3.5,0.5-6.9,1-10.4,1.4c-0.9,0.1-1.2,0.5-1,1.4
		c0.5,3.5,1,6.9,1.4,10.4c0.1,1,0.6,1.3,1.5,1.2c3.4-0.5,6.7-0.9,10.1-1.4C250,597.7,250.4,597.3,250.2,596.4z"/>
	<path class="st2" d="M286.6,628.8c-4,0.6-7.5,1.1-10.9,1.5c-1.1,0.1-1.2,0.7-1.1,1.6c0.5,3.4,0.9,6.7,1.4,10.1
		c0.1,0.9,0.5,1.4,1.5,1.2c3.4-0.5,6.9-1,10.4-1.4c1.1-0.1,1.2-0.7,1.1-1.6c-0.5-3.4-1-6.7-1.4-10.1
		C287.4,629.2,287.1,628.7,286.6,628.8z"/>
	<path class="st2" d="M237.1,499.9c-0.5-3.6-0.9-6.9-1.4-10.2c-0.1-1.1-0.6-1.6-1.8-1.4c-3.3,0.5-6.6,1-9.8,1.4
		c-1.1,0.1-1.5,0.5-1.3,1.6c0.5,3.3,1,6.6,1.4,9.9c0.1,1.2,0.6,1.6,1.8,1.4c3.3-0.5,6.6-0.9,9.9-1.3
		C236.7,501.1,237.3,500.7,237.1,499.9z"/>
	<path class="st2" d="M243.5,429.4c0.4-2.2-0.3-4.4-0.5-6.6c-0.1-0.9-0.6-1.1-1.4-1c-3.5,0.5-7.1,1-10.6,1.4
		c-0.9,0.1-1.1,0.6-0.9,1.4c0.5,3.4,0.9,6.9,1.4,10.3c0.1,0.9,0.6,1.3,1.6,1.1c1.8-0.3,3.5-0.5,5.3-0.8c1.6-0.3,3.6,0.2,4.6-1
		C243.8,433,243.3,431,243.5,429.4z"/>
	<path class="st2" d="M325.2,641.4c0.5,3.5,0.9,6.8,1.3,10.1c0.1,0.8,0.2,1.5,1.4,1.3c3.5-0.5,7.1-1,10.6-1.5c0.9-0.1,1.1-0.5,1-1.4
		c-0.4-2.4-0.6-4.9-1-7.3c-0.3-1.6-3.3-4-4.9-3.8c-2.4,0.3-4.7,0.6-7.1,0.9C325.4,639.9,324.7,640.3,325.2,641.4z"/>
	<path class="st2" d="M188.9,396.1c-3.4,0.4-6.6,0.9-9.8,1.3c-0.9,0.1-1.4,0.4-1.2,1.5c0.5,3.4,0.9,6.9,1.4,10.3
		c0.1,0.9,0.5,1.4,1.5,1.2c3.3-0.5,6.5-0.9,9.8-1.3c1-0.1,1.3-0.6,1.1-1.5c-0.5-3.4-1-6.7-1.4-10.1
		C190.2,396.3,189.8,395.9,188.9,396.1z"/>
	<path class="st2" d="M193.3,428.3c-3.4,0.4-6.6,0.9-9.8,1.3c-1.2,0.1-1.3,0.8-1.2,1.8c0.5,3.4,1,6.7,1.4,10.1
		c0.1,1,0.6,1.2,1.5,1.1c3.1-0.5,6.2-0.9,9.3-1.3c1.2-0.1,1.6-0.6,1.5-1.8c-0.5-3.3-0.9-6.6-1.3-9.9
		C194.6,428.7,194.3,428,193.3,428.3z"/>
	<path class="st2" d="M204.1,592.1c0.5,3.4,1,6.9,1.5,10.3c0.1,1,0.6,1.2,1.5,1.1c3.1-0.5,6.2-0.9,9.3-1.3c1.2-0.1,1.7-0.6,1.5-1.8
		c-0.5-3.4-1-6.7-1.4-10.1c-0.1-1-0.6-1.2-1.5-1.1c-3.2,0.4-6.4,0.9-9.6,1.3C204.5,590.7,204,591.2,204.1,592.1z"/>
	<path class="st2" d="M180,414.7c0.5,3.8,1,7.1,1.4,10.4c0.1,1,0.5,1.5,1.6,1.3c3.2-0.5,6.4-0.9,9.6-1.3c1.1-0.1,1.3-0.8,1.2-1.7
		c-0.5-3.4-1-6.7-1.4-10.1c-0.1-1.1-0.7-1.2-1.6-1.1c-3.2,0.5-6.4,1-9.6,1.4C180.1,413.7,179.9,414.3,180,414.7z"/>
	<path class="st2" d="M208.8,626.2c0.3,2,0.6,5.1,1.1,8.1c0.2,1.6,0.3,1.6,2,1.4c2.9-0.4,5.9-0.8,8.8-1.2c1.8-0.3,1.8-0.3,1.6-2
		c-0.4-3.1-0.8-6.2-1.2-9.3c-0.2-1.7-0.2-1.8-2.1-1.6c-2.8,0.3-5.5,0.7-8.3,1.1C208.4,623,208.4,623,208.8,626.2z"/>
	<path class="st2" d="M321.5,656.9C321.5,656.9,321.5,656.9,321.5,656.9c-3,0.4-5.9,0.8-8.9,1.1c-1.1,0.1-1.7,0.5-1.5,1.8
		c0.5,3.1,0.9,6.2,1.3,9.3c0.1,1,0.4,1.5,1.6,1.4c3.4-0.5,6.7-0.9,10.1-1.4c0.9-0.1,1.4-0.5,1.2-1.5c-0.4-3.3-0.9-6.6-1.3-9.9
		c-0.1-1-0.7-1.3-1.6-1C322.2,656.8,321.9,656.8,321.5,656.9z"/>
	<path class="st2" d="M265.9,677c3.5-0.5,6.7-0.9,9.9-1.3c1.2-0.1,1.6-0.7,1.4-1.9c-0.5-3.1-0.9-6.2-1.3-9.3
		c-0.1-1.1-0.6-1.4-1.7-1.2c-3.3,0.5-6.6,1-9.9,1.4c-1.3,0.1-1.5,0.7-1.4,1.9c0.4,3,0.8,6.1,1.2,9.1
		C264.3,676.9,264.9,677.4,265.9,677z"/>
	<path class="st2" d="M202.7,488.1c-0.5-3.5-1-7.1-1.5-10.6c-0.1-1-0.7-1-1.5-0.9c-3.3,0.5-6.6,1-9.8,1.4c-0.9,0.1-1.2,0.5-1,1.3
		c0.5,3.5,1,7.1,1.5,10.6c0.1,0.8,0.5,1,1.2,0.9c3.4-0.5,6.7-0.9,10.1-1.4C202.5,489.4,202.8,488.9,202.7,488.1z"/>
	<path class="st2" d="M220.2,617c-0.5-3.7-1-7-1.4-10.3c-0.1-1-0.5-1.5-1.6-1.3c-3.2,0.5-6.4,1-9.6,1.4c-1.2,0.1-1.4,0.7-1.2,1.7
		c0.5,3.3,1,6.6,1.4,9.8c0.1,1.1,0.5,1.5,1.6,1.4c3.2-0.5,6.4-0.9,9.6-1.3C220,618.2,220.3,617.6,220.2,617z"/>
	<path class="st2" d="M204.8,504.3c-0.5-3.5-1-7.1-1.4-10.6c-0.1-0.8-0.6-1.1-1.4-0.9c-3.3,0.5-6.6,0.9-9.9,1.3
		c-0.8,0.1-1.2,0.5-1.1,1.4c0.5,3.5,1,7.1,1.5,10.6c0.1,0.9,0.6,1.1,1.4,1c3.3-0.5,6.6-0.9,9.9-1.4
		C204.5,505.5,204.9,505.2,204.8,504.3z"/>
	<path class="st2" d="M226.8,665.4c-0.5-3.8-1-7.1-1.4-10.4c-0.1-1.1-0.6-1.4-1.7-1.2c-3.1,0.5-6.2,0.9-9.4,1.2
		c-1.3,0.1-1.5,0.8-1.4,1.9c0.5,3.3,1,6.6,1.4,9.8c0.1,1.1,0.6,1.4,1.7,1.3c3.1-0.5,6.2-0.9,9.4-1.3
		C226.6,666.6,226.9,666,226.8,665.4z"/>
	<path class="st2" d="M295.1,661.9c0.5,3.4,0.9,6.5,1.3,9.6c0.1,1.1,0.6,1.4,1.7,1.2c3.4-0.5,6.7-1,10.1-1.4c1-0.1,1.3-0.5,1.2-1.5
		c-0.5-3.2-1-6.4-1.3-9.6c-0.1-1.1-0.6-1.4-1.7-1.3c-3.3,0.5-6.6,0.9-9.9,1.3C295.3,660.4,294.9,660.9,295.1,661.9z"/>
	<path class="st2" d="M293.2,671.8c-0.4-3.3-0.9-6.4-1.2-9.4c-0.1-1-0.6-1.5-1.7-1.3c-3.4,0.5-6.7,1-10.1,1.4
		c-1.2,0.1-1.4,0.6-1.2,1.7c0.5,3,0.9,6.1,1.3,9.1c0.1,1.3,0.6,1.8,1.9,1.6c3.2-0.5,6.4-1,9.6-1.3
		C293.2,673.4,293.5,672.7,293.2,671.8z"/>
	<path class="st2" d="M213,573.2c-3.4,0.5-6.7,1-10.1,1.4c-0.7,0.1-1,0.4-0.9,1.2c0.5,3.5,0.9,7.1,1.4,10.6c0.1,0.8,0.6,1.2,1.4,1
		c3.3-0.5,6.6-0.9,9.9-1.3c0.9-0.1,1.3-0.6,1.2-1.5c-0.5-3.5-1-6.9-1.4-10.4C214.3,573.3,213.8,573,213,573.2z"/>
	<path class="st2" d="M211.3,557c-3.8,0.5-7.2,0.9-10.5,1.4c-0.8,0.1-1.1,0.6-1,1.4c0.5,3.5,1,7.1,1.4,10.6c0.1,0.7,0.4,1.1,1.2,1
		c3.4-0.5,6.9-0.9,10.3-1.4c0.7-0.1,1-0.5,0.9-1.2c-0.5-3.5-0.9-7.1-1.4-10.6C212.1,557.4,211.7,557,211.3,557z"/>
	<path class="st2" d="M200.6,555.2c3.2-0.4,6.2-0.8,9.3-1.2c1.1-0.1,1.7-0.5,1.5-1.8c-0.5-3.4-1-6.7-1.4-10.1
		c-0.1-1-0.6-1.3-1.5-1.2c-3.2,0.5-6.4,1-9.6,1.4c-1.1,0.1-1.4,0.6-1.3,1.6c0.5,3.3,1,6.6,1.4,9.8
		C199.1,555.1,199.6,555.5,200.6,555.2z"/>
	<path class="st2" d="M196.1,523.1c3.4-0.5,6.7-1,10.1-1.4c0.9-0.1,1-0.6,0.9-1.4c-0.5-3.4-0.9-6.7-1.4-10.1
		c-0.1-1.1-0.5-1.5-1.6-1.3c-3.3,0.5-6.5,1-9.8,1.4c-0.8,0.1-1.2,0.4-1,1.3c0.5,3.4,0.9,6.9,1.4,10.3
		C194.7,522.7,195.1,523.2,196.1,523.1z"/>
	<path class="st2" d="M196.7,460.6c-2.6,0.3-5.5,0.8-8.5,1.1c-1.3,0.2-1.7,0.8-1.5,2.1c0.5,3.2,0.8,6.4,1.3,9.6
		c0.1,1.1,0.6,1.6,1.9,1.4c3-0.5,6.1-0.8,9.1-1.3c1.7-0.2,1.7-0.3,1.5-1.9c-0.4-3.1-0.9-6.2-1.3-9.3
		C198.9,460.5,198.8,460.5,196.7,460.6z"/>
	<path class="st2" d="M209.3,536.6c-0.5-3.6-1-7.1-1.5-10.5c-0.1-1-0.6-1.2-1.6-1.1c-3.2,0.4-6.4,0.8-9.6,1.2
		c-0.9,0.1-1.3,0.6-1.2,1.5c0.5,3.4,1,6.9,1.4,10.3c0.1,1,0.6,1.3,1.6,1.1c3.2-0.5,6.4-0.9,9.6-1.3
		C208.9,537.7,209.4,537.4,209.3,536.6z"/>
	<path class="st2" d="M260.9,675.6c-0.4-2.9-0.8-5.9-1.2-8.9c-0.1-0.7-0.2-1.4-1.2-1.2c-3.5,0.5-7.1,0.9-10.6,1.4
		c-0.9,0.1-1.3,0.6-1.1,1.6c0.5,3.2,0.9,6.4,1.3,9.6c0.1,1.1,0.6,1.4,1.7,1.2c3.1-0.5,6.2-0.9,9.4-1.3
		C261.1,677.7,261.1,677.7,260.9,675.6z"/>
	<path class="st2" d="M198.3,456c-0.5-3.6-0.9-7-1.4-10.5c-0.1-0.9-0.5-1.3-1.5-1.2c-3.3,0.5-6.5,1-9.8,1.4
		c-0.8,0.1-1.3,0.3-1.1,1.2c0.5,3.5,1,7.1,1.4,10.6c0.1,0.9,0.6,1.2,1.4,1c3.4-0.5,6.7-0.9,10.1-1.4
		C198.2,457.1,198.5,456.7,198.3,456z"/>
	<path class="st2" d="M330.1,668.3c3.6-0.5,6.9-0.9,10.2-1.4c1-0.1,1.5-0.5,1.3-1.7c-0.5-3.1-1-6.2-1.3-9.3
		c-0.1-1.2-0.6-1.6-1.8-1.4c-3.3,0.5-6.6,1-9.8,1.4c-1.1,0.1-1.5,0.6-1.3,1.6c0.4,3.1,0.8,6.2,1.2,9.3
		C328.7,668,329.2,668.6,330.1,668.3z"/>
	<path class="st2" d="M213.2,652c3.8-0.5,7-1,10.3-1.4c1.1-0.1,1.2-0.7,1.1-1.6c-0.5-3.4-1-6.7-1.4-10.1c-0.1-1.2-0.8-1.3-1.7-1.2
		c-3.1,0.5-6.2,0.9-9.3,1.3c-1.1,0.1-1.5,0.5-1.3,1.6c0.5,3.4,0.9,6.7,1.4,10.1C212.3,651.6,212.6,652.1,213.2,652z"/>
	<path class="st2" d="M230.7,670.5c0.5,3.4,0.9,6.5,1.3,9.7c0.1,1,0.6,1.5,1.7,1.3c3.4-0.5,6.7-1,10.1-1.4c0.9-0.1,1.4-0.4,1.2-1.5
		c-0.5-3.3-1-6.6-1.4-9.8c-0.1-1.1-0.7-1.2-1.6-1.1c-3.4,0.5-6.7,0.9-10.1,1.4C230.7,669.2,230.5,669.8,230.7,670.5z"/>
	<path class="st2" d="M189.5,391.6c-0.5-3.7-1-7.1-1.4-10.4c-0.1-1.1-0.7-1.4-1.7-1.2c-3.1,0.5-6.2,1-9.3,1.3
		c-1.3,0.1-1.5,0.7-1.3,1.8c0.5,3.2,1,6.4,1.3,9.6c0.1,1.2,0.5,1.7,1.7,1.5c3.1-0.5,6.2-0.9,9.4-1.3
		C189.1,392.8,189.8,392.5,189.5,391.6z"/>
	<path class="st2" d="M357.7,663.3c-0.4-2.5-0.7-5-1.1-7.5c-0.3-1.7-2.3-3.3-4-3.1c-2.7,0.3-5.4,0.7-8.1,1.1
		c-0.9,0.1-1.3,0.4-1.2,1.5c0.5,3.2,1,6.4,1.3,9.6c0.1,1.1,0.5,1.5,1.6,1.4c3.4-0.5,6.9-1,10.3-1.4
		C357.5,664.6,357.8,664.1,357.7,663.3z"/>
	<path class="st2" d="M252.9,375.7c-0.1-1.2-0.3-2.1-0.3-3.1c-0.1-1.2-0.6-1.6-1.8-1.4c-3.3,0.5-6.7,1-10.1,1.4
		c-1,0.1-1.2,0.6-1.1,1.5c0.5,3.4,1,6.7,1.4,10.1c0.1,1.1,0.6,1.4,1.7,1.3c1.3-0.2,2.7-0.4,4-0.5c4-0.5,4-0.4,5.1-4.4
		C252.2,378.9,252.9,377.2,252.9,375.7z"/>
	<path class="st2" d="M228.9,680.9c-0.5-3.5-0.9-6.7-1.3-9.9c-0.1-0.9-0.5-1.3-1.5-1.2c-3.3,0.5-6.6,1-9.8,1.4
		c-1.1,0.1-1.2,0.6-1.1,1.6c0.5,3.2,0.9,6.4,1.3,9.6c0.1,1,0.5,1.3,1.5,1.2c3.2-0.4,6.4-0.9,9.6-1.3
		C228.5,682.1,229.1,681.7,228.9,680.9z"/>
	<path class="st2" d="M252.2,518.7c-2.5,0.3-5,0.7-7.5,1c-1.1,0.1-1.7,0.5-1.5,1.8c0.5,3.3,1,6.6,1.4,9.9c0.1,1,0.5,1.5,1.6,1.4
		c3.4-0.5,6.9-1,10.4-1.5c1-0.1,1-0.7,0.8-1.4c-1.1-3.4-2.3-6.8-3.4-10.2C253.6,518.8,253.1,518.4,252.2,518.7z"/>
	<path class="st2" d="M286.3,597.2c0.5,3.8,1,7.1,1.4,10.5c0.1,0.7,0.3,1.3,1.3,1.2c3.6-0.5,7.2-1,10.8-1.5c0.8-0.1,1-0.5,0.9-1.2
		c-0.1-0.6-0.3-1.1-0.7-1.6c-2.2-2.8-4.4-5.6-6.7-8.4c-0.5-0.7-1-1-1.9-0.8c-1.2,0.2-2.4,0.3-3.5,0.5
		C286.8,595.9,286,596.3,286.3,597.2z"/>
	<path class="st2" d="M242.9,444.3C243,444.3,243,444.3,242.9,444.3c0.1-1.6,0-3.2,0.1-4.8c0.1-1.2-0.4-1.5-1.5-1.3
		c-2.7,0.4-5.4,0.8-8.1,1.1c-1,0.1-1.3,0.6-1.2,1.5c0.5,3.4,1,6.9,1.4,10.3c0.1,1,0.6,1.2,1.6,1.1c2.1-0.3,4.2-0.5,6.3-0.8
		c1-0.1,1.5-0.6,1.4-1.7C242.9,447.9,242.9,446.1,242.9,444.3z"/>
	<path class="st2" d="M268.6,578.8c3-0.4,5.9-0.8,8.7-1.1c0.5-0.1,1-0.2,1.5-0.3c1.2-0.1,1.1-0.7,0.6-1.5c-1.2-2-2.4-4.1-3.7-6.1
		c-1-1.5-1.3-4-3.1-4.5c-1.7-0.5-3.8,0.4-5.8,0.6c-0.8,0.1-1.2,0.4-1,1.3c0.5,3.4,0.9,6.9,1.4,10.4
		C267.4,578.5,267.8,579,268.6,578.8z"/>
	<path class="st2" d="M241,505.1c0.5,3.5,1,7,1.5,10.6c0.1,0.7,0.5,1,1.2,0.9c2.5-0.4,5-0.7,7.6-1c1-0.1,1.3-0.5,1-1.5
		c-0.9-3.4-1.8-6.7-2.6-10.1c-0.2-0.9-0.6-1.3-1.6-1.1c-1.9,0.3-3.9,0.6-5.8,0.8C241.2,503.7,240.8,504.1,241,505.1z"/>
	<path class="st5" d="M695.9,466.6c0.1-2.5,0.3-5.1,0.4-7.6c0-0.3,0.2-0.7-0.2-0.9c-0.4-0.2-0.6,0.2-0.7,0.5c-1,2.1-2,4.1-3.1,6.2
		c-2.5,5.1-3.3,10.4-2,15.9c0.6,2.7,1.3,5.5,2,8.2c0.1,0.2,0.2,0.4,0.3,0.6c0.2-0.2,0.4-0.4,0.5-0.6c0.1-0.2,0.1-0.5,0.2-0.7
		C694.6,481,695.5,473.9,695.9,466.6z"/>
	<path class="st5" d="M669.7,547C669.7,547,669.8,547,669.7,547c0,0.8-0.1,1.5-0.1,2.3c0,0.1,0.1,0.3,0.1,0.4
		c0.2-0.1,0.4-0.1,0.5-0.2c0.4-0.6,0.8-1.1,1.1-1.7c4.1-7.1,7.7-14.4,10.9-21.9c0.6-1.3,1.1-2.7,1.6-4c0.1-0.3,0.4-0.7,0.1-0.9
		c-0.2-0.1-0.6,0.2-0.8,0.5c-1.2,1.1-2.4,2.2-3.5,3.3c-4.5,4.3-8.1,9.2-8.9,15.7C670.3,542.6,670,544.8,669.7,547z"/>
	<path class="st2" d="M243.3,461.2C243.3,461.2,243.3,461.2,243.3,461.2c-0.2-1.8-0.3-3.6-0.3-5.3c0-1.2-0.5-1.5-1.6-1.3
		c-1.9,0.3-3.9,0.6-5.8,0.8c-1.1,0.1-1.4,0.6-1.3,1.7c0.4,2.5,0.7,5,1,7.6c0.5,3.8,0.5,3.8,4.4,3.3c0.8-0.1,1.7-0.2,2.5-0.3
		c0.9-0.1,1.3-0.6,1.2-1.5C243.5,464.4,243.4,462.8,243.3,461.2z"/>
	<path class="st2" d="M238.8,488.8c0.5,3.8,1,7.1,1.4,10.5c0.1,0.7,0.3,1.3,1.2,1.2c2.1-0.3,4.2-0.6,6.3-0.9
		c0.4-0.1,0.8-0.3,0.6-0.8c-0.7-3.7-1.5-7.5-2.2-11.2c-0.1-0.6-0.5-0.8-1.1-0.7c-1.7,0.2-3.3,0.5-5,0.7
		C239,487.7,238.6,488.2,238.8,488.8z"/>
	<path class="st2" d="M242.8,470.8c-1.8,0.2-3.5,0.5-5.3,0.7c-0.7,0.1-1,0.4-0.9,1.2c0.5,3.5,1,7,1.4,10.6c0.1,0.8,0.4,1.3,1.3,1.1
		c1.8-0.2,3.5-0.5,5.3-0.7c0.8-0.1,1-0.5,0.9-1.2c-0.5-3.5-0.9-7-1.4-10.6C244,471,243.6,470.7,242.8,470.8z"/>
	<path class="st2" d="M248.5,388c-1.9,0.2-3.7,0.5-5.6,0.7c-1.1,0.1-1.3,0.8-1.1,1.8c0.5,3.2,0.9,6.4,1.3,9.6c0.1,0.7,0,1.6,1.1,1.7
		c1.5,0.1,2.7-0.5,3-1.6c0.8-3.6,1.6-7.3,2.4-10.9C249.8,388.3,249.4,387.9,248.5,388z"/>
	<path class="st2" d="M307.5,622.7c2.2-0.3,4.4-0.7,6.6-1c1-0.1,1.2-0.4,0.5-1.2c-1.1-1.2-2.3-2.3-3.4-3.5c-1.7-1.8-3.3-3.6-5-5.4
		c-0.4-0.4-0.7-1.3-1.3-1.1c-0.7,0.3-0.1,1-0.1,1.5c0.3,3,0.8,6.1,1.1,9.1C306.1,622.2,306.3,622.9,307.5,622.7z"/>
	<path class="st2" d="M266.8,562.6c0.7-0.1,1.7-0.2,2.6-0.3c1.9-0.3,2-0.4,1-2.2c-0.8-1.7-1.7-3.3-2.5-5c-0.7-1.4-1.4-2.9-2.1-4.4
		c-0.3-0.7-0.8-1.1-1.6-0.9c-0.8,0.3-0.7,0.8-0.6,1.4c0.5,3.4,1,6.7,1.4,10.1C265.2,562.5,265.5,563,266.8,562.6z"/>
	<path class="st2" d="M360.2,657.9c0.2,1.8,0.4,3.2,0.6,4.6c0.1,1.1,0.5,1.7,1.8,1.4c2-0.4,4-0.6,6.1-0.9c0.3,0,0.7,0.1,0.8-0.4
		c0.1-0.4-0.3-0.5-0.6-0.7c-2.6-1.5-5.1-3-7.7-4.5c-0.3-0.2-0.7-0.4-0.9-0.2C360.1,657.4,360.2,657.9,360.2,657.9z"/>
	<path class="st5" d="M650.2,576.3c-0.1,0-0.2,0-0.2,0c-3.2,1.4-6.4,2.7-9.4,4.5c-0.2,0.1-0.5,0.4-0.5,0.5c0.2,1.3,1.5,1.8,2.2,2.6
		c0.3,0.4,0.6,0.8,1.3,0.4c0.1,0,0.2-0.1,0.2-0.1c2.2-2.4,4.5-4.9,6.7-7.3c0.1-0.1,0.2-0.3,0.2-0.5
		C650.5,576.4,650.3,576.3,650.2,576.3z"/>
	<path class="st2" d="M325.5,636.7c1.8-0.3,3.1-0.5,4.3-0.7c0.3,0,0.7,0.1,0.8-0.4c0.1-0.4-0.3-0.6-0.5-0.8c-1.7-1.5-3.4-3-5.1-4.5
		c-0.3-0.3-0.6-0.7-1.1-0.4c-0.2,0.1-0.2,0.6-0.1,0.9c0.2,1.4,0.4,2.8,0.5,4.3C324.4,636.3,324.8,636.9,325.5,636.7z"/>
	<path class="st2" d="M342.2,646.3c0,0.1,0,0.2,0,0.3c0.4,4.2,0.4,4.3,4.6,3.7c0.7-0.1,1.8-0.2,1.9-0.5c0.2-0.7-0.8-0.9-1.3-1.3
		c-1.3-1-2.6-1.9-3.9-2.9c-0.3-0.2-0.7-0.7-1.1-0.4C342,645.3,342.2,645.9,342.2,646.3z"/>
	<path class="st2" d="M284.9,586.7C284.9,586.7,284.9,586.7,284.9,586.7c0.2,1.3,0.3,2.7,0.5,4c0.1,0.7-0.2,1.8,0.8,1.9
		c1.1,0.2,2.4,0.1,3.5-0.4c0.5-0.2,0.1-0.7-0.2-1.1c-1.4-1.9-2.7-3.9-4.1-5.8c-0.1-0.2-0.3-0.5-0.6-0.3c-0.1,0.1-0.1,0.5-0.1,0.7
		C284.8,586,284.9,586.4,284.9,586.7z"/>
	<path class="st2" d="M246.1,406.2c-0.1-0.5,0.4-1.3-0.8-1.3c-1.1,0-1.5,0.5-1.3,1.5c0.2,1.6,0.4,3.2,0.6,4.8c0,0.2,0.2,0.6,0.2,0.6
		c0.4,0,0.5-0.4,0.6-0.7C245.6,409.5,245.9,407.9,246.1,406.2z"/>
	<path class="st2" d="M263.8,546.2c-0.2-0.3-0.4-0.6-0.6-0.9c-0.1,0.1-0.2,0.3-0.2,0.4c0,0.3-0.1,0.7,0.4,0.7
		C263.5,546.4,263.7,546.3,263.8,546.2z"/>
	<path class="st0" d="M1198.5,214.3c-1.6,6-3.2,12-4.8,17.9c-13,47.3-25.9,94.5-38.9,141.8c-13.6,49.4-27.1,98.8-40.7,148.2
		c-3.2,11.7-11,18.7-22.9,21c-4.5,0.9-9,0.3-13.4-1c-14.4-4.5-28.8-8.8-43.2-13.2c-25.8-7.9-51.6-15.8-77.3-23.7
		c-0.2-0.1-0.5-0.1-0.7-0.2c-2.1-0.6-2.1-0.6-2.8,1.5c-3.5,11.3-6.9,22.6-10.4,33.9c-18.3,59.8-36.7,119.6-55,179.4
		c-17.4,56.9-34.9,113.7-52.3,170.6c-1.3,4.2-1.3,4.2-5.6,2.9c-15.5-4.8-31.1-9.5-46.6-14.3c-3.2-1-3.2-1.1-2.2-4.3
		c14.6-47.6,29.2-95.2,43.8-142.8c24.7-80.5,49.4-161.1,74.1-241.6c0.8-2.6,0.8-2.6-1.9-3.4c-8-2.4-15.9-4.9-23.9-7.3
		c-32.2-9.9-64.4-19.8-96.6-29.6c-16.4-5-24.4-21-18.9-37.3c8.7-25.4,17.3-50.9,26-76.4c13.7-40.3,27.4-80.6,41.1-120.8
		c9.4-27.6,18.8-55.3,28.1-82.9c2.2-6.5,4.4-13.1,6.7-19.6c2.5-7.2,8.8-10.4,16.1-8.2c34.6,10.6,69.3,21.2,103.9,31.8
		c69.3,21.3,138.6,42.5,207.9,63.7c4,1.2,7.3,3.1,9.3,6.9c0.6,1.2,0.4,2.7,1.2,3.8C1198.5,212.2,1198.5,213.2,1198.5,214.3z"/>
	<path class="st5" d="M759.9,422.8c0,0.9,0,1.9,0,2.8c0,0.5,0.1,1,0.2,1.5c2.2,10,8.1,16.7,17.9,19.7
		c36.8,11.3,73.5,22.5,110.3,33.8c3.8,1.2,7.6,2.3,11.5,3.5c1.1,0.4,1.8,0.3,2.1-1c0.1-0.4,0.2-0.8,0.3-1.2
		c3.3-10.9,6.7-21.8,10-32.7c1.3-4.4,2.7-8.8,4.1-13.2c0.7-2.1,1.1-2.3,3.2-1.7c0.4,0.1,0.8,0.2,1.2,0.3
		c11.5,3.5,23.1,7.1,34.6,10.6c4.5,1.4,9,2.7,13.4,4.1c1.9,0.6,2.1,1.2,1.7,3c-0.1,0.5-0.3,1-0.4,1.5c-3.5,11.4-7,22.8-10.5,34.2
		c-1.1,3.7-2.2,7.3-3.3,11c-0.6,2-0.6,2,1.3,2.7c0.2,0.1,0.3,0.1,0.5,0.2c40.4,12.4,80.8,24.8,121.2,37.2c2.9,0.9,5.8,1.3,8.8,1.2
		c11-0.6,20-8,23.1-18.9c2.5-9.1,5-18.2,7.5-27.3c13.2-48.2,26.4-96.3,39.6-144.5c9.5-34.7,19.1-69.4,28.6-104.1
		c2.7-9.9,5.4-19.9,8.2-29.8c0.4-1.6,0.7-3.1,0.3-4.8c-1-3.7-3.4-5.9-7-7c-22-6.7-44.1-13.5-66.1-20.3
		c-71.4-21.9-142.8-43.8-214.2-65.7c-11-3.4-22-6.7-32.9-10.1c-3.7-1.1-6.9-0.3-9.6,2.5c-1.2,1.2-1.7,2.7-2.3,4.2
		c-8.5,25.1-17,50.1-25.5,75.2c-15.1,44.5-30.3,88.9-45.4,133.4c-10.3,30.4-20.6,60.7-31,91.1C760.2,417,759.6,419.8,759.9,422.8z"
		/>
	<path class="st5" d="M832.1,890.4c0.4,0.1,0.7-0.2,0.8-0.7c0.2-0.6,0.4-1.3,0.6-2c5-16.4,10-32.7,15-49.1
		c17.7-57.6,35.3-115.2,53-172.7c19.7-64.2,39.4-128.5,59.1-192.7c2-6.4,3.9-12.9,5.9-19.3c0.4-1.2,0.2-1.8-1-2
		c-0.6-0.1-1.1-0.3-1.7-0.5c-14-4.3-28-8.6-42-12.9c-3.2-1-2.7-1.1-3.6,1.8c-13.6,44.2-27.1,88.3-40.7,132.5
		c-20.1,65.6-40.2,131.1-60.3,196.7c-10.6,34.6-21.3,69.3-31.9,103.9c-0.7,2.4-0.7,2.4,1.6,3.1c0.1,0,0.2,0.1,0.2,0.1
		c14.3,4.4,28.6,8.8,42.9,13.2C830.8,890,831.4,890.2,832.1,890.4z"/>
	<path class="st0" d="M574.3,86c0.4,0.6,1.1,0.4,1.6,0.5c9.2,2.1,15.8,10.4,15.7,19.5c-0.1,8.4-5.6,16.1-13.3,18.8
		c-2.6,0.9-3.1,0.7-3.8-1.9c-0.7-2.3-1.3-4.6-1.9-6.9c-0.3-1.1-0.8-1.4-2-1.1c-4.7,1.4-9.5,2.6-14.3,3.9c-2.7,0.7-3,0.6-3.8-2.1
		c-1.1-3.8-2.1-7.7-3.2-11.6c-0.6-2.4-0.4-2.8,2-3.4c4.7-1.3,9.5-2.6,14.3-4c1.7-0.5,1.8-0.5,1.3-2.3c-0.5-1.9-1-3.8-1.6-5.7
		c-0.7-2.5-0.4-3,2.1-3.5c0.4-0.1,0.8-0.1,1.2-0.4C570.5,86,572.4,86,574.3,86z M588.3,106.6c0-8.6-5.9-15.6-13.7-17.1
		c-1.6-0.3-3.2-0.6-4.8-0.3c-0.8,0.1-1.2,0.4-0.9,1.4c0.6,2,1.2,4.1,1.7,6.2c0.7,2.6,0.5,2.9-2.1,3.6c-4.8,1.3-9.5,2.7-14.3,3.9
		c-1.3,0.3-1.7,0.8-1.3,2.1c0.8,2.5,1.4,5.1,2.1,7.6c0.5,1.6,0.5,1.7,2.3,1.2c4.8-1.3,9.5-2.6,14.3-3.9c2.4-0.6,2.8-0.4,3.4,2
		c0.6,2,1.1,4.1,1.7,6.2c0.7,2.4,0.7,2.5,2.7,1.2C585.2,117.4,588.1,112.3,588.3,106.6z"/>
	<path class="st0" d="M682.1,181.6c7.4-0.3,13.4,2.7,18.6,7.6c4.9,4.6,8.6,10.1,11.4,16.2c0.7,1.5,1.5,2.3,3.1,2.6
		c3.2,0.8,6.4,1.7,9.6,2.6c0.2,0.1,0.5,0.1,0.7,0.2c1.6,0.5,2.2,1.2,1.9,2.2c-0.3,1-1.1,1.3-2.8,0.8c-3.5-0.9-6.9-1.8-10.3-2.8
		c-1.5-0.4-2.5-0.2-3.8,0.6c-5.9,4-12.2,7-19.3,8.4c-10.3,2-18.8-1.4-25.9-8.8c-4.5-4.7-7.8-10.1-10.4-16c-1-2.3-1-2.7,1-4.1
		c6.5-4.6,13.4-8,21.3-9.3c0.6-0.1,1.2-0.2,1.8-0.3C680.1,181.5,681.1,181.6,682.1,181.6z"/>
	<path class="st6" d="M686.9,217.3c6.5-0.3,13.5-3.2,20.1-7.3c0.5-0.3,0.7-0.7-0.1-1c-0.5-0.1-1-0.3-1.5-0.4c-7.2-2-14.4-4-21.6-6
		c-0.7-0.2-1.3-0.3-1.9-0.6c-0.8-0.4-1.1-1.1-0.8-1.9c0.3-0.9,0.9-1.2,1.8-1.1c0.8,0.1,1.6,0.4,2.5,0.7c7.4,2,14.8,4.1,22.1,6.1
		c0.3,0.1,0.7,0.3,1,0.1c0.5-0.4,0-0.8-0.2-1.1c-2.7-5.2-6.1-10.1-10.5-14c-5.7-5-12.3-7.1-19.9-5.8c-6.8,1.2-12.9,4.2-18.7,7.9
		c-1.1,0.7-1.2,1.4-0.6,2.5c2.6,5.2,5.7,10.1,9.8,14.3C673.1,214.3,678.6,217.4,686.9,217.3z"/>
	<path class="st0" d="M349.4,759.6c-3.8-0.1-8.6-1.6-13.2-3.9c-2.2-1.1-4.4-2.3-6.3-3.9c-1.1-0.9-2.2-1-3.6-0.7
		c-2.3,0.6-4.6,1.2-6.9,1.7c-0.8,0.2-1.7,0.4-2.5,0.4c-0.6,0-1.1-0.4-1.3-1c-0.2-0.7,0-1.4,0.7-1.8c0.4-0.2,0.9-0.4,1.4-0.5
		c2.6-0.7,5.3-1.4,7.9-1.9c1.4-0.3,2.2-1,2.8-2.2c2.2-4.3,4.9-8.2,8.3-11.6c6.6-6.5,14.4-8.8,23.4-6.2c5.6,1.6,10.5,4.3,15.1,7.8
		c1.5,1.2,1.7,1.7,1,3.2c-3,6.3-6.8,12-12.5,16.2C359.9,758.1,355.7,759.7,349.4,759.6z"/>
	<path class="st6" d="M350,756.4c4.9,0,8.3-1.1,11.6-3.6c4.8-3.5,8.1-8.2,10.9-13.3c0.6-1.1,0.2-1.6-0.7-2.3
		c-4.2-2.9-8.7-5.2-13.8-6.4c-6.1-1.5-11.6-0.3-16.5,3.6c-3.7,3-6.5,6.7-9,10.7c-0.2,0.3-0.6,0.7-0.2,1.1c0.2,0.2,0.7,0.1,1,0
		c5-1.2,9.9-2.4,14.9-3.6c1.4-0.3,2.8-0.7,4.2-1c1.1-0.3,1.9,0,2.2,1.1c0.3,1.1-0.5,1.7-1.5,2c-0.9,0.3-1.8,0.4-2.7,0.7
		c-5.4,1.3-10.9,2.6-16.3,4c-0.3,0.1-0.7,0-0.8,0.4c-0.1,0.4,0.3,0.6,0.6,0.8C339,753.9,344.6,756.3,350,756.4z"/>
	<path class="st0" d="M970.7,698.3c5.1-0.2,9.4,1.6,13.3,4.4c4.5,3.1,8,7.1,10.9,11.7c1,1.5,2.1,2.2,3.9,2.4
		c2.6,0.2,5.2,0.7,7.8,1.1c0.7,0.1,1.4,0.2,1.7,0.9c0.3,0.6,0.3,1.2-0.1,1.7c-0.4,0.7-1.1,0.7-1.8,0.6c-2.3-0.3-4.5-0.6-6.8-1
		c-0.5-0.1-1-0.1-1.5-0.2c-1.6-0.4-2.9,0.1-4.1,1.2c-4.1,3.6-8.7,6.5-14,8.2c-7.5,2.5-14.4,1.5-20.8-3.1c-5.1-3.6-8.9-8.3-12.1-13.6
		c-0.7-1.2-0.8-2.1,0.3-3.2c5.4-5.1,11.5-9,18.9-10.7C967.8,698.4,969.3,698.3,970.7,698.3z"/>
	<path class="st6" d="M971,701.5c-0.7,0-1.4-0.1-2,0c-7.1,1-12.9,4.6-18.2,9.2c-0.7,0.6-0.4,1.2,0,1.8c3.2,4.9,7,9.2,12.1,12.3
		c4.6,2.8,9.5,3.5,14.7,2c4.7-1.3,8.8-3.7,12.6-6.6c0.4-0.3,1-0.5,0.8-1.1c-0.1-0.2-0.7-0.3-1.1-0.3c-5.6-0.8-11.3-1.6-16.9-2.5
		c-0.8-0.1-1.7-0.3-2.5-0.4c-1-0.2-1.5-0.8-1.3-1.8c0.2-1,0.9-1.4,1.9-1.3c0.5,0,1,0.1,1.5,0.2c6.1,0.9,12.1,1.8,18.2,2.7
		c0.3,0,0.8,0.1,0.9-0.1c0.2-0.3-0.1-0.6-0.3-0.9c-3.3-4.6-7.2-8.7-12.3-11.2C976.4,702.1,973.8,701.3,971,701.5z"/>
	<path class="st0" d="M766.5,165.3c0.9-3.2-0.8-5.9-3.8-8.4c-4.1-3.4-7.1-7.8-9.1-12.8c-2.4-5.8-2.3-11.6,0.2-17.4
		c2.7-6.3,7.2-11.3,12.5-15.6c0.9-0.8,1.9-1.2,3-0.3c6.4,5.1,11.6,11,14.1,19c1.8,6,0.7,11.6-2.1,17c-2.5,4.7-5.9,8.7-10,12.2
		c-1.2,1.1-1.7,2.1-1.7,3.7c0.1,2.8,0,5.6,0,8.4c0,1.1-0.3,1.9-1.5,1.9c-1.2,0-1.6-0.8-1.6-1.9C766.5,169.5,766.5,167.8,766.5,165.3
		z"/>
	<path class="st6" d="M766.5,144.9c0-0.9,0-1.9,0-2.8c0-2.5,0-4.9,0-7.4c0-1,0.4-1.7,1.5-1.7c1,0,1.5,0.6,1.6,1.6c0.1,0.7,0,1.4,0,2
		c0,6,0,11.9,0,17.9c0,0.3-0.1,0.7,0.3,0.9c0.4,0.2,0.6-0.1,0.9-0.4c3.6-3.5,6.6-7.3,8.6-11.9c2.3-5.3,2.1-10.6-0.4-15.8
		c-2.4-4.9-5.9-8.9-9.9-12.5c-0.9-0.8-1.5-0.7-2.3,0.1c-3.7,3.4-6.9,7-9.3,11.5c-2.7,5.2-3.4,10.7-1.1,16.2c2,4.8,5.1,8.8,8.9,12.4
		c0.2,0.2,0.5,0.6,0.8,0.5c0.6-0.2,0.3-0.7,0.3-1.1C766.5,151.2,766.5,148.1,766.5,144.9z"/>
	<path class="st0" d="M994.5,591.3c9.7,0,17.8,6.9,19.5,16.5c0.7,3.8,0.3,7.5-1.1,11c-0.9,2.3-1.4,2.5-3.7,1.5
		c-2.2-1-4.5-2.1-6.6-3.2c-1.1-0.6-1.6-0.4-2.1,0.7c-2,4.2-4,8.3-6,12.4c-0.3,0.5-0.5,1.1-0.8,1.6c-0.9,1.7-1.4,1.9-3.3,1.1
		c-1.3-0.6-2.6-1.3-3.9-1.9c-2.4-1.2-4.7-2.3-7.1-3.5c-2.6-1.3-2.7-1.5-1.5-4c2.1-4.4,4.2-8.7,6.3-13.1c0.8-1.7,0.8-1.7-0.9-2.6
		c-1.8-0.9-3.7-1.8-5.5-2.7c-2-1-2.1-1.6-1.1-3.6C980,595.4,987.1,591.3,994.5,591.3z M1011.1,611.7c-0.1-3.4-0.9-6.5-2.6-9.2
		c-6.5-10.7-20.8-10.2-27.7-1.3c-0.9,1.2-0.9,1.3,0.6,2c1.8,0.9,3.7,1.8,5.5,2.7c2.3,1.1,2.4,1.5,1.3,3.7c-2.2,4.5-4.4,9-6.6,13.5
		c-0.5,1.1-0.4,1.6,0.7,2.2c2.3,1.1,4.6,2.2,6.9,3.3c1.9,0.9,2,0.9,3-1.1c2.1-4.3,4.2-8.6,6.3-12.8c1.1-2.3,1.4-2.4,3.7-1.4
		c2.3,1.1,4.6,2.2,6.9,3.3c0.8,0.4,1.2,0.3,1.5-0.6C1010.9,614.5,1010.9,613,1011.1,611.7z"/>
	<path class="st0" d="M731.7,722c0,6.2-5.4,14-13.2,16.7c-2.6,0.9-3.1,0.7-3.8-1.9c-0.6-2.1-1.2-4.3-1.8-6.4c-0.6-2-0.6-2-2.8-1.5
		c-4.6,1.2-9.2,2.5-13.8,3.7c-2.6,0.7-2.9,0.5-3.6-2.1c-1.1-3.8-2.1-7.7-3.2-11.6c-0.7-2.5-0.5-2.8,2.1-3.6c4.7-1.3,9.3-2.6,14-3.9
		c1.9-0.5,1.9-0.6,1.4-2.4c-0.5-2.1-1.1-4.1-1.6-6.2c-0.5-1.9-0.2-2.5,1.7-2.9c7.5-1.5,14,0.6,19.3,6.1
		C730.1,710.1,731.8,714.7,731.7,722z M728.6,720.2c-0.1-4.4-1.3-8-3.9-11c-3.5-4-7.9-6-13.2-6.2c-2.6-0.1-2.7,0.1-2,2.5
		c0.5,1.7,0.9,3.4,1.4,5.2c0.7,2.6,0.5,2.8-2.1,3.5c-4.7,1.3-9.5,2.7-14.2,3.9c-1.3,0.3-1.7,0.7-1.2,2.1c0.8,2.5,1.4,5.1,2.1,7.6
		c0.5,1.7,0.5,1.7,2.2,1.3c4.6-1.2,9.2-2.5,13.8-3.7c3.2-0.9,3.3-0.8,4.2,2.5c0.6,2,1.1,4.1,1.7,6.1c0.5,1.7,0.6,1.7,2,0.9
		C725.2,731.6,728.2,726.5,728.6,720.2z"/>
	<path class="st0" d="M666.1,776.9c2.9,0,6,0.7,8.9,1.8c1.1,0.4,1.9,0.4,2.9-0.2c1.2-0.7,2.5-1.4,3.8-2c1.5-0.8,2.4-0.7,2.9,0.2
		c0.5,1,0.1,1.8-1.3,2.6c-1.1,0.6-2.2,1.3-3.4,1.8c-1.4,0.6-2.1,1.5-2.4,3c-0.5,2.5-1.5,4.9-2.8,7.1c-3.3,5.8-8.2,8.7-14.9,8.4
		c-3.6-0.2-7-1.1-10.4-2.5c-1.1-0.4-1.7-1.1-1.5-2.4c1-4.8,2.6-9.3,6-13.1C657.1,778,661.2,776.6,666.1,776.9z"/>
	<path class="st6" d="M660.8,796.3c3.7,0,6.8-1.2,9.2-4.1c1.6-1.9,2.7-4.1,3.6-6.4c0.1-0.3,0.3-0.8,0.2-0.9
		c-0.3-0.5-0.8-0.1-1.1,0.1c-2.8,1.4-5.6,2.9-8.3,4.4c-1.8,1-2.8,0.9-3.3-0.1c-0.5-1-0.1-1.7,1.9-2.8c2.6-1.4,5.3-2.8,7.9-4.2
		c0.4-0.2,1.2-0.4,1.1-0.9c-0.1-0.6-0.9-0.6-1.5-0.7c-2.2-0.6-4.4-0.7-6.6-0.5c-3,0.2-5.6,1.4-7.6,3.7c-2.4,2.7-3.7,5.9-4.7,9.3
		c-0.3,0.9,0,1.4,0.9,1.7C655.2,795.7,657.9,796.3,660.8,796.3z"/>
	<path class="st0" d="M598.8,447.4c-34.1,0-68.2,0-102.2,0c-0.9,0-2.3-0.5-2.6,0.3c-0.4,0.8,0.9,1.4,1.6,2
		c10.9,10.9,21.8,21.8,32.7,32.7c27.2,27.2,54.4,54.3,81.6,81.4C619.9,574,630,584,640.1,594c0.3,0.3,0.6,0.6,0.9,0.9
		c2.1,2.1,2.1,2.4,0,4.5c-15.2,15-32.2,27.5-51.1,37.4c-20,10.5-41.1,17.6-63.3,21.4c-9.1,1.6-18.2,2.4-27.4,2.9
		c-15.2,0.7-30.3-0.3-45.3-2.8c-28-4.8-54.1-14.7-78.2-29.9c-32.6-20.6-58-48-76-82.1c-11-20.7-18.2-42.7-21.9-65.8
		c-1.5-9.7-2.4-19.4-2.6-29.2c-0.9-58.2,18.5-108.8,57.8-151.7c17.4-19,37.8-34,60.8-45.5c19.9-10,40.9-16.7,63-20.1
		c18-2.8,36.1-3.3,54.2-1.5c26.8,2.6,52.2,10,76.3,22.2c18.7,9.5,35.7,21.5,50.9,36c18.4,17.6,33.3,37.7,44.6,60.6
		c9.5,19.3,16,39.5,19.4,60.8c1.7,10.5,2.6,21.1,2.7,31.8c0,0.5,0,1,0,1.5c-0.1,1.6-0.4,1.9-2,2c-0.7,0-1.4,0-2,0
		C666.8,447.4,632.8,447.4,598.8,447.4z"/>
	<path class="st5" d="M607.7,590.7c4-3.2,7.8-6.6,11.5-10.2c1.4-1.4,1.4-1.4,0.1-2.8c-2.7-2.8-2.7-2.8-5.1,0.2
		c-2.8,3.6-4.7,7.7-6.5,11.8C607.4,590.1,607.5,590.4,607.7,590.7c0,0-0.1,0-0.2,0C607.7,590.9,607.3,590.6,607.7,590.7z"/>
	<path class="st5" d="M394.6,605.6L394.6,605.6L394.6,605.6c-1.6-2.3-3.3-4.6-5-7c-3-4.1-6.7-7.2-11.5-8.8c-2.8-1-5.6-1.8-8.5-2.6
		c-0.4-0.1-0.8-0.5-1,0c-0.1,0.1,0.3,0.5,0.6,0.8c7.5,6.5,15.6,12.3,24.1,17.5C393.7,605.8,394.1,606,394.6,605.6z"/>
	<path class="st5" d="M611.8,305.6C611.8,305.8,611.7,305.8,611.8,305.6c0.2-0.2-0.3,0,0.1,0.1c-3-2.5-6-5-9.1-7.4
		c-5.1-4-10.5-7.5-16-10.9c-0.3-0.2-0.7-0.4-0.9-0.3c-0.5,0.4,0,0.8,0.2,1.1c1.7,2.6,3.3,5.1,5.3,7.5c1.8,2.2,3.8,4.2,6.3,5.5
		c4.1,2.3,8.7,3.4,13.2,4.6C611.1,305.8,611.5,305.7,611.8,305.6z"/>
	<path class="st5" d="M673.3,417c-0.1-0.2,0-0.2,0.1-0.1C673.3,416.9,673.3,417,673.3,417c0.5-1,0.2-2,0-3c-0.4-2.3-0.9-4.7-1.4-7
		c-1.5-6.9-3.3-13.7-5.6-20.4c-0.1-0.3-0.2-0.7-0.6-0.7c-0.5,0-0.4,0.5-0.4,0.7c-0.2,1.1-0.2,2.2-0.4,3.3
		c-1.2,8.1,0.1,15.5,5.1,22.2C671.3,413.7,672.2,415.4,673.3,417z"/>
	<path class="st5" d="M349.1,324.6c0.4,0,0.9,0,1.2-0.1c3.4-1.5,6.7-2.9,9.9-4.8c6.5-3.8,9.1-10.3,12.1-16.6c0.1-0.1,0.1-0.4,0-0.5
		c-0.2-0.3-0.4-0.1-0.6,0c-0.5,0.4-0.9,0.7-1.4,1.1C362.7,310.2,355.7,317.2,349.1,324.6c0.1,0,0.2,0.1,0.1,0.1
		C348.9,324.9,349.3,324.9,349.1,324.6z"/>
	<path class="st5" d="M428.9,271.2c-0.9-0.6-1.6-0.1-2.4,0.2c-5.3,1.9-10.5,4-15.5,6.4c-3.6,1.7-7.1,3.6-10.7,5.4
		c-0.3,0.2-0.7,0.3-0.6,0.7c0.1,0.4,0.5,0.2,0.8,0.2c1.9-0.1,3.9-0.3,5.8-0.4c6.7-0.4,12.5-2.8,17.3-7.6
		C425.4,274.4,427.1,272.8,428.9,271.2c-0.2-0.1,0.1-0.5-0.3-0.3C428.7,271,428.8,271.1,428.9,271.2z"/>
	<path class="st3" d="M581.4,444.2c29.9,0,59.8,0,89.7,0c0.7,0,1.4,0,2,0c1,0.1,1.5-0.4,1.9-1.3c0.8-1.5,0.7-3.1,1.3-4.6
		c1-2.6,0.9-5.2,0.3-7.8c-0.9-4.2-3.3-7.6-5.6-11.1c-1.7-2.6-3.6-5.2-5.3-7.8c-2.7-4.2-4.4-8.8-4.6-13.9c-0.1-3.2,0.3-6.5,0.6-9.7
		c0.4-3.9,0.9-7.8,0.8-11.7c-0.2-4.1-1.5-7.8-4.3-10.9c-2.6-2.9-5.7-5.1-8.8-7.3c-2.8-2-5.7-4-8.4-6.3c-3.1-2.7-5.4-5.9-6.9-9.7
		c-1-2.5-1.7-5-2.3-7.6c-1.1-4.4-2-9-3.8-13.2c-1.8-4.1-4.6-7.1-8.6-9c-1.6-0.8-3.3-1.4-5-2c-3.4-1-6.8-2.1-10.3-3
		c-7.6-2-13.5-6.2-17.8-12.8c-2.3-3.5-4.7-6.9-7.1-10.3c-4.4-6.3-10.5-8.8-18.1-8.4c-5.4,0.3-10.7,1-16.1,0.8
		c-3.9-0.1-7.6-0.9-11.1-2.7c-3.3-1.7-6.2-3.9-9.2-6c-2.9-2.1-5.7-4.3-8.9-6c-4.4-2.4-9-3-13.8-1.5c-1.9,0.6-3.7,1.3-5.5,2
		c-3.9,1.7-7.7,3.6-11.7,5.1c-4.6,1.7-9.4,2.3-14.3,1.4c-5.1-0.9-9.9-2.6-14.8-3.9c-2.2-0.6-4.5-1-6.8-1.2c-4.9-0.4-9,1.6-12.7,4.5
		c-3,2.4-5.8,5.1-8.4,7.9c-6.2,6.6-13.5,10.4-22.7,10.6c-3.7,0.1-7.3,0.6-10.9,0.9c-7,0.6-12.4,3.8-15.8,10.1
		c-0.4,0.7-0.8,1.3-1.1,2c-1.9,3.9-3.8,7.8-5.8,11.7c-3,6-7.6,10.2-13.6,12.9c-2.5,1.1-5,2.2-7.5,3.3c-2.4,1.1-4.8,2.2-7.1,3.6
		c-4.7,2.7-7.5,6.7-8.7,12c-1,4.7-1.4,9.4-1.8,14.2c-0.7,8.1-3.9,14.9-9.8,20.4c-3.2,3-6.5,6-9.4,9.3c-4.4,5-5.8,10.6-4.6,17.1
		c0.8,4.1,1.9,8.1,3,12.1c2.2,8,1.4,15.7-2.5,23c0,0.1-0.1,0.1-0.1,0.2c-1.8,4-3.9,7.7-5.4,11.8c-2,5.4-1.8,10.6,1,15.8
		c1.1,1.9,2.2,3.8,3.4,5.7c1.8,2.8,3.7,5.5,5.6,8.3c3.4,5.1,4.9,10.8,4.5,17c-0.1,2.4-0.4,4.7-0.7,7.1c-0.4,3.5-0.9,6.9-0.8,10.4
		c0.1,4.9,1.8,9.1,5.4,12.6c1.5,1.5,3.1,2.9,4.8,4.1c3,2.2,6.1,4.4,9.1,6.6c5.3,3.9,8.8,9,10.4,15.3c1,3.8,2.1,7.5,2.9,11.4
		c2,9.1,7.4,14.7,16.4,16.9c4,1,8,2.3,12,3.5c5.5,1.7,9.9,4.8,13.4,9.4c2.2,2.8,4.1,5.8,6.1,8.8c1.4,2.1,2.9,4.2,4.6,6.1
		c3.4,4,7.7,6.1,12.9,6.3c1.4,0.1,2.9,0.1,4.3,0c3.7-0.2,7.5-0.5,11.2-0.8c6.4-0.5,12.4,0.6,17.8,4.2c2.3,1.6,4.6,3.2,6.9,4.8
		c2.8,2,5.5,4,8.5,5.6c4.5,2.4,9.2,2.9,14.1,1.3c2.7-0.9,5.3-2,7.8-3.1c3.6-1.6,7.1-3.4,10.8-4.5c3.5-1,6.9-1.6,10.6-1.1
		c3.1,0.4,6,1.1,9,1.9c3.9,1.1,7.8,2.4,11.8,3.1c4.5,0.8,8.8,0.2,12.7-2.4c2.2-1.5,4.2-3.2,6.2-5c3.1-2.8,5.9-5.9,9.1-8.6
		c4.3-3.7,9.2-5.8,14.8-6.3c4.1-0.4,8.1-0.8,12.2-1c8.9-0.4,15.7-4.1,19.4-12.5c1.3-2.9,2.8-5.8,4.2-8.7c1.7-3.5,3.6-7,6.4-9.8
		c1.5-1.5,1.3-1.4-0.1-2.8c-4.6-4.6-9.2-9.1-13.8-13.7c-36.2-36.2-72.4-72.4-108.7-108.5c-0.6-0.6-1.2-1.2-1.8-1.8
		c-0.5-0.7-1-1.4-0.5-2.3c0.4-0.8,1.2-0.9,2-0.9c0.8,0,1.5,0,2.3,0C522.1,444.2,551.8,444.2,581.4,444.2z"/>
	<path class="st5" d="M278.1,446.4c0.1,16,1.8,32.3,5.4,47.6c9.7,41.1,29.8,76.4,60.3,105.6c16.6,15.9,35.4,28.8,56.2,38.5
		c29.8,13.9,61.1,20.6,94,20c15.8-0.3,31.4-2.3,46.7-6.1c28.7-7.1,54.8-19.8,78.3-37.8c6.2-4.8,12.1-9.9,17.8-15.4
		c1.7-1.7,1.7-1.7,0.1-3.3c-4.2-4.2-8.4-8.4-12.7-12.6c-1.5-1.5-1.5-1.5-3-0.1c-5.4,5.1-11,10-16.9,14.4c-1.1,0.8-2.1,1.7-2.9,2.8
		c-2.7,3.5-6.1,5.9-10.4,7c-1.3,0.3-2.4,0.9-3.5,1.5c-13.2,8-27.1,14.2-41.8,18.7c-1,0.3-1.9,0.6-2.8,1.2c-3.9,2.7-8.3,3.8-13.1,3.4
		c-1.1-0.1-2.2,0-3.3,0.3c-14.9,2.8-29.8,4.1-45,3.4c-1.8-0.1-3.5-0.1-5.3,0.3c-4.3,1.1-8.5,0.5-12.4-1.4c-1.1-0.5-2.2-0.8-3.4-1
		c-15.4-2.4-30.2-6.6-44.6-12.7c-0.9-0.4-1.9-0.7-2.9-0.8c-4.6-0.5-8.7-2.4-11.9-5.8c-1-1-2.1-1.7-3.3-2.3
		c-13.2-7.4-25.4-16.2-36.5-26.5c-0.9-0.9-1.9-1.7-3.1-2.2c-4.1-2.1-7.1-5.2-9.1-9.4c-0.4-0.9-0.9-1.6-1.5-2.4
		c-10.5-11.9-19.3-24.9-26.5-39c-0.5-1-1.1-1.9-1.9-2.7c-3.1-3.3-4.8-7.2-5.2-11.7c-0.1-1-0.3-2-0.7-3c-5.2-13.2-8.8-26.8-10.8-40.9
		c-0.5-3.4-1-6.7-2.2-9.9c-1.2-3.2-1.1-6.7-0.4-10.1c0.3-1.5,0.8-3,0.6-4.5c-0.2-2.4-0.1-4.8,0-7.1c0.1-12.9,1.8-25.6,4.6-38.2
		c0.3-1.3,0.5-2.6,0.4-4c-0.3-4.4,0.9-8.4,3.4-12c0.8-1.1,1.3-2.4,1.8-3.6c4.9-14.5,11.6-28.1,20-41c0.7-1.1,1.2-2.2,1.6-3.4
		c1.3-4.2,3.7-7.6,7.3-10.2c1.1-0.7,2-1.6,2.8-2.6c9.7-12.1,20.8-22.8,33.1-32.1c0.9-0.7,1.7-1.4,2.4-2.3c2.6-3.7,6.2-6,10.5-7.3
		c1.3-0.4,2.5-0.9,3.7-1.6c13.2-8,27.1-14.2,41.8-18.7c1.2-0.4,2.2-0.8,3.2-1.5c3.8-2.4,7.9-3.5,12.4-3.1c1.2,0.1,2.4,0.1,3.6-0.2
		c14.3-2.9,28.8-3.9,43.4-3.5c2.1,0.1,4.2,0.4,6.4-0.2c4.4-1.1,8.6-0.6,12.7,1.3c0.9,0.4,1.9,0.8,2.9,1c15.5,2.3,30.4,6.6,44.8,12.7
		c1.2,0.5,2.4,0.9,3.7,1.1c4.4,0.5,8.1,2.4,11.3,5.4c0.9,0.9,1.9,1.6,3.1,2.3c13.5,7.5,25.9,16.4,37.1,26.9c1,0.9,2.1,1.7,3.3,2.3
		c3.8,2,6.7,5,8.5,8.8c0.6,1.3,1.4,2.3,2.3,3.4c9.8,11.3,18.2,23.6,25.1,36.8c0.9,1.8,2,3.4,3.3,4.8c2.7,3,4.2,6.6,4.5,10.6
		c0.1,1.3,0.4,2.5,0.9,3.7c4.9,12.8,8.5,26,10.5,39.7c0.5,3.7,1,7.4,2.4,10.9c1.3,3.3,1.1,6.9,0.2,10.3c-0.3,1.1-0.6,2.1-0.5,3.3
		c0.2,1.9,0.1,1.9,2.1,2c5.7,0,11.4,0,17.1,0c3.3,0,3.2,0.6,3.1-3.1c-0.4-15.5-2.4-30.9-6.2-46c-9.3-36.8-27.2-68.9-53.6-96.2
		c-17.1-17.7-36.7-31.9-58.8-42.7c-33.1-16.1-68-23.1-104.7-21.2c-12,0.6-23.9,2.2-35.6,5c-42.2,9.9-78.4,30.5-107.8,62.3
		C297.4,342.9,278.9,391.2,278.1,446.4z"/>
	<path class="st5" d="M484.4,260.3c-6.1,0.4-11.4,0.6-16.6,1.4c-2.1,0.3-4.2,0.6-6.3,0.9c-0.2,0-0.4,0.3-0.6,0.4
		c0.2,0.1,0.4,0.3,0.6,0.4c3.5,1,7,2.1,10.6,2.7c2.7,0.4,5.3,0.4,7.9-0.2c4.4-1,8.3-2.9,12.3-4.8c0.2-0.1,0.5-0.3,0.5-0.5
		c-0.1-0.5-0.5-0.3-0.8-0.3C489.1,260.3,486.3,260.3,484.4,260.3z"/>
	<path class="st5" d="M577.1,608.9c-1.7,0.2-3.9,0.4-6,0.6c-8.6,0.7-14.2,6.3-19.7,12.1c-0.1,0.1-0.1,0.3-0.2,0.4
		c0.2,0,0.5,0.1,0.7,0c0.6-0.2,1.1-0.4,1.7-0.6c8.4-3,16.5-6.7,24.4-10.9c0.7-0.4,2-0.6,1.8-1.4C579.6,608.5,578.3,609,577.1,608.9z
		"/>
	<path class="st5" d="M547.4,273.6c2.5-0.2,5.1-0.4,7.6-0.6c0.3,0,0.8,0.2,0.8-0.4c0-0.2-0.3-0.4-0.5-0.5c-0.4-0.2-0.8-0.3-1.2-0.5
		c-5-1.8-10-3.4-15.1-4.8c-4.2-1.1-8.4-2.2-12.7-3c-0.3-0.1-0.7-0.2-0.8,0.2c0,0.2,0.2,0.4,0.4,0.6c1.9,1.4,3.7,2.7,5.6,4
		C536.4,272.1,541.6,273.9,547.4,273.6z"/>
	<path class="st5" d="M315.3,498.9c0.1-3.9,0-7.3-1.3-10.5c-1.7-4.1-4.2-7.7-6.8-11.3c-0.1-0.2-0.4-0.4-0.6-0.4
		c-0.5,0.1-0.3,0.5-0.3,0.8c0,0.4,0.1,0.8,0.2,1.3c1.2,6.6,2.7,13.2,4.5,19.6c0.8,2.7,1.7,5.4,2.5,8c0.1,0.3,0.2,0.7,0.6,0.7
		c0.5,0,0.3-0.5,0.4-0.8C314.9,503.6,315.1,501,315.3,498.9z"/>
	<path class="st5" d="M330.4,352.8c0-0.2,0-0.4,0-0.5c0-0.3,0.2-0.7-0.2-0.8c-0.4-0.1-0.5,0.4-0.7,0.6c-0.9,1.5-1.8,3.1-2.7,4.6
		c-4,7.2-7.5,14.7-10.5,22.4c-0.1,0.3-0.3,0.6,0,0.9c0.1,0.1,0.4-0.2,0.6-0.4c2.3-2.2,4.7-4.4,6.8-6.9c2.6-3,4.4-6.4,5.2-10.3
		C329.8,359.2,330.1,356,330.4,352.8z"/>
	<path class="st5" d="M303.9,436c0,2,0,4.1,0,6.1c0,0.3-0.1,0.8,0.2,0.9c0.4,0.2,0.5-0.3,0.7-0.6c1.5-3,3.1-6.1,4.2-9.3
		c1.2-3.3,1.6-6.7,1.1-10.3c-0.5-3.5-1.4-6.8-2.2-10.2c-0.1-0.4-0.2-1-0.6-1c-0.5,0-0.3,0.7-0.4,1
		C305.4,420.4,304.5,428.2,303.9,436z"/>
	<path class="st5" d="M495,632.5c4.1,0,8.2-0.3,12.2-0.7c3.8-0.4,7.6-0.9,11.4-1.4c0.2,0,0.7-0.1,0.7-0.2c0.1-0.4-0.3-0.5-0.6-0.6
		c-2-0.6-4.1-1.2-6.1-1.8c-3.2-0.8-6.5-1.4-9.8-1.1c-5.3,0.5-9.9,2.9-14.6,5c-0.2,0.1-0.5,0.3-0.5,0.5c0,0.5,0.5,0.4,0.8,0.4
		C490.5,632.5,492.8,632.5,495,632.5z"/>
	<path class="st5" d="M634.4,329.3c-0.4,0.3-0.2,0.7-0.2,1c0.8,3,1.5,5.9,2.4,8.8c1.2,3.9,3.3,7.3,6.4,10c2.5,2.3,5.3,4.2,8.1,6.2
		c0.3,0.2,0.7,0.7,1,0.2c0.1-0.1-0.1-0.6-0.3-0.9c-3-5.2-6.2-10.4-9.7-15.3c-2.3-3.2-4.7-6.3-7.1-9.4
		C635,329.7,634.7,329.5,634.4,329.3z"/>
	<path class="st5" d="M431.9,619.4c-2.1,0.1-4.2,0.2-6.3,0.4c-0.5,0-1.4-0.2-1.5,0.5c-0.1,0.5,0.8,0.6,1.2,0.7c2.9,1,5.8,2,8.7,3
		c6.5,2.1,13,3.7,19.7,5.1c0.3,0.1,0.6,0.2,0.9,0c-0.2-0.3-0.4-0.6-0.6-0.8c-2.1-1.5-4.3-3.1-6.4-4.6
		C442.9,620.4,437.7,619,431.9,619.4z"/>
	<path class="st5" d="M345.7,563c-0.7-3.1-1.4-6.1-2.5-9.1c-0.9-2.8-2.1-5.4-4.1-7.6c-3.1-3.6-7-6.2-10.8-8.9
		c-0.2-0.1-0.4-0.4-0.6-0.1c-0.1,0.1,0,0.5,0.1,0.7c0.1,0.3,0.3,0.6,0.5,0.9c4.7,8.2,10,16,15.9,23.4c0.3,0.3,0.5,0.7,0.8,1
		c0.2,0.2,0.4,0.4,0.6,0.2C345.7,563.4,345.7,563.1,345.7,563z"/>
	<path class="st0" d="M637.6,471.8c14.6-0.4,28.5,11.6,28.5,28.3c0,15.8-12.7,28.5-28.4,28.5c-15.6,0-28.3-12.7-28.3-28.3
		C609.2,483.3,623.4,471.4,637.6,471.8z"/>
	<path class="st7" d="M662.8,500.1c0-13.9-11.3-25.1-25.2-25.1c-14,0-25.1,11.8-25.1,25.2c0,11.7,9.3,25,25.3,25.1
		C651.6,525.4,662.8,514,662.8,500.1z"/>
	<path class="st0" d="M584.1,485c0.1,2.9-0.5,6-1.3,9c-0.3,1-0.2,1.8,0.4,2.6c1.1,1.5,2.1,3.1,3.1,4.7c0.3,0.4,0.6,0.8,0.8,1.3
		c0.4,0.9,0.3,1.7-0.6,2.2c-0.8,0.5-1.5,0.1-2-0.5c-0.6-0.7-1.1-1.5-1.6-2.3c-1.7-3.4-4.1-5.4-8.2-5.7c-3-0.2-5.9-1.6-8.6-3.1
		c-6-3.3-9.1-8.4-9.6-15.2c-0.3-4.5,0.4-8.8,1.7-13.1c0.6-1.9,1-2.1,3-1.9c4.6,0.4,9,1.6,13.1,3.8c6.5,3.5,9.7,9,9.8,16.4
		C584.1,483.7,584.1,484.2,584.1,485z"/>
	<path class="st6" d="M580.9,484.7c0.1-6.2-1.8-11.1-7-14.4c-3.4-2.1-7.3-3.2-11.2-4c-1.3-0.3-1.8,0.4-2.1,1.5
		c-0.6,2.6-1.1,5.2-1.1,7.8c0,4.8,1.1,9.3,5.1,12.6c3.2,2.7,7,4,11,5c0.3,0.1,0.8,0.1,1-0.1c0.3-0.4-0.1-0.8-0.3-1.1
		c-0.9-1.4-1.9-2.8-2.8-4.3c-1.6-2.4-3.2-4.8-4.8-7.2c-0.8-1.2-0.7-2.1,0.2-2.7c0.8-0.6,1.6-0.3,2.5,0.9c0.5,0.6,0.9,1.3,1.3,1.9
		c2.1,3.1,4.1,6.2,6.2,9.4c0.2,0.3,0.4,0.9,0.9,0.8c0.6-0.1,0.5-0.8,0.6-1.2C580.7,488,581.1,486.2,580.9,484.7z"/>
	<path class="st0" d="M811.4,589.6c-6.1,0-10.8-4.8-10.7-10.9c0.1-6.1,4.9-10.7,11-10.7c5.9,0.1,10.6,4.9,10.6,10.8
		C822.3,585,817.6,589.6,811.4,589.6z"/>
	<path class="st8" d="M811.4,586.4c4.2,0,7.7-3.3,7.7-7.5c0-4.1-3.5-7.7-7.6-7.7c-4.1,0-7.7,3.4-7.7,7.6
		C803.8,582.9,807.2,586.4,811.4,586.4z"/>
	<path class="st0" d="M816.9,845c6.1,0,11.4,5,11.3,11.2c-0.1,7.2-5.6,11.3-11.3,11.4c-6.3,0-11.4-5.2-11.2-11.4
		C805.8,849.9,810.7,845,816.9,845z"/>
	<path class="st8" d="M817,848.2c-4.3-0.1-8,3.6-8.1,7.9c-0.1,4.4,3.5,8.2,8,8.3c4.3,0.1,8-3.6,8.1-7.9
		C825.1,852.1,821.4,848.2,817,848.2z"/>
	<path class="st0" d="M406.6,567.5c-16.9,0-30.7-13.8-30.5-30.6c0.2-18.2,14.9-30.5,30.7-30.4c15.5,0.1,30.3,12.1,30.3,30.5
		C437.1,555.8,421.9,567.6,406.6,567.5z"/>
	<path class="st7" d="M433.9,536.9c-0.3-16.2-13.7-27.6-28.2-27.2c-14.4,0.4-26.6,12.8-26.4,27.5c0.2,14.8,11.8,27.2,27.5,27.1
		C422,564.2,433.8,552,433.9,536.9z"/>
	<path class="st0" d="M575.7,391.1c0-15.7,12.5-28.3,28.2-28.3c16,0,28.6,12.6,28.5,28.6c0,15.6-12.8,28.2-28.4,28.2
		C587.2,419.5,575.4,405.6,575.7,391.1z"/>
	<path class="st7" d="M603.9,416.3c12.6,0.4,25.2-10.1,25.3-25c0.1-13.9-11.1-25.2-25-25.3c-13.9-0.1-25.3,11.1-25.3,25
		C578.8,405,590,416.3,603.9,416.3z"/>
	<path class="st0" d="M474.1,464c15.4-0.1,28.4,12.6,28.5,27.9c0.1,16-12.3,29-28.2,29c-17.7,0-28.4-14.4-28.6-28
		C445.6,478.3,457.2,464.2,474.1,464z"/>
	<path class="st7" d="M474.1,467.2c-14,0.1-25.2,11.5-25.1,25.6c0.1,12.2,9.7,24.8,25.3,24.8c14.7,0,25.1-12,25.1-25.3
		C499.3,478.5,487.9,467.2,474.1,467.2z"/>
	<path class="st0" d="M563.1,327.1c0,16.5-13.9,28.6-28.8,28.3c-15.2-0.3-28.2-12.8-28-28.9c0.2-15.5,12.9-28,28.7-27.9
		C550.6,298.7,563.2,311.4,563.1,327.1z"/>
	<path class="st7" d="M560,327c0-13.8-11.4-25.2-25.2-25.3c-13.8,0-25.2,11.3-25.2,25.2c0,13.9,11.2,25.2,25.1,25.2
		C548.6,352.2,560,340.9,560,327z"/>
	<path class="st0" d="M524.1,384.8c4-0.1,8.1,0.4,12.1,2c5.4,2.2,9.1,6.2,11.6,11.3c2.1,4.3,3.4,8.9,3.6,13.7
		c0.1,3.1,1.1,5.3,3.8,6.8c1.6,0.9,3,2.2,4.5,3.3c0.4,0.3,0.8,0.6,1.2,1c0.6,0.7,0.5,1.4,0,2.1c-0.5,0.6-1.2,0.7-1.9,0.3
		c-0.4-0.2-0.9-0.6-1.3-0.9c-2-1.5-4.1-3-6.1-4.6c-1.2-1-2.4-1.2-3.9-0.9c-5.8,1.2-11.6,1.5-17.5,0.2c-6.6-1.4-11.6-5.1-14.9-11
		c-3.3-6-4.5-12.6-4.8-19.4c-0.1-1.9,0.3-2.3,2.3-2.7C516.4,385.3,520.1,384.7,524.1,384.8z"/>
	<path class="st6" d="M524.1,388c-3-0.1-5.8,0.3-8.7,0.8c-1.2,0.2-1.7,0.7-1.6,2c0.4,5.1,1.5,9.9,3.6,14.5c2.7,5.7,7,9.3,13.2,10.7
		c4.5,1,9.1,1,13.7,0.3c0.5-0.1,1.2,0.1,1.3-0.4c0.2-0.6-0.5-0.8-0.9-1.1c-4.7-3.6-9.5-7.2-14.2-10.8c-0.5-0.4-1.1-0.8-1.6-1.3
		c-0.5-0.6-0.5-1.3-0.1-1.9c0.5-0.6,1.2-0.8,1.8-0.5c0.7,0.3,1.3,0.8,1.9,1.2c4.8,3.6,9.5,7.2,14.2,10.8c0.3,0.2,0.7,0.7,1.1,0.5
		c0.4-0.2,0.2-0.8,0.2-1.1c-0.7-5-1.9-9.8-4.5-14.3c-2.4-4.1-5.8-6.8-10.3-8.2C530.3,388.2,527.2,387.9,524.1,388z"/>
	<path class="st0" d="M361.8,374.6c13.9,0.4,24.2,11.3,23.8,25.3c-0.3,12.9-11.6,23.4-24.8,23c-13.6-0.3-24-11.5-23.5-25.3
		C337.8,384.8,348.9,374.2,361.8,374.6z"/>
	<path class="st7" d="M340.6,398.8c0,11.6,9.4,20.9,20.9,20.9c11.5,0,21-9.5,21-20.9c0-11.6-9.5-21.1-21.1-21.1
		C349.8,377.8,340.6,387.2,340.6,398.8z"/>
	<path class="st0" d="M352.9,472.5c0-11,8.3-20,19.4-20.3c8.1-0.3,15.3,4.2,18.8,11.4c1.1,2.1,0.8,2.8-1.4,3.7
		c-2.3,0.9-4.6,1.9-6.9,2.7c-1.1,0.4-1.4,0.9-0.9,2.1c1.8,4.3,3.5,8.7,5.3,13c0.2,0.6,0.5,1.1,0.6,1.7c0.5,1.6,0.3,2.1-1.3,2.8
		c-1.5,0.7-3,1.2-4.5,1.8c-2.4,1-4.9,2-7.3,2.9c-2.4,0.9-2.8,0.7-3.8-1.7c-1.8-4.4-3.5-8.8-5.3-13.3c-0.8-2-0.8-2-2.9-1.2
		c-1.7,0.7-3.5,1.4-5.2,2.1c-2.4,0.9-2.9,0.6-3.7-1.8C353.2,476.4,352.9,474.5,352.9,472.5z"/>
	<path class="st8" d="M373.4,455.4c-12.5-0.1-18.8,11.6-17,19.9c0.3,1.5,0.4,1.6,1.9,1c2.1-0.8,4.3-1.7,6.4-2.5
		c1.5-0.5,1.9-0.3,2.6,1c0.3,0.6,0.5,1.2,0.8,1.9c1.7,4.2,3.3,8.4,5,12.5c0.7,1.8,0.7,1.8,2.6,1.1c2.2-0.9,4.4-1.7,6.6-2.6
		c2-0.8,2.1-0.8,1.2-2.9c-1.8-4.5-3.6-9-5.4-13.5c-0.8-2.1-0.6-2.6,1.5-3.5c2.1-0.9,4.3-1.7,6.4-2.6c2-0.8,2-0.9,0.7-2.6
		C383.3,458,378.7,455.7,373.4,455.4z"/>
	<path class="st0" d="M445.2,445.8c-4.5-0.2-9.6-1.7-14.1-4.8c-3.3-2.3-6.4-2.5-9.9-1.1c-1.2,0.5-2.5,0.7-3.7,1
		c-0.9,0.2-1.8,0-2.1-1c-0.4-1.1,0.3-1.8,1.3-2.1c2.1-0.6,4.2-1.2,6.4-1.7c2-0.4,3.2-1.4,4.1-3.3c1.8-3.9,4.3-7.3,7.4-10.3
		c5.6-5.4,12.1-7.3,19.7-5.4c5.1,1.2,9.7,3.6,14,6.6c1.6,1.1,1.7,1.6,0.9,3.4c-2.1,4.8-4.9,9.2-8.7,12.8
		C456.5,443.6,451.8,445.9,445.2,445.8z"/>
	<path class="st6" d="M450,419.6c-4.8-0.1-8.1,1.1-11.1,3.5c-3.3,2.6-5.8,5.9-7.9,9.6c-0.2,0.3-0.6,0.8-0.2,1.1
		c0.3,0.3,0.8,0,1.2-0.1c4.8-1.3,9.5-2.5,14.3-3.8c0.7-0.2,1.5-0.4,2.2-0.5c0.8-0.1,1.5,0.2,1.7,1.1c0.2,0.9-0.2,1.5-1,1.8
		c-0.8,0.3-1.6,0.5-2.4,0.7c-4.7,1.3-9.4,2.5-14,3.8c-0.4,0.1-1,0.2-1,0.6c0,0.4,0.5,0.6,0.9,0.8c3,1.7,6.2,3.1,9.7,3.9
		c5.3,1.2,10.1,0.3,14.4-3.2c3.9-3.2,6.7-7.2,9-11.6c0.4-0.8,0.4-1.4-0.4-1.9C460.2,422.2,455,419.8,450,419.6z"/>
	<path class="st0" d="M536.8,536.6c13-0.2,22.2,12.5,19.5,24.6c-0.4,1.9-1,2.3-2.9,1.8c-2.5-0.7-4.9-1.3-7.4-2.1
		c-1.3-0.4-1.8,0-2.2,1.3c-1.2,4.7-2.6,9.3-4,14c-0.8,2.8-1.1,2.9-4,2.1c-3.6-1-7.2-2-10.8-3.1c-3.2-0.9-3.2-1-2.3-4.3
		c1.3-4.4,2.5-8.8,3.8-13.3c0.6-2.1,0.6-2.1-1.6-2.7c-1.8-0.5-3.6-1-5.4-1.5c-2.4-0.7-2.7-1.3-1.8-3.7c2.4-6.3,7-10.3,13.4-12.4
		C533.1,536.8,535,536.6,536.8,536.6z"/>
	<path class="st8" d="M534.5,539.9c-4.2,0.2-9.4,3.2-12.8,9.2c-0.7,1.3-0.7,1.4,0.8,1.9c2.1,0.6,4.3,1.2,6.4,1.8
		c1.9,0.6,2.1,1.1,1.6,3c-0.1,0.6-0.3,1.1-0.5,1.7c-1.2,4.3-2.4,8.5-3.6,12.8c-0.5,1.9-0.5,1.9,1.4,2.4c2.4,0.7,4.7,1.4,7.1,2
		c1.9,0.5,1.9,0.5,2.4-1.3c1.3-4.7,2.6-9.3,4-14c0.8-2.7,1.1-2.8,3.8-2.1c2.1,0.6,4.2,1.3,6.4,1.8c1.7,0.5,1.9,0.3,2-1.5
		C554,548,546.3,539.7,534.5,539.9z"/>
	<path class="st0" d="M385.1,352.9c0-9.6,6.2-17.6,15.4-19.7c8.2-1.9,17.4,1.9,21.7,8.9c1.3,2.2,1.2,2.8-1,4
		c-2.1,1.1-4.2,2.2-6.3,3.3c-1.2,0.6-1.4,1.1-0.7,2.3c2.2,4,4.3,8.1,6.4,12.2c0.4,0.7,0.7,1.4,1,2.1c0.4,1,0.2,1.8-0.8,2.4
		c-4.2,2.2-8.4,4.4-12.6,6.6c-0.9,0.5-1.7,0.1-2.2-0.6c-0.5-0.7-0.8-1.5-1.2-2.2c-2.1-3.9-4.1-7.8-6.2-11.7c-0.9-1.8-1-1.8-2.8-0.8
		c-1.7,0.9-3.3,1.7-5,2.6c-2.4,1.2-2.9,1.1-4-1.5C385.5,358.1,385,355.6,385.1,352.9z"/>
	<path class="st8" d="M404.9,335.9c-5.1,0.1-9.2,1.9-12.4,5.6c-3.9,4.6-5.2,9.8-3.8,15.7c0.4,1.9,0.6,1.9,2.3,1
		c1.6-0.8,3.2-1.6,4.7-2.5c2.7-1.4,3-1.3,4.4,1.2c0.3,0.5,0.6,1.1,0.8,1.6c2,3.8,4.1,7.6,6,11.5c0.5,1.1,1,1.3,2.1,0.7
		c2.3-1.3,4.7-2.5,7-3.7c1.7-0.9,1.7-0.9,0.8-2.6c-2.2-4.1-4.3-8.3-6.5-12.4c-1.6-3-1.5-3.2,1.6-4.8c1.9-1,3.8-2,5.6-3
		c1.4-0.7,1.4-0.8,0.4-2C414.6,338,410.1,336,404.9,335.9z"/>
	<path class="st0" d="M471.7,353.9c13.6-0.1,22.5,9.5,22,21.2c-0.1,2.2-0.5,4.4-1.4,6.5c-0.9,2.2-1.5,2.5-3.7,1.5
		c-2.2-1-4.3-2.1-6.4-3.2c-1.6-0.8-1.6-0.8-2.5,0.9c-2.1,4.1-4.1,8.2-6.2,12.3c-0.2,0.5-0.4,0.9-0.7,1.4c-0.9,1.6-1.4,1.8-3.1,1
		c-3.2-1.5-6.4-3.1-9.6-4.7c-0.5-0.3-1.1-0.5-1.6-0.8c-2.4-1.2-2.5-1.6-1.4-3.9c1.5-3,2.9-6,4.4-8.9c0.7-1.4,1.5-2.9,2.2-4.3
		c0.8-1.6,0.8-1.6-0.9-2.4c-1.7-0.9-3.5-1.7-5.2-2.6c-2.4-1.2-2.6-1.9-1.1-4.1C460.6,357.1,466.6,354,471.7,353.9z"/>
	<path class="st8" d="M490.5,374.3c0.1-3.7-0.9-6.9-2.9-9.8c-6.7-10.1-20.3-9.5-27.1-1c-1.1,1.3-1.1,1.4,0.4,2.2
		c1.7,0.9,3.5,1.7,5.2,2.6c2.5,1.3,2.6,1.6,1.3,4.1c-2.2,4.4-4.4,8.8-6.6,13.2c-0.5,1.1-0.5,1.6,0.7,2.1c2.4,1.1,4.7,2.4,7.1,3.5
		c1.7,0.8,1.7,0.8,2.6-0.9c2.2-4.4,4.4-8.8,6.6-13.2c1-2.1,1.5-2.2,3.6-1.2c2.2,1.1,4.4,2.2,6.6,3.3c1,0.5,1.5,0.4,1.8-0.8
		C490.3,377,490.5,375.6,490.5,374.3z"/>
	<path class="st0" d="M491.9,571.2c0,6.9-2.4,11.8-7.2,15.5c-3.4,2.6-7.3,4.4-11.4,5.5c-1.4,0.4-2.2,1.1-2.7,2.4
		c-0.7,1.6-1.4,3.1-2.2,4.6c-0.2,0.5-0.5,0.9-0.7,1.3c-0.5,0.8-1.2,0.9-2,0.6c-0.9-0.3-1-1.2-0.8-1.9c0.4-1.1,0.8-2.3,1.5-3.2
		c1.9-2.9,2-5.7,0.6-9c-1.8-4.1-2.3-8.5-1.8-13c0.6-4.6,2.8-8.3,6.4-11.2c4-3.3,8.7-5.3,13.7-6.5c1.8-0.4,2.3-0.1,3.1,1.4
		C490.4,562.3,491.7,567,491.9,571.2z"/>
	<path class="st6" d="M488.6,571.2c-0.1-3-1-6.7-2.4-10.3c-0.4-1.1-1.1-1.3-2.2-1c-4,1.3-7.8,3-11,5.8c-2.7,2.4-4.3,5.4-4.7,9.1
		c-0.4,3.8,0.3,7.5,1.5,11c0.1,0.3,0.2,0.8,0.4,0.8c0.5,0.2,0.6-0.4,0.8-0.8c1.8-3.8,3.7-7.7,5.5-11.5c0.3-0.6,0.6-1.2,1-1.8
		c0.5-0.6,1.1-0.7,1.8-0.4c0.6,0.3,0.8,0.8,0.8,1.5c0,0.8-0.4,1.5-0.8,2.1c-1.8,3.8-3.7,7.7-5.5,11.5c-0.1,0.3-0.4,0.6-0.2,0.9
		c0.2,0.3,0.6,0.1,1,0c3-1.1,5.8-2.5,8.3-4.5C486.9,580.9,488.7,576.9,488.6,571.2z"/>
	<path class="st0" d="M464.8,320.2c0,3.1-0.2,5.6-0.8,8.1c-0.3,1.3-0.1,2.3,0.8,3.3c1.2,1.4,2.2,2.8,3.2,4.3
		c0.3,0.4,0.7,0.8,0.9,1.3c0.3,0.8,0.3,1.5-0.4,2.1c-0.7,0.5-1.5,0.4-2.1-0.2c-0.8-0.9-1.6-1.8-2.2-2.8c-1.7-2.9-3.8-4.6-7.5-4.6
		c-3.3,0-6.5-1.2-9.5-2.7c-6.4-3.1-9.8-8.2-10.5-15.2c-0.4-4.3,0-8.5,1-12.6c0.3-1.4,1-2,2.5-2c5.4,0.1,10.6,1.2,15.4,3.8
		c6.4,3.5,8.9,9.3,9.3,16.3C464.8,319.7,464.8,320.2,464.8,320.2z"/>
	<path class="st6" d="M439.7,310.1c0.1,1.1,0,2.2,0.2,3.3c0.5,4.2,2,7.9,5.5,10.6c3.3,2.5,7.2,3.7,11.3,4.4c0.3,0.1,0.8,0.1,1-0.1
		c0.4-0.4-0.1-0.8-0.3-1.1c-2.5-3.3-5-6.7-7.5-10c-0.4-0.5-0.7-0.9-1-1.5c-0.4-0.7-0.4-1.5,0.3-2.1c0.8-0.6,1.6-0.5,2.3,0.2
		c0.4,0.4,0.7,0.9,1.1,1.4c2.2,3,4.5,6,6.7,9c0.3,0.4,0.6,0.8,0.9,1.2c0.2,0.3,0.4,0.6,0.8,0.5c0.4-0.1,0.3-0.6,0.3-0.9
		c0.3-2.6,0.4-5.2,0.1-7.9c-0.7-5.6-3.5-9.7-8.6-12.1c-3.4-1.6-6.9-2.3-10.6-2.8c-1.2-0.2-1.6,0.3-1.8,1.5
		C440,305.8,439.7,307.9,439.7,310.1z"/>
	<path class="st0" d="M634.9,495.3c-1-1.9-1.4-4-1.7-6.1c-0.4-2.9,1.2-5.7,3.8-6.9c2.6-1.2,5.8-0.7,7.8,1.3c2.1,2.1,2.7,5.1,1.4,7.7
		c-0.9,1.9-2.2,3.4-3.5,5c-0.2,0.2-0.4,0.4-0.2,0.6c0.2,0.3,0.5,0.1,0.7,0c1.8-0.5,3.6-1,5.5-1.3c2.9-0.4,5.6,1,6.9,3.7
		c1.3,2.6,0.8,5.8-1.2,7.8c-2,2.1-5.1,2.7-7.7,1.5c-1.9-0.9-3.4-2.2-5-3.5c-0.2-0.1-0.5-0.2-0.7-0.3c0,0.2-0.1,0.5-0.1,0.7
		c0.6,1.8,1.1,3.6,1.3,5.4c0.3,2.8-0.7,5.1-3.1,6.5c-2.4,1.5-5,1.5-7.5-0.1c-2.3-1.5-3.4-3.8-3-6.6c0.2-1.9,1.4-3.4,2.5-4.9
		c0.6-0.9,1.6-1.6,1.9-2.7c-1.1-0.2-2.1,0.5-3.1,0.7c-1.2,0.2-2.5,0.6-3.8,0.6c-3,0-5.3-1.5-6.4-4.2c-1.1-2.7-0.4-5.8,1.7-7.7
		c2.1-1.9,5-2.3,7.6-1.1c1.5,0.8,2.8,1.9,4.2,2.9C633.6,495,634,495.7,634.9,495.3c-0.1,0.1-0.2,0.1-0.1,0
		C635,495,634.6,495.2,634.9,495.3z M638.9,511.8c-0.2-2.2-0.9-4.4-1.7-6.5c-0.2-0.7-0.6-0.8-1.1-0.3c-1.5,1.6-3,3.3-4,5.2
		c-0.8,1.4-0.5,2.8,0.5,4c1,1.1,2.6,1.5,4,1C638,514.7,638.9,513.5,638.9,511.8z M640,484.8c-2.2,0-3.9,1.9-3.6,4.2
		c0.3,2,0.9,3.9,1.6,5.8c0.3,0.7,0.5,1.1,1.2,0.4c1.5-1.6,2.9-3.3,4-5.2C644.6,487.8,642.5,484.8,640,484.8z M626.4,501.5
		c2.1-0.6,4.5-0.9,6.7-2.1c-1.2-2-3.3-3.1-5.1-4.4c-0.2-0.2-0.4-0.3-0.7-0.4c-1.4-0.6-3-0.3-4,0.7c-1.1,1.1-1.4,2.7-0.8,4
		C623.3,500.7,624.5,501.5,626.4,501.5z M649,498.9c-2,0.2-4.1,0.9-6.2,1.7c-0.9,0.3-0.6,0.8-0.1,1.3c1.5,1.4,3,2.7,4.8,3.7
		c1.6,0.9,3,0.7,4.2-0.4c1.1-1,1.5-2.6,1-3.9C652.2,499.7,650.8,498.8,649,498.9z"/>
	<path class="st0" d="M409.8,541.2c-0.4,0.9,0.1,1.7,0.3,2.5c0.6,2,1.2,4.1,1.2,6.2c0,3-1.7,5.4-4.5,6.5c-2.7,1.1-6,0.4-8-1.7
		c-2-2.1-2.6-5.2-1.4-7.8c1-2.3,2.7-4.1,4.3-6c0.2-0.2,0.4-0.5,0.3-0.6c-0.2-0.4-0.6-0.2-0.9-0.1c-2,0.7-4.1,1.3-6.2,1.6
		c-3.1,0.5-6-1-7.4-3.8c-1.5-2.9-1-6.2,1.3-8.5c2.2-2.2,5.4-2.8,8.2-1.5c2.1,1,3.8,2.6,5.6,4c0.2,0.2,0.5,0.6,0.8,0.4
		c0.3-0.2,0.1-0.6,0-1c-0.4-1.5-0.9-2.9-1.3-4.4c-0.4-1.7-0.6-3.5,0.1-5.3c1.4-3.7,5.8-5.5,9.5-4c3.7,1.5,5.5,5.8,3.9,9.5
		c-1,2.2-2.6,4-4.1,5.8c-0.2,0.3-0.5,0.7-0.5,0.8c0.3,0.5,0.7,0.1,1.1,0c2-0.6,4.1-1.3,6.2-1.5c3.4-0.4,6.5,1.6,7.6,4.8
		c1.1,3.2,0,6.7-2.9,8.5c-2.4,1.6-5,1.6-7.5,0.2C413.5,544.6,411.5,543,409.8,541.2c0,0.2,0,0.2-0.2,0.1
		C409.7,541.2,409.7,541.2,409.8,541.2z M408.1,549.2c-0.3-2.2-1.1-4.7-2-7c-0.3-0.7-0.7-0.7-1.1-0.2c-1.7,1.8-3.3,3.7-4.5,5.8
		c-0.9,1.6-0.7,3.1,0.5,4.5c1.1,1.3,2.9,1.7,4.4,1.2C407.2,552.8,408.2,551.4,408.1,549.2z M423.2,539.6c0.1-2.5-2.1-4.5-4.6-4.1
		c-2.3,0.4-4.4,1.1-6.6,1.8c-0.7,0.2-1.1,0.6-0.4,1.2c1.8,1.8,3.7,3.5,6,4.6C420.2,544.4,423.1,542.5,423.2,539.6z M405.1,524.8
		c0.3,2.2,1.1,4.7,2,7.2c0.3,0.8,0.8,0.3,1.1,0c1.7-1.8,3.3-3.7,4.5-5.8c0.8-1.6,0.5-3.1-0.7-4.4c-1.1-1.2-2.9-1.6-4.4-1
		C406.1,521.2,405.1,522.6,405.1,524.8z M394.5,538.5c2.1-0.2,4.5-1,6.9-1.9c0.7-0.2,0.7-0.7,0.2-1.1c-1.8-1.6-3.7-3.3-5.8-4.5
		c-1.5-0.8-3.2-0.6-4.5,0.5c-1.3,1.1-1.7,2.8-1.1,4.4C390.9,537.6,392.2,538.5,394.5,538.5z"/>
	<path class="st0" d="M601.7,409.6c-5.1,0-8.2-5.1-6.1-9.7c0.7-1.5,1.8-2.7,2.7-4c0.4-0.5,1.1-1,0.9-1.4c-0.3-0.6-1.1,0-1.6,0.2
		c-1.4,0.3-2.8,0.8-4.2,1c-3.8,0.6-7.3-2-7.8-5.6c-0.6-3.7,1.9-7.2,5.6-7.9c1.9-0.4,3.6,0.2,5.1,1.2c1.3,0.9,2.6,1.9,3.9,2.9
		c0.2,0.1,0.5,0.4,0.6,0.3c0.4-0.2,0.2-0.6,0.1-0.9c-0.5-1.7-1.1-3.4-1.2-5.2c-0.3-3.4,1.1-6,4.1-7.2c2.6-1.1,5.8-0.5,7.7,1.7
		c2.1,2.3,2.4,5.4,0.7,8.3c-0.7,1.2-1.7,2.3-2.5,3.5c-0.3,0.4-1,0.9-0.7,1.2c0.4,0.6,1.1,0,1.6-0.1c1.6-0.4,3.3-1,5-1
		c4-0.2,7.2,2.9,7.1,7c-0.1,4-3.5,7.1-7.4,6.7c-2-0.2-3.6-1.4-5.2-2.5c-0.9-0.6-1.6-1.6-2.7-1.9c-0.3,1.1,0.5,2.1,0.6,3.1
		c0.2,1.2,0.5,2.3,0.6,3.5C608.8,406.6,605.8,409.7,601.7,409.6z M592.5,392.5c2.3-0.4,4.5-1,6.6-1.8c0.5-0.2,0.7-0.5,0.3-0.9
		c-1.7-1.6-3.5-3.2-5.6-4.3c-1.3-0.7-2.9-0.3-3.9,0.8c-1.1,1.1-1.4,2.6-0.7,4C589.7,391.7,591.1,392.6,592.5,392.5z M602.8,379.9
		c0.1,1.9,0.9,3.9,1.6,6c0.3,0.9,0.7,0.8,1.3,0.2c1.4-1.6,2.8-3.2,3.8-5c0.8-1.5,0.6-2.7-0.4-4c-1-1.2-2.5-1.6-3.9-1.1
		C603.7,376.6,602.8,377.8,602.8,379.9z M615.6,389.9c-2.1,0.1-4.3,0.9-6.5,1.7c-0.8,0.3-0.5,0.7-0.1,1.1c1.6,1.4,3.2,2.8,5,3.9
		c1.5,0.9,2.8,0.7,4-0.4c1.2-1,1.7-2.7,1.1-4.1C618.6,390.8,617.3,389.9,615.6,389.9z M605.4,402.8c-0.3-2.2-1-4.5-1.9-6.7
		c-0.2-0.6-0.6-0.5-1-0.1c-1.5,1.7-3.1,3.4-4.1,5.5c-0.7,1.4-0.3,2.9,0.8,4c1.1,1,2.3,1.3,3.8,0.8
		C604.4,405.8,605.4,404.4,605.4,402.8z"/>
	<path class="st0" d="M470.7,488.1c0.7-0.8,0.2-1.6-0.1-2.4c-0.4-1.6-0.8-3.1-0.9-4.8c-0.1-2.9,1.4-5.3,4.1-6.5
		c2.7-1.1,5.8-0.5,7.7,1.6c1.9,2,2.4,5.1,1.1,7.6c-0.9,1.8-2.2,3.3-3.4,4.8c-0.2,0.2-0.6,0.5-0.3,0.8c0.1,0.1,0.5,0.1,0.7,0
		c1.7-0.5,3.4-1,5.2-1.3c3-0.4,5.7,0.9,7,3.5c1.3,2.6,0.8,6-1.2,8c-2,2-5.2,2.6-7.8,1.3c-1.9-0.9-3.4-2.3-5-3.5
		c-0.2-0.1-0.4-0.2-0.7-0.2c0,0.2-0.1,0.5,0,0.7c0.6,2,1.3,4.1,1.4,6.2c0.1,3.1-1.9,5.9-4.9,6.6c-2.8,0.7-5.3,0-7.1-2.2
		c-1.9-2.3-2.2-4.9-0.8-7.6c0.9-1.7,2.1-3.1,3.3-4.5c0.2-0.2,0.6-0.5,0.2-0.8c-0.1-0.1-0.5-0.1-0.7,0c-1.9,0.6-3.7,1.2-5.7,1.3
		c-2.9,0.2-5.2-1-6.5-3.6c-1.4-2.7-1.1-5.3,0.8-7.6c1.9-2.4,5.3-3.2,8.1-1.8C467.4,485,469.3,486.3,470.7,488.1
		c0.1,0,0.1-0.1,0.2-0.1C470.8,488,470.8,488,470.7,488.1z"/>
	<path class="st7" d="M462.5,493.8c2.3-0.3,4.5-1,6.6-1.8c0.4-0.2,0.8-0.5,0.3-0.9c-1.8-1.7-3.6-3.4-5.9-4.4c-1.4-0.6-2.7-0.1-3.7,1
		c-0.9,1.1-1.3,2.3-0.7,3.8C459.8,493,461,493.7,462.5,493.8z"/>
	<path class="st7" d="M476.6,477.1c-1.9,0-3.6,1.5-3.6,3.5c0,2.2,0.8,4.3,1.5,6.4c0.4,1.2,0.9,1,1.6,0.3c1.4-1.5,2.7-3,3.6-4.9
		C481,480,479.3,477.2,476.6,477.1z"/>
	<path class="st7" d="M475.6,503.9c-0.3-2.1-1-4.3-1.8-6.4c-0.3-0.7-0.7-0.6-1.1-0.1c-1.5,1.6-3,3.3-4,5.3c-0.7,1.4-0.4,2.9,0.7,4
		c1,1,2.7,1.4,4,0.8C474.6,507,475.6,505.6,475.6,503.9z"/>
	<path class="st7" d="M485.7,491.2c-2.1,0.2-4.2,0.9-6.3,1.7c-0.9,0.3-0.8,0.8-0.2,1.3c1.6,1.4,3.2,2.8,5,3.8c1.4,0.8,2.8,0.6,4-0.4
		c1.2-1,1.6-2.7,1-4.2C488.7,492,487.4,491.2,485.7,491.2z"/>
	<path class="st0" d="M538,331.8c-0.3,0.7,0.1,1.3,0.3,2c0.4,1.5,0.8,3,0.9,4.5c0.2,3-1.3,5.6-4,6.7c-2.5,1.1-5.6,0.5-7.6-1.4
		c-2-2-2.6-5.2-1.3-7.8c0.6-1.3,1.5-2.4,2.4-3.6c0.4-0.6,1.2-1,1.2-1.9c0.2,0.1,0.3,0,0.4-0.2c0,0-0.1-0.2-0.2-0.2
		c-0.2,0-0.3,0.1-0.3,0.3c-1.3-0.1-2.5,0.6-3.7,0.8c-1.3,0.2-2.5,0.6-3.8,0.4c-2.8-0.3-4.8-1.8-5.7-4.5c-0.9-2.8-0.4-5.4,1.9-7.5
		c2.1-1.9,4.5-2.2,7.1-1.2c2,0.8,3.5,2.3,5.2,3.6c0.2,0.2,0.5,0.4,0.6,0.3c0.3-0.2,0.1-0.6,0.1-0.9c-0.6-2-1.2-3.9-1.3-6
		c-0.1-2.7,1.1-4.8,3.4-6.1c2.6-1.5,5.8-1.2,8.1,0.8c2.2,2,2.8,5.2,1.6,7.9c-0.9,1.9-2.3,3.4-3.5,5c-0.2,0.2-0.6,0.5-0.2,0.8
		c0.1,0.1,0.5,0,0.7-0.1c2-0.6,4-1.3,6.2-1.3c3,0,5.3,1.5,6.4,4.2c1.1,2.7,0.4,5.8-1.8,7.7c-2.1,1.9-5,2.3-7.6,1
		c-1.3-0.6-2.4-1.6-3.6-2.4C539.3,332.6,538.9,331.8,538,331.8c-0.2-0.2,0.2-0.1-0.1-0.2c-0.1,0-0.2,0-0.2,0
		C537.7,331.8,537.8,331.9,538,331.8z M536,338.5c-0.2-2.2-1-4.3-1.7-6.4c-0.2-0.6-0.6-0.9-1.1-0.3c-1.5,1.6-3,3.3-4,5.2
		c-0.8,1.5-0.6,2.8,0.5,4c1,1.2,2.8,1.6,4.2,0.9C535.4,341.3,536.1,340.2,536,338.5z M546.4,333c1.9,0,3.6-1.6,3.7-3.5
		c0.1-2-1.7-3.8-3.7-3.7c-2.3,0.1-4.5,1-6.6,1.7c-0.7,0.2-0.6,0.7-0.1,1.1c1.6,1.4,3.2,2.8,5.1,3.9C545.3,332.8,545.8,333,546.4,333
		z M523,321.1c-2,0.1-3.6,1.7-3.5,3.7c0,2,1.5,3.6,3.5,3.5c2.2-0.1,4.3-0.9,6.4-1.6c1-0.3,1-0.8,0.3-1.4c-1.5-1.4-3.1-2.7-4.8-3.7
		C524.3,321.3,523.6,321,523,321.1z M537,311.7c-2,0-3.7,1.8-3.5,3.8c0.2,2.2,1,4.3,1.7,6.4c0.1,0.4,0.4,0.9,0.9,0.4
		c1.8-1.8,3.6-3.7,4.4-6.1C541.3,313.9,539.4,311.7,537,311.7z"/>
	<path class="st0" d="M369.4,389.2c0.1,1-0.2,1.9-0.7,2.8c-0.3,0.6-0.8,1.1-1.1,1.7c-0.4,0.6-1.4,1.2-1,1.8c0.4,0.5,1.4-0.3,2.1-0.3
		c0.8-0.1,1.7-0.4,2.5-0.4c4.5-0.2,7.5,4.3,5.7,8.4c-1.3,3.1-5,4.4-8.2,2.9c-1.2-0.5-2.1-1.4-3.2-2.1c-0.2-0.1-0.5-0.2-0.7-0.2
		c0,0.2-0.1,0.5-0.1,0.7c0.2,1.1,0.5,2.1,0.7,3.2c0.4,2.7-0.8,5.2-3.2,6.3c-2.3,1.1-5.1,0.7-6.9-1c-1.9-1.8-2.4-4.6-1.2-7
		c0.6-1.2,1.4-2.3,2.3-3.4c0.1-0.1,0.2-0.3,0.2-0.5c-0.1-0.3-0.4-0.3-0.6-0.2c-1.2,0.3-2.3,0.7-3.5,0.8c-3.4,0.5-6.4-1.8-6.8-5
		c-0.4-3.7,1.9-6.7,5.5-7c2-0.2,3.6,0.9,5.1,1.9c0.6,0.4,1.3,1.5,1.8,1.1c0.5-0.3-0.2-1.4-0.3-2.1c-0.1-0.8-0.4-1.7-0.4-2.5
		c-0.2-3.6,2.4-6.3,5.8-6.3C366.8,382.9,369.4,385.5,369.4,389.2z M351.7,399.6c1.7-0.2,3.3-0.7,4.9-1.3c0.7-0.3,0.7-0.6,0.3-1.1
		c-1.2-1.2-2.5-2.3-4.1-3c-1.1-0.5-2.1-0.3-3,0.6c-0.9,0.9-1.1,1.9-0.6,3C349.5,399,350.4,399.6,351.7,399.6z M360.7,389.6
		c0.3,1,0.7,2.6,1.2,4.1c0.3,0.8,0.7,0.8,1.3,0.2c1-1.2,2-2.3,2.7-3.7c0.7-1.2,0.5-2.3-0.4-3.2c-0.8-0.8-1.8-1.3-3-0.7
		C361.3,386.9,360.6,387.7,360.7,389.6z M362.3,408.6c-0.2-1.7-0.7-3.2-1.2-4.7c-0.3-0.9-0.8-0.7-1.3-0.2c-1,1.1-2,2.3-2.7,3.6
		c-0.7,1.2-0.5,2.3,0.4,3.2c0.8,0.8,1.8,1.2,3,0.7C361.7,410.7,362.3,409.8,362.3,408.6z M371.1,397.9c-1.6,0.3-3.2,0.7-4.8,1.3
		c-0.6,0.3-0.5,0.6-0.1,0.9c1.2,1.2,2.5,2.3,4,3c1.1,0.5,2.1,0.4,3-0.5c0.9-0.8,1.1-1.9,0.7-3C373.5,398.6,372.4,397.9,371.1,397.9z
		"/>
	<circle class="st0" cx="1125.9" cy="631.5" r="13.5"/>
	<circle class="st9" cx="1164.9" cy="631.5" r="13.5"/>
	<circle class="st2" cx="1204.6" cy="631.5" r="13.5"/>
	<circle class="st4" cx="1243.7" cy="631.5" r="13.5"/>
	<circle class="st7" cx="1125.9" cy="667.6" r="13.5"/>
	<circle class="st10" cx="1164.9" cy="667.6" r="13.5"/>
	<circle class="st11" cx="1204.6" cy="667.6" r="13.5"/>
	<circle class="st6" cx="1243.7" cy="667.6" r="13.5"/>
	<circle class="st5" cx="1164.9" cy="704.7" r="13.5"/>
	<circle class="st12" cx="1204.6" cy="704.7" r="13.5"/>
	<circle class="st13" cx="1243.7" cy="704.7" r="13.5"/>
	<circle class="st14" cx="1125.9" cy="703.5" r="13.5"/>
	<circle class="st1" cx="1125.9" cy="740.7" r="13.5"/>
</g>
</svg>
