<?xml version="1.0" encoding="utf-8"?>
<!-- Generator: Adobe Illustrator 19.0.0, SVG Export Plug-In . SVG Version: 6.00 Build 0)  -->
<svg version="1.1" id="Layer_1" xmlns="http://www.w3.org/2000/svg" xmlns:xlink="http://www.w3.org/1999/xlink" x="0px" y="0px"
	 viewBox="0 0 1400 980" style="enable-background:new 0 0 1400 980;" xml:space="preserve">
<style type="text/css">
	.st0{fill:#E8E8ED;}
	.st1{fill:#AF8D80;}
	.st2{fill:#F7CCC6;}
	.st3{fill:#F4C3B8;}
	.st4{fill:#FFFFFF;}
	.st5{fill:#DBB2A9;}
	.st6{fill:#EAC6C1;}
	.st7{opacity:0.8;fill:#F9DEDC;}
	.st8{fill:#E5B8B1;}
	.st9{fill:#E5E5E5;}
	.st10{fill:#EDEDED;}
	.st11{fill:#E5E5E4;}
	.st12{fill:#1E1E1E;}
	.st13{fill:#353535;}
	.st14{fill:#FF1D1D;}
	.st15{fill:#656772;}
	.st16{fill:#75563E;stroke:#6E707A;stroke-width:2;stroke-miterlimit:10;}
	.st17{fill:#59402E;}
	.st18{fill:#81A84F;}
	.st19{fill:#B7B7B7;}
	.st20{fill:#C9C9C9;}
	.st21{fill:#FF9166;}
	.st22{fill:#FFB69F;}
	.st23{fill:#513826;}
	.st24{fill:#C6C6C6;}
	.st25{fill:#B5ED91;}
	.st26{fill:#C0E0FF;}
	.st27{fill:#DFEBF2;}
	.st28{fill:#CCE0EA;}
	.st29{fill:#EA8C8C;}
	.st30{opacity:0.6;fill:#D37575;}
	.st31{fill:#F2A0A0;}
	.st32{fill:#A05A5A;}
	.st33{fill:#935555;}
	.st34{fill:#C16363;}
	.st35{fill:#E89595;}
	.st36{fill:#DD8383;}
</style>
<polygon class="st0" points="1331.5,723.8 676.2,997.7 68.5,726.3 722.7,452.4 "/>
<g>
	<polygon class="st1" points="1331.5,675.8 676.2,949.7 68.5,678.3 722.7,404.4 	"/>
	<polygon class="st2" points="1332,292.4 722,20.7 722,404.4 1332,676.1 	"/>
	<polygon class="st3" points="68,296.6 725,20.7 725,404.4 68,678.4 	"/>
	<polygon class="st4" points="725,391.8 68,665.8 68,678.4 725,404.4 	"/>
	<polygon class="st4" points="725,391.8 1332,663.5 1332,676.1 722,404.4 	"/>
	<g>
		<polygon class="st5" points="1331,675 676,948 676,968 1331,695 		"/>
		<polygon class="st6" points="69,677 676,948 676,968 69,697 		"/>
		<polygon class="st7" points="1350,688 1350,292 1331,292 1331,695 		"/>
		<polygon class="st7" points="50,690 50,295 69,295 69,697 		"/>
		<polygon class="st8" points="725,22 69,295 50,295 725,12 		"/>
		<polygon class="st8" points="725,22 1331,292 1350,292 725,12 		"/>
	</g>
</g>
<g>
	<polygon class="st4" points="636.5,493.9 283,634.5 283,588 636.6,447.7 	"/>
	<polygon class="st9" points="283,588 225,575.7 582.5,435.9 636.6,447.7 	"/>
	<polygon class="st10" points="225,622.9 283,635.1 283,588 225,575.7 	"/>
	<g>
		<polygon class="st11" points="289,593.1 289,624.2 459,557.2 459,525.9 		"/>
	</g>
	<g>
		<polygon class="st11" points="465,523.5 465,554.7 631,489.6 631,458.4 		"/>
	</g>
	<g>
		<polygon class="st4" points="365,570.4 365,575.8 394,564.1 394,558.7 		"/>
	</g>
	<g>
		<polygon class="st4" points="535,502.8 535,508.3 563,496.6 563,491.1 		"/>
	</g>
</g>
<g>
	<g>
		<g>
			<path class="st12" d="M517,359.7c0,17.5-0.7,2.4-1.7,2.8L287.9,451c-1,0.4-1.9-0.2-1.9-1.3V314.7c0-1.1,0.9-2.4,1.9-2.8
				l227.3-88.5c1-0.4,1.8,0.2,1.8,1.3V359.7z"/>
		</g>
		<g>
			<path class="st13" d="M287.3,461.4c-3,0-5.3-2.4-5.3-5.5V314.7c0-2.8,1.9-5.6,4.5-6.6l227.4-88.5c0.7-0.3,1.7-0.4,2.5-0.4
				c3,0,5.6,2.4,5.6,5.5v141.2c0,2.8-2.2,5.6-4.8,6.6L289.7,461C289,461.3,288.1,461.4,287.3,461.4z M291,315.4v130.3L514,359V228.7
				L291,315.4z"/>
		</g>
	</g>
	<circle class="st14" cx="420.4" cy="400.3" r="1.3"/>
	<circle class="st12" cx="410.4" cy="404.6" r="3.1"/>
</g>
<g>
	<path class="st15" d="M209.4,599h-59.3l6.1,55h0.1c0,0-0.1,0.8-0.1,1.1c0,6.5,9.4,11.9,23.5,11.9c14.1,0,23.5-5.4,23.5-11.9
		c0-0.3,0-1.1-0.1-1.1h0.1L209.4,599z"/>
	<path class="st16" d="M209.4,600c0,6.5-15.5,11.8-29.7,11.8c-14.1,0-29.7-5.3-29.7-11.8c0-6.5,15.5-11.8,29.7-11.8
		C193.9,588.2,209.4,593.5,209.4,600z"/>
	<polygon class="st17" points="180.8,599 176,599 176,540 178.7,540 	"/>
	<path class="st18" d="M206.9,527.6c0,18.5-12.7,25.3-28.4,25.3c-15.7,0-28.4-6.8-28.4-25.3c0-18.5,12.7-41.7,28.4-41.7
		C194.2,485.9,206.9,509.1,206.9,527.6z"/>
</g>
<g>
	<g>
		<polygon class="st19" points="525,717 518,714.6 518,652 525,652 		"/>
		<polygon class="st20" points="525,717 532,714.6 532,652 525,652 		"/>
	</g>
	<g>
		<polygon class="st19" points="451,688.6 444,686.3 444,645 451,645 		"/>
		<polygon class="st20" points="451,688.6 459,686.3 459,645 451,645 		"/>
	</g>
	<g>
		<polygon class="st19" points="770,620.1 763,617.8 763,577 770,577 		"/>
		<polygon class="st20" points="770,620.1 778,617.8 778,577 770,577 		"/>
	</g>
	<polygon class="st4" points="782.4,570.5 524.9,676.8 435.1,636.6 692.6,530.3 	"/>
	<polygon class="st11" points="525,688.6 435,648.5 435,636.6 525,676.8 	"/>
	<polygon class="st11" points="782,582.3 525,688.6 525,676.8 782,570.5 	"/>
</g>
<g>
	<path class="st15" d="M704.6,410h-59.3l6.1,55h0.1c0,0-0.1,0.8-0.1,1.1c0,6.5,9.4,11.9,23.5,11.9c14.1,0,23.5-5.4,23.5-11.9
		c0-0.3,0-1.1-0.1-1.1h0.1L704.6,410z"/>
	<path class="st16" d="M704.6,410.9c0,6.5-15.5,11.8-29.7,11.8c-14.1,0-29.7-5.3-29.7-11.8c0-6.5,15.5-11.8,29.7-11.8
		C689,399.1,704.6,404.4,704.6,410.9z"/>
	<polygon class="st17" points="675.9,410 672,410 672,351 673.9,351 	"/>
	<path class="st18" d="M702,338.6c0,18.5-12.7,25.3-28.4,25.3c-15.7,0-28.4-6.8-28.4-25.3c0-18.5,12.7-41.7,28.4-41.7
		C689.3,296.9,702,320.1,702,338.6z"/>
</g>
<g>
	<g>
		<path class="st21" d="M704.1,571c-3.5-4.2-18.4-4.2-21.9,0c-2,2.4-0.3,10.4,2.3,12.1c0,0,0,0,0,0c0.1,0.1,0,0.2,0,0.4
			c0,2.4,3.5,4.4,8.7,4.4c5.2,0,8.7-1.9,8.7-4.4c0-0.1-0.1-0.3,0-0.4c0,0,0,0,0,0C704.4,581.4,706,573.4,704.1,571z"/>
	</g>
	<g>
		<ellipse class="st22" cx="693.1" cy="572" rx="10.4" ry="3.4"/>
	</g>
	<g>
		<path class="st23" d="M703.5,572c0,0,0.4,3.4-10.4,3.4c-5.8,0-10.4-1.5-10.4-3.4C682.6,572,692.6,567.6,703.5,572z"/>
	</g>
	<g>
		<path class="st21" d="M705.4,581.6c-0.8,0-1.9-0.4-3.1-1.5l1-1.1c1.7,1.6,2.5,1.1,2.8,0.9c1.6-1.1,2.1-4.9,1.8-5.9
			c-0.5-0.2-2.7,1.2-4.5,2.9l-1-1.1c0.9-0.9,4.2-3.7,5.9-3.3c0.5,0.1,0.9,0.4,1,0.9c0.6,1.6-0.1,6.2-2.3,7.7
			C706.6,581.4,706,581.6,705.4,581.6z"/>
	</g>
</g>
<g>
	<path class="st24" d="M613.5,634.2c0,0,25.5-8.4,33.7-11.9c8.5-3.6,33-16.3,33-16.3h-56.7L613.5,634.2z"/>
	<path class="st11" d="M647.2,619.9c0,0-7.5-3.5-15.9,1.1c-4.7,2.6-17.2,13.1-17.2,13.1l-44.9-21.3c0,0,13.8-13.9,20.6-15.6
		c9-2.2,12.5,1.4,12.5,1.4L647.2,619.9z"/>
	<path class="st10" d="M680.3,605.8c0,0-18,1.5-26.4,6.1c-4.7,2.6-6.7,8.1-6.7,8.1l-44.9-21.3c0,0,0-5.3,5.9-8.9
		c8.9-5.3,27.2-5.3,27.2-5.3L680.3,605.8z"/>
	<path class="st25" d="M604.7,605.8c0,0-3.9,0-10.9,5c-3,2.2-5.6,6.9-5.6,6.9l-9.4-4.7c0,0,2-4.8,6.6-7.6c9-5.6,10-4.2,10-4.2
		L604.7,605.8z"/>
	<path class="st26" d="M668.5,603.4c0,0-8.7,0-15.6,5c-3,2.2-5.6,6.9-5.6,6.9l-9.4-4.7c0,0,2-4.8,6.6-7.6c9-5.6,14.7-4.2,14.7-4.2
		L668.5,603.4z"/>
</g>
<g>
	<g>
		<polygon class="st27" points="1209,508.3 1059.5,440.3 1069,266.9 1218.5,334.9 		"/>
		<polyline class="st28" points="1218.5,335.4 1209,508.3 1136.5,475.5 		"/>
		<polyline class="st28" points="1143.3,300.2 1133.8,473.3 1061.3,440.5 		"/>
		<path class="st4" d="M1212.7,513.8l-157.3-71.3l10-181.2l157.3,71.3L1212.7,513.8z M1062.6,438l143.6,64.9l9.1-165.6l-143.6-64.9
			L1062.6,438z"/>
	</g>
	<g>
		
			<rect x="1138.4" y="302" transform="matrix(0.9985 5.502931e-02 -5.502931e-02 0.9985 23.1101 -62.2514)" class="st4" width="7" height="173"/>
	</g>
	<path class="st4" d="M1166.4,394.4c-0.8,1.6-2.8,2.3-4.5,1.4l-18.3-9.3c-1.6-0.8-2.3-2.8-1.4-4.5l0.3-0.5c0.8-1.6,2.8-2.3,4.5-1.4
		l18.3,9.3c1.6,0.8,2.3,2.8,1.4,4.5L1166.4,394.4z"/>
	<g>
		<polygon class="st27" points="991,411.1 841.5,343.1 851,169.7 1000.5,237.7 		"/>
		<polyline class="st28" points="1000.5,238.2 991,411.1 918.5,378.4 		"/>
		<polyline class="st28" points="925.3,203 915.8,376.2 843.3,343.3 		"/>
		<path class="st4" d="M994.7,416.6l-157.3-71.3l10-181.1l157.3,71.3L994.7,416.6z M844.6,340.8l143.6,64.9l9.1-165.6l-143.6-64.9
			L844.6,340.8z"/>
	</g>
	<g>
		
			<rect x="920.5" y="204.9" transform="matrix(0.9985 5.502931e-02 -5.502931e-02 0.9985 17.4339 -50.4031)" class="st4" width="7" height="173"/>
	</g>
	<path class="st4" d="M945.4,307.3c-0.8,1.6-2.8,2.3-4.5,1.4l-18.3-9.3c-1.6-0.8-2.3-2.8-1.4-4.5l0.3-0.5c0.8-1.6,2.8-2.3,4.5-1.4
		l18.3,9.3c1.6,0.8,2.3,2.8,1.4,4.5L945.4,307.3z"/>
</g>
<g>
	<path class="st29" d="M788,407c5.8,4.5,12-1.2,11.8,1.5s-2,8.2,3.5,9.2s12-3.5,12,2.2s6.8,8,9,8s6.8-4.2,12,4s7.4,3.9,7.4,3.9
		c18.7-27.1-20.7-139-20.7-139c48-46.1,61.3-139.9,61.3-139.9L799,117L788,407z"/>
	<polygon class="st4" points="1287,337.1 788,112.7 788,104.9 1287,329.3 	"/>
	<g>
		<path class="st30" d="M802.2,299.6c0,0-18.2,94.7-5.6,101.4c12.5,6.6,5.3-104.4,5.3-104.4"/>
		<path class="st30" d="M810.1,305.8c0,0-5.1,96.3,8.2,101.2c13.3,4.9-8.9-104.2-8.9-104.2"/>
		<path class="st30" d="M820.6,306.6c0,0,3.4,105.5,18.2,109.7c14.8,4.2-19.4-112.8-19.4-112.8"/>
	</g>
	<g>
		<path class="st30" d="M821.4,291.7c0,0,48.7-75.9,37.7-86.9c-11-10.9-38.3,90.1-38.3,90.1"/>
		<path class="st30" d="M812.7,291c0,0,35.9-99,23.6-108.4c-12.3-9.3-23.7,111.7-23.7,111.7"/>
		<path class="st30" d="M801.3,297.2c0,0,27.6-124.8,14.5-132.9c-13.1-8.2-14.4,136.3-14.4,136.3"/>
	</g>
	<path class="st4" d="M825.2,295l0.5,7.8c0,0-20.5,6-33.6-3.9l0.3-8.4C792.4,290.4,805.8,297,825.2,295z"/>
	<circle class="st4" cx="788" cy="108.7" r="7"/>
</g>
<g>
	<path class="st29" d="M1254,620l14.3-290l-85.3-40c0,0,7.6,126.8,44.3,179.9c0,0-36.1,44.1-55.3,110.1c0,0,1,5.9,12.8,3.9
		s9.2,3.3,11.2,7.1s7.8,10.5,18,7.2s10.4,4.5,13.3,9s12.7,8.5,16.4,5S1254.2,618.9,1254,620z"/>
	<g>
		<path class="st30" d="M1248.1,476c0,0,6.8,105.1-7.6,110.6c-14.4,5.5,8.4-113.8,8.4-113.8"/>
		<path class="st30" d="M1239.9,473c0,0-7.5,105-22.5,108.5c-15.1,3.5,23.7-111.6,23.7-111.6"/>
		<path class="st30" d="M1231.9,462.8c0,0-16.8,103.9-32.1,106.1c-15.3,2.1,33.6-109,33.6-109"/>
	</g>
	<g>
		<path class="st30" d="M1231.6,467.2c0,0-37-98.5-24.8-108c12.2-9.5,25,111.3,25,111.3"/>
		<path class="st30" d="M1240.3,467.6c0,0-23.3-102.7-9.9-110.4c13.4-7.7,9.7,113.7,9.7,113.7"/>
		<path class="st30" d="M1250.9,475.1c0,0-12.1-116.3,1.9-122.8s-2.5,126.1-2.5,126.1"/>
	</g>
	<path class="st4" d="M1261.4,471.4c0,0-8.4,5.9-38.7-8.9l2,10.9c0,0,18.6,13,36.1,9.6L1261.4,471.4z"/>
	<circle class="st4" cx="1284" cy="332.7" r="7"/>
</g>
<g>
	<path class="st31" d="M550,738.8L724,670l9.4,55c0,0-77.1,121.7-188,25.8"/>
	<polygon class="st32" points="665.3,834.1 541,769.9 541,750.8 670.1,808.9 	"/>
	<polygon class="st33" points="956.4,706.2 665.3,833.9 680.9,728.6 972.1,601 	"/>
	<polygon class="st34" points="973.5,686.9 665.3,822.1 681.9,710.6 990.1,575.5 	"/>
	<polygon class="st34" points="973.5,686.9 665.3,822.1 681.9,710.6 990.1,575.5 	"/>
	<path class="st35" d="M990.1,575.5c0,0-14.2-18.2-52.2-4.7c-22.4,7.9-113.5,43.6-189.2,79.3c-33.9,16-67.1,28.8-87.3,46.3
		c-11,9.6-16.5,20.5-19.9,34.1"/>
	<path class="st36" d="M538.5,756.3c0,0-2.8-61.5,96.8,9.6c0,0,3.2-89.3,47.4-55.3l-15,111.4L538.5,756.3z"/>
</g>
</svg>
