<svg width="624" height="377" viewBox="0 0 624 377" fill="none" xmlns="http://www.w3.org/2000/svg">
<g clip-path="url(#clip0)">
<path opacity="0.1" d="M620.096 259.562C613.843 274.04 600.759 287.116 586.714 299.5C574.368 310.389 561.161 320.911 547.094 331.066C543.196 333.885 539.236 336.669 535.213 339.418L532.418 341.315C529.94 343.003 527.42 344.675 524.858 346.331L524.55 346.532C522.065 348.16 519.558 349.772 517.028 351.368C508.754 356.601 500.008 361.797 490.339 366.1C487.045 367.569 483.646 368.938 480.127 370.164C478.223 370.83 476.28 371.454 474.296 372.035C471.045 372.987 467.707 373.817 464.221 374.498C463.639 374.615 463.051 374.726 462.464 374.831C458.895 375.476 455.282 375.947 451.631 376.269C438.25 377.448 424.431 376.586 411.028 374.567C404.33 373.558 397.736 372.257 391.356 370.777C390.571 370.598 389.791 370.413 389.006 370.249C367.28 365.016 346.883 357.912 325.003 352.917C317.463 351.194 309.776 349.732 301.943 348.53C298.121 347.945 294.278 347.417 290.413 346.944C281.315 345.856 272.102 345.126 262.85 344.756C250.376 344.228 237.495 344.455 225.625 346.553C224.043 346.832 222.482 347.145 220.941 347.494C218.987 347.935 217.069 348.437 215.187 349.001C210.115 350.578 205.179 352.535 200.423 354.852C199.484 355.296 198.556 355.745 197.629 356.2C194.719 357.627 191.847 359.086 188.932 360.502C183.685 363.146 178.224 365.377 172.603 367.173C169.524 368.109 166.393 368.878 163.225 369.477C154.841 371.095 145.919 371.734 136.958 371.776C132.637 371.776 128.311 371.686 124.034 371.47H123.902C122.441 371.396 120.976 371.311 119.51 371.206C112.833 370.767 106.179 370.09 99.6229 369.165C77.1612 365.994 55.858 360 38.7221 350.856C15.4478 338.445 0.667358 319.94 2.88553 301.451C4.47778 288.131 14.3662 275.763 23.7495 263.653C41.2038 241.105 57.5546 218.043 66.1582 193.735C73.1367 174.003 75.2176 153.141 91.2773 135.408C96.4219 129.731 103 124.551 110.659 120.011C116.384 116.636 122.385 113.716 128.602 111.279C135.628 108.508 142.857 106.238 150.229 104.487C156.618 102.961 163.093 101.789 169.621 100.977C173.168 100.533 176.759 100.189 180.372 99.9568C183.154 99.77 185.948 99.652 188.756 99.6026H189.19C190.906 99.5709 192.623 99.5709 194.34 99.6026C206.857 99.7892 219.341 100.919 231.675 102.98C239.395 104.222 247.049 105.745 254.543 107.42C259.016 108.417 263.449 109.462 267.841 110.555C269.181 110.887 270.521 111.226 271.844 111.569C303.096 119.63 330.592 130.762 360.702 139.895C360.856 139.943 361.004 139.99 361.158 140.027C367.338 141.857 373.613 143.374 379.958 144.573C384.619 145.471 389.385 146.248 394.233 146.93C401.656 147.987 409.238 148.823 416.876 149.541L418.561 149.7C429.768 150.757 441.073 151.545 452.054 152.464C455.952 152.792 459.817 153.13 463.628 153.522C466.043 153.754 468.437 154.001 470.809 154.262C472.511 154.452 474.219 154.642 475.926 154.843C477.634 155.044 479.44 155.255 481.197 155.472C482.339 155.609 483.476 155.752 484.618 155.905C491.536 156.788 498.437 157.776 505.262 158.908C509.413 159.595 513.542 160.335 517.621 161.133C520.575 161.711 523.503 162.32 526.406 162.962C528.558 163.43 530.692 163.924 532.808 164.442C549.999 168.601 566.086 174.056 579.95 181.419C615.951 200.495 632.06 231.876 620.096 259.562Z" fill="#4F8A8B"/>
<path opacity="0.1" d="M137.452 47.7822C144.011 47.7822 149.328 42.6635 149.328 36.3494C149.328 30.0352 144.011 24.9165 137.452 24.9165C130.893 24.9165 125.576 30.0352 125.576 36.3494C125.576 42.6635 130.893 47.7822 137.452 47.7822Z" fill="#4F8A8B"/>
<path opacity="0.1" d="M380.194 22.8657C386.753 22.8657 392.07 17.747 392.07 11.4328C392.07 5.11866 386.753 0 380.194 0C373.635 0 368.318 5.11866 368.318 11.4328C368.318 17.747 373.635 22.8657 380.194 22.8657Z" fill="#4F8A8B"/>
<path opacity="0.1" d="M524.128 48.4693C530.686 48.4693 536.004 43.3507 536.004 37.0365C536.004 30.7223 530.686 25.6036 524.128 25.6036C517.569 25.6036 512.251 30.7223 512.251 37.0365C512.251 43.3507 517.569 48.4693 524.128 48.4693Z" fill="#4F8A8B"/>
<path opacity="0.1" d="M20.6473 83.1696C31.6394 83.1696 40.5504 74.5912 40.5504 64.0092C40.5504 53.4271 31.6394 44.8487 20.6473 44.8487C9.65507 44.8487 0.744141 53.4271 0.744141 64.0092C0.744141 74.5912 9.65507 83.1696 20.6473 83.1696Z" fill="#4F8A8B"/>
<path opacity="0.1" d="M39.7268 177.783C50.719 177.783 59.63 169.204 59.63 158.622C59.63 148.04 50.719 139.462 39.7268 139.462C28.7347 139.462 19.8237 148.04 19.8237 158.622C19.8237 169.204 28.7347 177.783 39.7268 177.783Z" fill="#4F8A8B"/>
<path opacity="0.1" d="M573.91 142.956C584.902 142.956 593.813 134.377 593.813 123.795C593.813 113.213 584.902 104.635 573.91 104.635C562.918 104.635 554.007 113.213 554.007 123.795C554.007 134.377 562.918 142.956 573.91 142.956Z" fill="#4F8A8B"/>
<path d="M195.301 126.512C195.399 128.121 195.302 129.735 195.01 131.322C193.911 136.232 189.266 139.604 184.77 142.163C180.273 144.721 175.332 147.142 172.658 151.46C169.435 156.677 170.461 163.691 174.244 168.564C178.027 173.438 184.023 176.34 190.194 177.55C201.45 179.786 213.776 176.646 222.215 169.141C230.654 161.635 234.887 149.906 232.817 139.012C228.238 139.631 224.159 135.741 222.676 131.523C221.194 127.305 221.501 122.733 220.925 118.309C220.883 117.561 220.649 116.834 220.244 116.194C219.602 115.338 218.465 114.989 217.405 114.709C212.113 113.308 203.207 110.243 197.722 111.416C192.78 112.505 195.218 122.516 195.301 126.512Z" fill="#BE6F72"/>
<path opacity="0.1" d="M195.301 126.512C195.399 128.121 195.302 129.735 195.01 131.322C193.911 136.232 189.266 139.604 184.77 142.163C180.273 144.721 175.332 147.142 172.658 151.46C169.435 156.677 170.461 163.691 174.244 168.564C178.027 173.438 184.023 176.34 190.194 177.55C201.45 179.786 213.776 176.646 222.215 169.141C230.654 161.635 234.887 149.906 232.817 139.012C228.238 139.631 224.159 135.741 222.676 131.523C221.194 127.305 221.501 122.733 220.925 118.309C220.883 117.561 220.649 116.834 220.244 116.194C219.602 115.338 218.465 114.989 217.405 114.709C212.113 113.308 203.207 110.243 197.722 111.416C192.78 112.505 195.218 122.516 195.301 126.512Z" fill="black"/>
<path d="M188.904 360.513C183.657 363.157 178.196 365.387 172.575 367.183C169.497 368.119 166.366 368.889 163.198 369.488C162.973 365.423 163.203 361.348 163.884 357.331C164.312 355.021 164.943 352.732 165.108 350.391C165.341 347.011 164.59 343.635 162.939 340.644C169.056 339.841 174.865 338.53 181.009 338.916L181.399 338.942C182.129 338.96 182.852 339.09 183.54 339.328C184.485 339.768 185.288 340.448 185.862 341.294C186.179 341.709 186.47 342.142 186.735 342.589C188.47 345.475 189.129 348.805 189.266 352.235C189.331 354.999 189.21 357.764 188.904 360.513Z" fill="#BE6F72"/>
<path d="M220.919 347.499C218.965 347.94 217.047 348.442 215.165 349.006C210.093 350.584 205.157 352.54 200.401 354.857C200.092 353.417 199.941 351.951 199.951 350.481C202.753 348.62 205.916 347.321 209.25 346.661C212.584 346.001 216.023 345.993 219.36 346.638C219.806 346.69 220.23 346.854 220.59 347.114C220.72 347.225 220.831 347.355 220.919 347.499Z" fill="#BE6F72"/>
<path d="M230.357 320.818C229.984 324.274 229.435 327.742 228.161 330.992C226.783 334.481 224.543 337.864 224.828 341.59C224.955 343.207 225.526 344.962 225.608 346.564C224.027 346.842 222.466 347.156 220.925 347.505C218.97 347.945 217.052 348.447 215.171 349.011C210.099 350.589 205.162 352.545 200.407 354.862C199.468 355.306 198.54 355.756 197.612 356.21C197.228 356.163 196.849 356.104 196.464 356.036C193.719 355.555 190.831 354.371 189.277 352.257C188.922 351.77 188.642 351.236 188.448 350.671C187.553 348.097 188.487 344.888 186.625 342.848L186.538 342.922L186.472 342.964C185.452 343.853 184.332 344.63 183.133 345.279C180.404 346.766 177.381 347.684 174.26 347.974C171.138 348.263 167.989 347.918 165.015 346.96C163.837 346.574 162.699 346.082 161.616 345.491C159.102 344.111 156.675 341.791 156.872 339.021C156.982 337.478 157.899 335.998 157.652 334.47C157.471 333.376 156.724 332.467 156.164 331.5C152.491 325.157 156.872 317.001 154.566 310.109C154.511 309.945 154.451 309.781 154.391 309.623C154.22 309.173 154.028 308.74 153.842 308.306C153.369 307.297 152.842 306.303 152.425 305.267C152.078 304.396 151.802 303.5 151.601 302.587C151.083 299.937 150.899 297.236 151.052 294.543C151.052 287.444 152.37 280.176 154.248 273.337C154.583 272.121 154.956 270.403 155.45 268.532C155.932 266.56 156.582 264.629 157.394 262.76C158.492 260.329 159.985 258.389 162.028 257.929C165.103 257.236 169.803 258.701 172.921 259.06L185.247 260.477L209.894 263.315C214.149 263.807 218.619 264.372 222.127 266.677C222.358 266.83 222.583 266.989 222.808 267.158C223.735 267.86 224.565 268.674 225.279 269.578C225.531 269.89 225.773 270.218 226.003 270.551C226.803 271.729 227.483 272.979 228.035 274.283C231.093 281.355 231.165 289.246 231.186 296.905C231.186 304.897 231.214 312.884 230.357 320.818Z" fill="#3F3D56"/>
<path opacity="0.1" d="M183.106 345.311C182.365 342.563 180.8 338.583 180.57 337.499C179.796 333.864 179.235 330.19 178.889 326.494C178.28 319.908 177.182 310.637 179.598 304.374C181.865 305.537 183.858 308.83 184.907 311.076C188.706 319.221 184.429 329.222 187.998 337.462C188.265 337.956 188.431 338.494 188.487 339.048C188.425 339.751 188.163 340.424 187.729 340.993L186.527 342.917L183.106 345.311Z" fill="black"/>
<path d="M262.18 93.8519C266.221 87.5091 271.756 81.2721 271.41 73.8563C271.284 71.2135 270.383 68.6288 269.697 66.0388C267.73 58.543 267.601 50.7096 269.318 43.1573C276.108 42.1072 283.057 43.6056 288.733 47.3435C290.528 48.5381 292.23 50.0233 293.021 51.9843C293.751 53.792 293.63 55.8058 293.498 57.7404C293.196 62.1856 292.785 66.9268 289.94 70.4259C289.057 71.5201 287.969 72.445 287.107 73.5497C285.85 75.1354 285.114 77.07 284.395 78.957L275.061 103.403C270.35 115.724 265.244 128.61 254.867 137.136C254.615 137.342 247.18 127.178 246.565 126.158C244.078 121.977 245.165 120.211 248.174 116.712C254.109 109.793 257.332 101.447 262.18 93.8519Z" fill="#BE6F72"/>
<path d="M155.214 302.217C155.183 304.042 155.023 305.863 154.737 307.667C154.638 308.333 154.523 308.993 154.385 309.654C152.513 319.063 147.852 328.011 144.59 337.177C140.291 349.275 138.402 359.773 136.903 371.787C132.582 371.787 128.256 371.697 123.979 371.48H123.847C122.387 371.406 120.921 371.322 119.455 371.216C120.778 360.011 118.356 348.255 120.723 337.039C121.678 332.525 123.309 328.143 124.292 323.651C124.595 322.328 124.824 320.99 124.978 319.644C125.115 318.365 125.187 317.038 125.785 315.886C125.84 315.775 125.902 315.667 125.972 315.564C126.498 314.766 127.15 314.053 127.904 313.449C134.594 307.802 142.777 304.046 151.547 302.598C152.793 302.434 154.006 302.297 155.214 302.217Z" fill="#FBBEBE"/>
<path opacity="0.1" d="M155.214 302.217C155.183 304.042 155.023 305.863 154.737 307.667C154.638 308.333 154.523 308.993 154.385 309.654C152.513 319.063 147.852 328.011 144.59 337.177C140.291 349.275 138.402 359.773 136.903 371.787C132.582 371.787 128.256 371.697 123.979 371.48H123.847C122.387 371.406 120.921 371.322 119.455 371.216C120.778 360.011 118.356 348.255 120.723 337.039C121.678 332.525 123.309 328.143 124.292 323.651C124.595 322.328 124.824 320.99 124.978 319.644C125.115 318.365 125.187 317.038 125.785 315.886C125.84 315.775 125.902 315.667 125.972 315.564C126.498 314.766 127.15 314.053 127.904 313.449C134.594 307.802 142.777 304.046 151.547 302.598C152.793 302.434 154.006 302.297 155.214 302.217Z" fill="black"/>
<path d="M127.377 326.304C127.289 329.241 127.038 332.172 126.625 335.083C125.159 346.981 124.885 359.397 123.88 371.475C122.42 371.401 120.954 371.316 119.488 371.211C112.811 370.772 106.157 370.095 99.601 369.17C100.106 366.45 100.615 363.73 101.127 361.009C101.753 357.674 102.379 354.307 102.198 350.924C102.028 347.727 101.138 344.613 100.43 341.479C98.9201 334.766 98.0746 327.525 95.5874 321.193C94.2902 317.641 92.2199 314.397 89.5149 311.679C99.8041 307.788 109.693 307.566 120.745 307.979C121.53 307.937 122.309 308.121 122.985 308.507C123.509 308.944 123.898 309.511 124.111 310.146C125.771 313.992 126.814 318.059 127.202 322.208C127.334 323.569 127.392 324.936 127.377 326.304Z" fill="#FBBEBE"/>
<path d="M210.257 123.784C222.083 123.784 231.67 114.555 231.67 103.17C231.67 91.7857 222.083 82.5565 210.257 82.5565C198.43 82.5565 188.844 91.7857 188.844 103.17C188.844 114.555 198.43 123.784 210.257 123.784Z" fill="#BE6F72"/>
<path d="M214.709 151.349C217.455 146.84 219.86 141.211 225.141 139.959C228.123 139.245 231.225 140.218 234.129 141.174C234.971 141.366 235.735 141.793 236.326 142.401C236.755 143.056 236.985 143.814 236.99 144.589C237.91 153.907 237.878 163.29 236.897 172.603C236.199 179.194 235.024 185.753 234.816 192.376C234.525 201.557 236.095 210.739 235.579 219.909C235.189 226.86 233.608 233.689 232.038 240.481L225.449 268.918C225.331 269.798 224.964 270.63 224.389 271.323C223.834 271.813 223.169 272.175 222.446 272.38C212.909 275.625 202.771 276.909 192.687 276.149C182.603 275.389 172.796 272.601 163.9 267.966C161.523 266.708 159.151 265.255 157.603 263.109C155.406 260.064 155.203 256.037 155.917 252.39C156.631 248.742 158.174 245.301 159.211 241.723C160.815 236.173 161.193 230.38 161.556 224.629C162.039 217.06 162.522 209.444 161.682 201.901C161.106 196.705 159.903 191.589 158.997 186.435C157.663 178.668 156.889 170.821 156.68 162.951C156.543 158.252 156.768 153.035 160.145 149.647C161.792 147.998 163.988 147.004 166.223 146.201C169.973 144.869 174.162 144.087 177.95 145.302C181.739 146.518 184.792 150.345 183.897 154.092C183.485 155.831 182.315 157.354 182.03 159.119C181.651 161.455 182.936 163.807 184.775 165.388C194.669 173.993 209.773 159.51 214.709 151.349Z" fill="#E3E8F4"/>
<path d="M215.495 130.286C218.499 129.22 221.765 129.036 224.878 129.757C226.86 130.212 229.001 131.015 230.83 130.164C231.494 129.858 232.043 129.356 232.713 129.07C234.525 128.304 236.875 129.245 238.478 128.129C239.488 127.426 239.818 126.147 240.158 124.984C241.807 119.434 245.186 114.504 249.838 110.861C249.261 114.915 248.844 119.53 251.628 122.627C252.896 124.033 254.675 124.916 256.476 125.603C259.062 126.591 261.901 127.247 264.629 126.708C267.358 126.168 269.911 124.181 270.345 121.533C270.252 125.513 266.315 128.293 265.211 132.136C264.794 133.574 264.832 135.101 264.541 136.571C263.8 140.323 261.017 143.336 258.584 146.36C250.816 156.084 245.853 167.611 244.199 179.775C244.087 181.219 243.773 182.641 243.266 184.004C242.728 185.049 242.119 186.059 241.443 187.027C237.418 193.571 238.659 201.827 240.026 209.301C242.162 221.009 244.292 232.479 247.751 243.89C248.344 245.841 249.014 247.876 250.524 249.298C250.047 253.912 245.209 256.016 240.861 258.008C236.567 259.979 232.606 262.561 229.111 265.667C227.859 266.777 226.624 268.025 226.168 269.605C225.74 271.09 226.047 272.723 225.498 274.166C224.949 275.609 222.753 276.645 221.787 275.43C220.579 271.08 222.643 266.529 222.55 262.025C222.484 258.986 221.452 256.031 221.304 252.992C221.161 249.551 222.215 246.174 223.335 242.907C226.454 233.811 230.22 224.799 231.302 215.279C232.384 205.76 230.363 195.363 223.346 188.571C215.017 180.473 210.394 169.495 201.466 162.058C200.05 160.879 198.447 159.415 198.683 157.629C198.846 156.842 199.206 156.105 199.731 155.483C202.795 151.317 206.869 147.919 210.163 143.933C213.458 139.948 216.093 135.36 215.495 130.286Z" fill="#3F3D56"/>
<path d="M186.181 138.812C185.632 139.34 185.253 140.07 184.616 140.524C183.872 140.966 183.024 141.219 182.151 141.259C178.92 141.731 175.661 142.012 172.394 142.099C169.649 142.099 166.799 141.867 164.158 142.591C160.474 143.595 157.531 146.396 155.686 149.621C153.842 152.845 152.969 156.492 152.26 160.123C150.699 168.124 149.863 176.239 149.762 184.379C154.288 180.905 158.321 176.875 161.759 172.391C164.394 168.95 166.783 165.145 170.544 162.845C172.273 161.788 174.217 161.091 175.957 160.06C179.587 157.909 182.101 154.431 184.517 151.074C186.296 148.585 191.441 143.722 191.847 140.741C192.193 137.892 188.102 136.502 186.181 138.812Z" fill="#3F3D56"/>
<path d="M205.31 89.0578C205.988 89.4499 206.637 89.8861 207.253 90.3634C210.981 92.8688 215.972 92.4036 220.48 91.8328C221.864 91.6636 223.286 91.4734 224.472 90.7757C226.377 89.6445 227.272 87.3189 227.085 85.1676C226.898 83.0163 225.773 81.0342 224.4 79.3534C222.582 77.1291 220.313 75.2833 217.732 73.9277C215.151 72.5722 212.311 71.7351 209.384 71.4672C207.868 71.276 206.327 71.4336 204.887 71.9271C203.113 72.6301 201.779 74.0783 200.143 75.0456C195.317 77.8998 187.883 76.6313 184.77 81.1875C182.491 84.5492 184.116 89.116 183.04 92.9798C182.239 95.8657 179.927 98.4927 180.372 101.437C180.619 103.022 181.651 104.407 182.475 105.824C184.366 109.08 185.241 112.793 184.995 116.517C187.109 117.954 190.057 115.719 190.644 113.298C191.232 110.877 190.557 108.298 191.056 105.856C191.94 101.569 195.871 98.424 197.645 94.4915C198.919 91.6742 200.994 86.9171 205.31 89.0578Z" fill="#3F3D56"/>
<path d="M153.391 135.979C153.227 136.941 153.122 138.003 153.677 138.817C154.775 140.403 157.29 139.832 159.266 140.07C162.346 140.434 164.619 143.241 165.218 146.19C165.816 149.14 165.103 152.142 164.323 155.039C162.559 161.603 160.458 168.075 158.02 174.453C151.464 173.707 144.563 171.281 141.082 165.895C137.919 160.996 138.243 154.753 136.233 149.32C134.822 145.493 132.291 142.163 129.788 138.896C133.812 139.382 136.689 134.953 136.925 131.052C137.161 127.152 135.888 123.193 136.755 119.382C136.958 118.478 152.82 121.327 154.363 122.357C158.821 125.333 154.094 131.845 153.391 135.979Z" fill="#FBBEBE"/>
<path opacity="0.1" d="M153.391 135.979C153.227 136.941 153.122 138.003 153.677 138.817C154.775 140.403 157.29 139.832 159.266 140.07C162.346 140.434 164.619 143.241 165.218 146.19C165.816 149.14 165.103 152.142 164.323 155.039C162.559 161.603 160.458 168.075 158.02 174.453C151.464 173.707 144.563 171.281 141.082 165.895C137.919 160.996 138.243 154.753 136.233 149.32C134.822 145.493 132.291 142.163 129.788 138.896C133.812 139.382 136.689 134.953 136.925 131.052C137.161 127.152 135.888 123.193 136.755 119.382C136.958 118.478 152.82 121.327 154.363 122.357C158.821 125.333 154.094 131.845 153.391 135.979Z" fill="black"/>
<path d="M149.861 129.599C161.687 129.599 171.274 120.37 171.274 108.985C171.274 97.5999 161.687 88.3707 149.861 88.3707C138.035 88.3707 128.448 97.5999 128.448 108.985C128.448 120.37 138.035 129.599 149.861 129.599Z" fill="#FBBEBE"/>
<path d="M143.267 133.018C144.047 131.845 142.718 130.207 143.327 128.943C143.69 128.182 144.607 127.854 145.315 127.358C146.203 126.662 146.912 125.777 147.385 124.773C150.719 118.606 151.728 111.517 150.24 104.714C149.735 102.43 149.285 99.3965 151.453 98.3711C152.055 98.1128 152.713 98.0038 153.37 98.054C157.279 98.1755 161.056 100.697 164.85 99.8035C166.145 99.4645 167.302 98.753 168.165 97.764C169.029 96.775 169.558 95.5558 169.682 94.2694C169.929 90.8549 167.272 87.9267 164.658 85.6274C159.953 81.4623 152.782 80.5373 146.391 80.4369L134.504 80.2466C130.699 80.1832 126.433 80.2995 123.787 82.9264C119.976 86.7057 121.892 92.8899 121.343 98.128C120.877 102.309 118.704 106.14 115.304 108.779C112.839 110.671 109.445 112.478 109.489 115.502C109.489 116.559 109.962 117.521 110.264 118.52C111.477 122.474 110.318 126.845 107.99 130.307C105.662 133.769 102.258 136.433 98.728 138.764C96.8392 140.006 94.8846 141.201 93.3912 142.887C91.7539 144.834 90.7817 147.221 90.6075 149.721C90.3725 151.631 90.7805 153.564 91.7715 155.234C94.094 158.807 99.6668 159.33 103.483 157.258C107.299 155.186 109.627 151.265 111.169 147.321C112.092 144.98 113.031 142.3 115.392 141.248C118.379 139.911 121.87 142.025 123.814 144.589C125.758 147.152 126.955 150.281 129.442 152.364C133.34 155.63 139.973 155.102 143.267 151.265C145.622 148.511 146.144 144.7 146.012 141.132C145.947 138.226 144.992 135.404 143.267 133.018Z" fill="#3F3D56"/>
<path d="M150.954 159.885C148.51 160.388 145.957 159.278 144.14 157.618C142.323 155.958 141.098 153.818 139.824 151.746C136.595 146.519 132.893 141.577 128.761 136.977C125.159 132.976 120.146 128.912 114.799 130.148C113.008 130.646 111.347 131.501 109.923 132.659C105.208 136.253 101.517 140.94 99.1961 146.282C96.8752 151.623 96 157.444 96.6525 163.2C97.0698 166.566 98.0196 169.859 98.415 173.242C98.6812 176.031 98.7583 178.833 98.6456 181.631C98.4973 190.151 98.1953 199.163 93.4241 206.341C86.0284 217.441 82.0697 230.697 76.6396 242.812C73.7076 249.361 71.9507 256.333 70.2267 263.267C69.2054 267.383 68.186 271.497 67.1684 275.609L60.5249 302.513C59.8386 305.288 59.1523 308.195 59.877 310.97C60.9751 315.114 65.0216 318.011 69.2878 319.19C73.5539 320.368 78.0726 320.167 82.5034 320.204C90.9808 320.284 99.524 321.298 107.48 324.132C109.753 324.94 112.02 325.908 114.442 326.098C116.863 326.288 119.273 325.68 121.541 324.835C127.729 322.53 133.033 318.492 138.732 315.231C142.292 313.165 146.041 311.419 149.932 310.014C151.887 309.311 153.984 308.645 155.33 307.107C156.345 305.949 156.801 304.437 157.136 302.957C158.992 294.627 157.745 285.996 157.136 277.496C156.527 268.997 151.25 260.017 155.615 252.606C156.494 251.11 157.542 249.673 157.993 248.013C158.586 245.846 158.086 243.515 158.586 241.327C158.953 239.709 159.837 238.256 160.441 236.707C161.495 233.98 161.638 231.009 161.627 228.097C161.602 221.702 160.903 215.327 159.541 209.068C157.811 201.14 163.532 193.301 166.81 185.812C167.985 183.132 169.649 180.6 170.138 177.73C170.577 175.14 170.011 172.502 169.589 169.907C168.958 165.885 168.7 161.816 168.82 157.75C168.924 154.103 169.325 150.387 168.419 146.84C167.513 143.294 164.927 139.853 161.21 139.123C160.793 139.006 160.355 138.978 159.925 139.043C159.496 139.108 159.088 139.264 158.728 139.499C158.299 139.904 157.997 140.416 157.855 140.979C156.647 144.541 156.883 148.379 156.208 152.079C155.533 155.778 154.742 159.103 150.954 159.885Z" fill="#F86D70"/>
<path d="M99.1397 182.587C99.3648 181.123 98.6565 179.178 97.1192 179.231C95.7026 179.284 95.0712 180.991 95.0767 182.36C95.0822 183.729 95.2743 185.299 94.2696 186.261C93.3801 187.112 91.9087 187.085 90.8764 187.778C90.5122 188.028 90.2157 188.359 90.0122 188.742C89.8086 189.126 89.704 189.551 89.707 189.982C89.707 190.717 90.0529 191.42 90.0748 192.154C90.0968 192.889 89.5862 193.74 88.8285 193.693C88.4393 194.321 88.2773 195.056 88.3677 195.783C88.4581 196.51 88.7958 197.187 89.3281 197.71C89.7234 198.08 90.2395 198.397 90.3713 198.915C90.4131 199.278 90.3833 199.646 90.2835 199.998C90.0529 201.452 91.0961 203.08 92.6169 203.238C91.7659 203.825 91.9361 205.199 92.7158 205.881C93.4954 206.563 94.6155 206.695 95.6642 206.695C98.0443 206.682 100.398 206.214 102.588 205.316C103.338 205.077 104.001 204.637 104.498 204.047C104.729 203.743 104.84 203.369 104.811 202.993C104.782 202.618 104.615 202.264 104.339 201.996C105.404 202.165 106.684 202.261 107.381 201.468C108.353 200.358 107.31 198.714 106.283 197.641C106.709 197.58 107.106 197.4 107.427 197.123C107.747 196.846 107.976 196.485 108.085 196.084C108.194 195.683 108.178 195.26 108.039 194.868C107.9 194.475 107.645 194.131 107.304 193.877C106.953 193.629 106.475 193.412 106.426 192.995C106.376 192.577 106.744 192.308 106.898 191.938C107.249 191.108 106.448 190.262 105.673 189.76C103.84 188.587 101.138 188.608 99.5075 187.424C97.8769 186.24 98.9036 184.173 99.1397 182.587Z" fill="#BE6F72"/>
<path d="M212.409 102.383C211.079 102.512 209.741 102.542 208.406 102.473C208.179 102.449 207.951 102.512 207.771 102.648C207.591 102.785 207.474 102.984 207.446 103.202L204.893 121.639C204.696 122.977 204.127 124.239 203.245 125.291C202.519 126.128 201.978 127.1 201.658 128.147C201.338 129.193 201.245 130.292 201.384 131.375V162.692C201.384 162.692 201.219 166.868 204.552 166.868C208.541 167.35 212.577 167.35 216.565 166.868C216.565 166.868 219.234 166.381 219.234 162.528V131.692C219.437 130.616 219.395 129.51 219.111 128.452C218.827 127.393 218.306 126.406 217.587 125.56C216.735 124.505 216.184 123.253 215.989 121.929L213.337 103.107C213.307 102.895 213.194 102.703 213.022 102.568C212.849 102.434 212.63 102.368 212.409 102.383Z" fill="#3F3D56"/>
<path opacity="0.1" d="M212.409 102.383C211.079 102.512 209.741 102.542 208.406 102.473C208.179 102.449 207.951 102.512 207.771 102.648C207.591 102.785 207.474 102.984 207.446 103.202L204.893 121.639C204.696 122.977 204.127 124.239 203.245 125.291C202.519 126.128 201.978 127.1 201.658 128.147C201.338 129.193 201.245 130.292 201.384 131.375V162.692C201.384 162.692 201.219 166.868 204.552 166.868C208.541 167.35 212.577 167.35 216.565 166.868C216.565 166.868 219.234 166.381 219.234 162.528V131.692C219.437 130.616 219.395 129.51 219.111 128.452C218.827 127.393 218.306 126.406 217.587 125.56C216.735 124.505 216.184 123.253 215.989 121.929L213.337 103.107C213.307 102.895 213.194 102.703 213.022 102.568C212.849 102.434 212.63 102.368 212.409 102.383Z" fill="black"/>
<path d="M212.425 131.935H208.379C205.028 131.935 202.312 134.55 202.312 137.776V152.433C202.312 155.658 205.028 158.273 208.379 158.273H212.425C215.776 158.273 218.492 155.658 218.492 152.433V137.776C218.492 134.55 215.776 131.935 212.425 131.935Z" fill="#4F8A8B"/>
<path d="M266.804 22.7177C265.63 23.3386 264.407 23.8688 263.147 24.3034C262.928 24.3662 262.744 24.5082 262.632 24.6996C262.52 24.8909 262.49 25.1166 262.548 25.3288L267.567 43.3C267.926 44.6044 267.91 45.9781 267.523 47.2748C267.184 48.3166 267.073 49.4144 267.196 50.4994C267.319 51.5845 267.673 52.6334 268.237 53.5806L280.766 82.4825C280.766 82.4825 282.281 86.3939 285.361 85.1571C289.239 84.1215 292.965 82.6191 296.452 80.6854C296.452 80.6854 298.72 79.2477 297.183 75.6958L284.845 47.2378C284.603 46.1694 284.122 45.1643 283.437 44.2919C282.751 43.4195 281.878 42.7006 280.876 42.1848C279.668 41.527 278.66 40.5779 277.949 39.4309L267.973 23.0454C267.86 22.8559 267.675 22.7159 267.457 22.6548C267.239 22.5937 267.005 22.6162 266.804 22.7177Z" fill="#3F3D56"/>
<path d="M278.65 49.9898L274.916 51.49C271.823 52.7322 270.363 56.1525 271.653 59.1294L277.516 72.656C278.807 75.6329 282.36 77.0392 285.452 75.797L289.186 74.2968C292.279 73.0546 293.739 69.6343 292.449 66.6574L286.586 53.1307C285.295 50.1538 281.742 48.7476 278.65 49.9898Z" fill="#4F8A8B"/>
<path d="M112.723 133.563C106.821 135.905 104.488 143.188 105.871 149.182C107.255 155.176 111.422 160.171 115.485 164.923L126.872 178.295C130.018 181.995 133.461 185.891 138.26 187.181C145.277 189.068 152.293 184.765 158.36 180.875C176.47 169.257 195.828 159.553 216.099 151.931C218.081 151.191 220.112 150.44 221.743 149.119C225.125 146.381 226.075 141.333 224.192 137.49C222.308 133.648 217.922 131.147 213.502 131.116C209.082 131.084 204.783 133.336 202.125 136.74C200.857 138.362 199.929 140.218 198.705 141.867C195.608 146.011 190.776 148.574 186.049 150.889C174.651 156.488 162.917 161.43 150.91 165.689C148.714 166.461 146.237 167.196 144.167 166.175C142.899 165.546 142.043 164.357 141.274 163.194C137.771 157.887 134.985 152.171 132.983 146.185C131.484 141.692 130.271 136.798 126.669 133.605C121.563 129.081 112.317 130.164 108.49 135.72C108.49 135.72 104.004 142.036 106.75 144.679C109.495 147.322 112.723 133.563 112.723 133.563Z" fill="#FBBEBE"/>
<path d="M420.653 111.691C421.455 113.747 421.477 115.999 421.361 118.192C421.219 120.867 420.521 124.007 417.941 125.027C416.261 125.677 414.185 125.185 412.692 126.168C410.88 127.352 410.968 129.9 411.248 131.983C412.022 137.707 412.895 143.643 416.134 148.484C417.875 151.08 420.23 153.241 422.619 155.308C427.379 159.442 432.601 163.48 438.854 164.859C439.873 165.136 440.945 165.179 441.984 164.986C443.009 164.681 443.939 164.137 444.691 163.4C448.314 160.197 450.181 155.625 452.597 151.481C454.305 148.516 456.342 145.667 457.302 142.401C458.094 139.546 458.041 136.536 457.151 133.709C456.26 130.882 454.567 128.351 452.262 126.401C451.191 125.518 450.005 124.778 448.968 123.864C446.255 121.496 444.674 118.097 444.026 114.63C443.378 111.162 443.477 107.595 443.79 104.058C438.3 103.651 432.848 104.291 427.489 105.322C425.106 105.782 421.751 105.993 419.593 107.087C417.167 108.329 419.989 109.92 420.653 111.691Z" fill="#FBBEBE"/>
<path opacity="0.1" d="M420.653 111.691C421.455 113.747 421.477 115.999 421.361 118.192C421.219 120.867 420.521 124.007 417.941 125.027C416.261 125.677 414.185 125.185 412.692 126.168C410.88 127.352 410.968 129.9 411.248 131.983C412.022 137.707 412.895 143.643 416.134 148.484C417.875 151.08 420.23 153.241 422.619 155.308C427.379 159.442 432.601 163.48 438.854 164.859C439.873 165.136 440.945 165.179 441.984 164.986C443.009 164.681 443.939 164.137 444.691 163.4C448.314 160.197 450.181 155.625 452.597 151.481C454.305 148.516 456.342 145.667 457.302 142.401C458.094 139.546 458.041 136.536 457.151 133.709C456.26 130.882 454.567 128.351 452.262 126.401C451.191 125.518 450.005 124.778 448.968 123.864C446.255 121.496 444.674 118.097 444.026 114.63C443.378 111.162 443.477 107.595 443.79 104.058C438.3 103.651 432.848 104.291 427.489 105.322C425.106 105.782 421.751 105.993 419.593 107.087C417.167 108.329 419.989 109.92 420.653 111.691Z" fill="black"/>
<path d="M390.016 127.247C381.099 124.303 376.839 112.801 367.505 111.511C366.033 111.305 364.524 111.384 363.08 111.057C357.704 109.83 355.393 103.847 353.839 98.7465C348.601 81.7425 341.76 65.1033 332.042 50.0287C327.94 43.6859 321.456 38.4742 318.497 31.5289C317.816 29.9432 317.47 28.1355 316.246 26.8828C315.021 25.6301 312.402 25.4504 311.738 27.0467C311.553 27.6121 311.511 28.2121 311.617 28.7962L312.259 35.3768L301.092 34.4096C300.059 34.24 298.998 34.3125 298.001 34.621C296.923 35.1401 296.064 36.0005 295.568 37.0577C291.791 43.892 295.815 52.8459 302.481 57.1696C310.266 62.2174 321.385 62.9838 326.557 70.5158C329.631 74.998 329.692 80.7647 331.718 85.7702C332.684 88.1646 334.095 90.3634 335.221 92.6838C337.368 97.1079 338.466 101.918 340.129 106.527C342.512 113.118 346.043 119.26 349.562 125.365C352.274 130.08 355.052 134.879 359.225 138.484C361.971 140.852 365.199 142.607 368.427 144.298C376.367 148.474 385.728 152.491 394.139 149.288C394.623 142.068 392.739 134.018 390.016 127.247Z" fill="#FBBEBE"/>
<path d="M417.09 354.783C416.414 361.681 412.066 367.928 411.05 374.567C404.352 373.558 397.758 372.257 391.378 370.777C390.593 370.598 389.813 370.413 389.028 370.249C392.641 360.735 389.495 350.079 390.45 339.946C390.543 338.974 390.675 338.001 390.851 337.039C399.125 334.322 406.597 330.696 415.272 331.754C415.443 333.445 415.618 335.142 415.789 336.833C416.136 340.212 416.48 343.588 416.821 346.96C417.169 349.554 417.259 352.173 417.09 354.783Z" fill="#FBBEBE"/>
<path d="M474.312 372.035C471.062 372.987 467.723 373.817 464.237 374.498C463.655 374.615 463.067 374.726 462.48 374.831C458.911 375.476 455.298 375.947 451.647 376.269C451.274 368.922 446.157 362.167 445.41 354.624C445.257 352.75 445.277 350.866 445.47 348.995C445.536 348.255 445.613 347.515 445.684 346.775L447.233 331.568C448.465 331.419 449.708 331.361 450.95 331.394C458.087 331.558 464.583 334.534 471.655 336.854C472.182 340.062 472.366 343.314 472.204 346.559C471.935 354.815 470.556 363.171 473.741 370.746C473.922 371.174 474.12 371.602 474.312 372.035Z" fill="#FBBEBE"/>
<path d="M381.632 256.1C382.593 263.31 378.766 270.213 377.108 277.301C376.01 281.989 375.861 286.815 375.713 291.625L374.846 320.437C374.758 323.318 374.681 326.251 375.592 329.016C377.426 334.555 383.076 338.297 388.956 339.629C394.837 340.961 400.986 340.285 406.976 339.523C409.914 339.148 412.977 338.709 415.41 337.076C418.753 334.83 420.214 330.829 421.477 327.097L425.04 316.563C429.141 325.453 427.406 335.173 429.866 344.608C430.024 345.481 430.401 346.303 430.964 347.003C432.002 348.113 433.71 348.287 435.263 348.393C446.025 349.122 456.934 349.846 467.52 347.864C470.43 347.336 473.466 346.479 475.476 344.376C477.815 341.928 478.221 338.329 478.194 335.004C478.045 323.582 473.757 312.561 472.802 301.176C472.39 296.297 472.593 291.392 472.412 286.498C472.27 282.817 471.912 279.146 471.342 275.504C471.16 273.835 470.685 272.209 469.936 270.694C468.289 267.734 464.868 266.127 461.629 264.88C436.46 255.038 408.777 255.133 381.632 256.1Z" fill="#F86D70"/>
<path d="M428.23 114.27C441.269 114.27 451.839 104.095 451.839 91.5421C451.839 78.9896 441.269 68.8138 428.23 68.8138C415.191 68.8138 404.621 78.9896 404.621 91.5421C404.621 104.095 415.191 114.27 428.23 114.27Z" fill="#FBBEBE"/>
<path d="M448.809 131.576C447.057 135.276 444.301 138.975 440.199 139.916C436.427 140.788 432.43 139.039 429.652 136.433C426.874 133.827 425.057 130.444 423.129 127.204C421.724 124.836 420.159 122.447 417.782 120.957C414.531 118.927 410.337 118.98 406.504 119.577C402.672 120.174 398.867 121.242 394.974 120.999C390.126 120.687 385.185 118.356 380.611 119.91C382.093 126.295 381.561 133.315 381.391 139.858C381.419 140.869 381.271 141.876 380.951 142.839C380.552 143.737 380.013 144.571 379.354 145.313L374.961 150.762C379.672 154.156 383.746 158.585 385.393 164.024C386.321 167.122 386.036 170.409 386.003 173.633C385.898 183.1 388.034 192.53 387.359 201.975C386.568 213.038 381.978 223.493 379.612 234.344C377.585 243.66 377.202 253.238 378.481 262.675C403.089 270.873 428.444 275.07 454.458 276.445C459.054 276.688 464.017 276.725 467.789 274.182C470.924 272.068 472.681 268.447 473.28 264.8C473.878 261.153 473.466 257.443 473.049 253.774C471.918 243.855 470.789 233.936 469.662 224.016C469.019 218.371 468.377 212.694 468.794 207.033C469.107 202.805 470.007 198.656 470.902 194.517L476.393 169.114C477.178 165.504 477.969 161.868 479.523 158.501C480.796 155.752 482.559 153.215 483.964 150.54C485.64 147.334 486.795 143.899 487.39 140.355C487.629 139.326 487.614 138.258 487.347 137.237C486.759 135.503 484.964 134.462 483.289 133.611C473.078 128.444 462.134 124.749 450.807 122.643C450.038 125.756 450.187 128.674 448.809 131.576Z" fill="#E3E8F4"/>
<path d="M446.53 116.353C449.275 111.289 454.409 107.737 457.39 102.79C459.038 99.9851 459.959 96.8393 460.076 93.6189C460.192 90.3986 459.501 87.1986 458.06 84.2902C457.011 82.2288 455.589 80.3365 454.766 78.18C453.849 75.7274 453.761 73.0264 452.701 70.6268C451.246 67.3391 448.095 64.9711 444.663 63.6074C441.232 62.2437 437.526 61.7522 433.831 61.2765L421.356 59.659C419.55 59.4265 417.677 59.1939 415.921 59.659C414.164 60.1242 412.527 61.5037 412.385 63.2586C412.214 65.3358 414.109 67.2704 413.669 69.3106C413.51 70.0295 413.071 70.7589 413.323 71.4566C413.548 71.9227 413.937 72.2971 414.422 72.5137C417.381 74.0994 420.917 74.2421 424.123 75.2781C427.33 76.3141 430.547 78.9147 430.223 82.1495C430.048 83.8884 428.884 85.6961 429.674 87.2554C430.432 88.6984 432.42 88.9627 434.006 89.4119C439.14 90.8444 442.742 96.204 441.995 101.305C441.764 102.89 441.171 104.407 441.051 105.998C440.65 111.569 441.561 113.16 446.289 116.4L446.53 116.353Z" fill="#3F3D56"/>
<path d="M478.6 140.445C478.625 141.5 478.425 142.549 478.013 143.526C476.3 147.041 471.056 146.819 467.581 148.812C463.254 151.296 462.299 156.841 461.903 161.672C461.453 167.143 461.146 172.693 462.31 178.058C463.474 183.422 466.274 188.655 470.952 191.8C476.646 195.611 484.387 195.743 490.888 193.423C497.389 191.103 502.819 186.615 507.53 181.71C511.999 177.059 516.001 171.873 518.401 165.969C518.824 164.912 519.197 163.792 518.857 162.734C518.346 161.149 516.551 160.43 515.09 159.563C511.68 157.581 509.407 154.124 508.227 150.472C507.046 146.819 506.849 142.934 506.81 139.102C506.766 135.122 506.755 130.772 504.12 127.701C501.485 124.63 496.916 123.769 492.755 123.8C489.351 123.8 479.929 124.112 477.606 126.972C475.701 129.35 478.737 137.041 478.6 140.445Z" fill="#BE6F72"/>
<path opacity="0.1" d="M478.6 140.445C478.625 141.5 478.425 142.549 478.013 143.526C476.3 147.041 471.056 146.819 467.581 148.812C463.254 151.296 462.299 156.841 461.903 161.672C461.453 167.143 461.146 172.693 462.31 178.058C463.474 183.422 466.274 188.655 470.952 191.8C476.646 195.611 484.387 195.743 490.888 193.423C497.389 191.103 502.819 186.615 507.53 181.71C511.999 177.059 516.001 171.873 518.401 165.969C518.824 164.912 519.197 163.792 518.857 162.734C518.346 161.149 516.551 160.43 515.09 159.563C511.68 157.581 509.407 154.124 508.227 150.472C507.046 146.819 506.849 142.934 506.81 139.102C506.766 135.122 506.755 130.772 504.12 127.701C501.485 124.63 496.916 123.769 492.755 123.8C489.351 123.8 479.929 124.112 477.606 126.972C475.701 129.35 478.737 137.041 478.6 140.445Z" fill="black"/>
<path d="M449.325 282.195C449.494 283.001 449.889 283.746 450.467 284.352C451.009 284.764 451.642 285.051 452.317 285.192C470.337 290.282 489.586 288.253 508.243 286.175C505.69 278.691 503.121 271.122 502.412 263.273C501.825 256.798 502.484 250.059 500.101 243.985C499.398 242.188 458.439 250.46 454.398 251.132C452.328 251.475 449.945 251.359 448.479 252.939C446.711 254.853 446.563 259.409 446.376 261.793C445.849 268.68 447.326 275.615 449.325 282.195Z" fill="#BE6F72"/>
<path d="M490.355 366.1C487.061 367.569 483.662 368.938 480.143 370.164C478.24 370.83 476.296 371.454 474.312 372.035C471.062 372.987 467.723 373.817 464.237 374.499C462.249 369.646 460.26 364.792 458.269 359.937C456.803 356.364 455.337 352.775 454.112 349.122C453.261 346.628 452.56 344.088 452.015 341.516C450.218 332.773 450.685 323.738 453.377 315.209C460.987 316.589 468.426 317.488 475.921 318.534C479.923 319.063 483.937 319.686 488 320.421C488.318 322.969 488.607 325.516 488.867 328.064C489.263 331.997 489.587 335.929 489.839 339.862C490.399 348.601 490.571 357.347 490.355 366.1Z" fill="#BE6F72"/>
<path opacity="0.1" d="M490.355 366.1C487.061 367.569 483.662 368.938 480.143 370.164C478.24 370.83 476.296 371.454 474.312 372.035C471.062 372.987 467.723 373.817 464.237 374.499C462.249 369.646 460.26 364.792 458.269 359.937C456.803 356.364 455.337 352.775 454.112 349.122C453.261 346.628 452.56 344.088 452.015 341.516C450.218 332.773 450.685 323.738 453.377 315.209C460.987 316.589 468.426 317.488 475.921 318.534C479.923 319.063 483.937 319.686 488 320.421C488.318 322.969 488.607 325.516 488.867 328.064C489.263 331.997 489.587 335.929 489.839 339.862C490.399 348.601 490.571 357.347 490.355 366.1Z" fill="black"/>
<path d="M532.577 343.197C532.621 346.242 531.721 349.35 530.886 352.336C530.826 352.547 530.771 352.753 530.716 352.965C528.73 352.37 527.018 351.134 525.868 349.466C525.274 348.561 524.834 347.571 524.567 346.532C522.081 348.16 519.574 349.772 517.045 351.369C508.77 356.601 500.024 361.797 490.355 366.1C487.061 367.569 483.662 368.938 480.143 370.164C479.411 367.698 478.715 365.215 478.056 362.717C477.336 360.145 476.772 357.535 476.365 354.899C475.561 348.914 476.184 342.832 478.188 337.113L478.435 336.426C479.368 333.883 480.573 331.44 482.032 329.137C483.399 327.023 486.106 327.377 488.867 328.08C490.119 328.392 491.387 328.767 492.54 329C499.716 330.448 507.167 328.952 514.502 329.349C517.998 329.517 521.424 330.356 524.578 331.817C528.108 333.524 530.952 336.135 532.067 339.745C532.225 340.265 532.346 340.795 532.429 341.331C532.521 341.949 532.571 342.573 532.577 343.197Z" fill="#BE6F72"/>
<path d="M400.487 99.7665C389.149 89.1953 376.262 80.2361 363.08 71.8583C359.65 69.7873 356.349 67.5229 353.197 65.0768C349.903 62.434 347.031 59.3314 343.534 56.9528C340.036 54.5743 335.71 52.941 331.509 53.7233C327.309 54.5056 323.576 58.3747 324.19 62.4235C324.739 65.986 328.067 68.428 331.141 70.4735C336.961 74.3479 342.809 78.2328 349.139 81.2721C351.339 82.2318 353.471 83.3264 355.525 84.5492C359.467 87.1074 362.339 90.8919 365.32 94.4492C376.573 107.905 390.356 119.201 405.95 127.749C406.136 127.854 412.632 114.36 412.357 112.611C411.753 108.588 403.474 102.557 400.487 99.7665Z" fill="#BE6F72"/>
<path d="M497.46 270.577C488.708 271.106 480.313 273.95 471.753 275.763C463.194 277.576 453.893 278.279 445.948 274.706L450.78 306.467C451.049 308.232 451.329 310.04 450.928 311.779C450.56 313.439 449.605 315.003 449.687 316.7C449.813 319.385 452.432 321.272 454.898 322.514C462.059 326.154 470.083 327.934 478.177 327.678C477.579 330.004 476.832 332.303 476.228 334.629C480.264 338.799 486.863 339.079 492.623 340.401C497.015 341.4 501.133 343.133 505.438 344.354C510.643 345.834 516.048 346.559 521.475 346.506C525.138 346.469 529.019 345.977 531.864 343.778C535.361 341.067 536.448 336.458 537.206 332.197C537.629 329.819 538.018 327.409 537.755 325.009C537.469 322.25 536.36 319.639 535.262 317.081L527.74 299.506C526.373 296.334 524.995 293.115 523.348 290.055C517.967 280.155 509.039 269.885 497.46 270.577Z" fill="#3F3D56"/>
<path d="M504.158 160.837C504.808 159.192 506.008 157.803 507.569 156.887C509.13 155.971 510.962 155.581 512.778 155.779C514.975 156.075 516.935 157.232 518.818 158.363L529.305 164.664C531.043 165.659 532.71 166.765 534.296 167.973C541.527 173.744 544.316 183.232 545.112 192.244C545.908 201.256 545.112 210.422 546.973 219.286C542.548 222.816 537.639 225.803 533.214 229.328C530.897 231.173 528.553 233.028 526.796 235.401C525.401 237.267 524.407 239.403 522.952 241.216C520.57 244.081 517.113 245.93 513.328 246.364C515.727 247.706 517.072 250.312 517.72 252.908C518.368 255.503 518.544 258.193 519.263 260.788C520.251 264.314 522.299 267.533 522.974 271.127C523.447 273.606 523.238 276.149 523.408 278.664C524.265 291.683 534.878 303.063 534.191 316.087C529.182 314.334 524.443 311.936 520.103 308.957C518.148 307.609 516.259 306.15 514.409 304.696L500.425 293.781C493.622 288.496 486.753 283.094 481.345 276.455C477.952 272.29 475.185 267.681 471.781 263.526C468.377 259.372 464.187 255.598 458.988 253.854C458.225 254.958 456.869 255.725 456.105 256.829C455.971 257.004 455.863 257.196 455.787 257.4C455.694 257.893 455.757 258.401 455.968 258.859C456.581 260.997 456.95 263.193 457.066 265.408L457.412 269.383C457.541 270.436 457.541 271.501 457.412 272.554C456.891 275.953 453.618 278.59 450.088 279.119C449.577 279.225 449.047 279.209 448.545 279.071C447.562 278.754 447.019 277.755 446.722 276.804C445.333 272.29 447.463 267.528 447.634 262.829C447.657 261.636 447.615 260.444 447.507 259.256L447.178 254.567C443.988 253.928 442.154 250.629 441.308 247.601C439.024 239.424 436.724 230.962 438.047 222.589C438.398 220.348 439.013 218.075 438.596 215.834C438.047 212.837 435.807 210.406 434.626 207.583C430.783 198.381 438.948 188.391 438.19 178.512C437.871 174.363 435.137 170.758 433.49 166.91C432.637 164.667 431.533 162.521 430.196 160.509C428.516 158.199 426.248 156.349 424.046 154.489C417.247 148.745 410.797 142.628 404.731 136.169C401.615 135.858 398.692 134.569 396.413 132.501C394.963 131.179 393.772 129.435 393.733 127.516C393.695 125.597 395.166 123.584 397.159 123.483C398.323 123.425 399.41 123.98 400.547 124.223C404.105 124.974 407.685 122.453 409.271 119.286C410.858 116.12 410.858 112.479 410.831 108.969C412.569 108.672 414.358 108.811 416.025 109.373C417.691 109.935 419.18 110.901 420.346 112.177C422.8 114.746 424.398 117.949 426.33 120.899C427.117 122.209 428.127 123.383 429.317 124.371C431.958 126.39 435.763 126.771 438.069 129.128C439.239 130.333 439.886 131.93 440.957 133.219C443.966 136.851 449.473 137.295 453.585 139.684C457.698 142.073 460.558 146.439 465.115 147.855C466.762 148.384 468.558 148.453 470.189 149.039C473.955 150.387 476.256 154.24 476.777 158.072C477.299 161.905 476.409 165.779 475.509 169.553L473.395 178.385C472.928 180.341 472.571 182.693 474.07 184.088C474.779 184.653 475.61 185.056 476.503 185.267C480.346 186.472 484.629 187.656 488.241 185.949C489.949 185.135 491.289 183.761 492.513 182.355C497.872 176.276 501.435 168.316 504.158 160.837Z" fill="#4F8A8B"/>
<path d="M547.495 340.575C546.737 345.412 543.97 350.169 539.44 352.383C536.724 353.673 533.591 353.882 530.716 352.965C528.73 352.37 527.018 351.134 525.868 349.466C525.274 348.561 524.834 347.571 524.567 346.532C524.567 346.479 524.539 346.421 524.528 346.368C524.116 344.498 523.944 342.586 524.018 340.676C524.016 337.71 524.2 334.746 524.567 331.801C524.873 329.321 525.38 326.869 526.082 324.465C527.103 321.034 528.575 317.731 529.925 314.422C530.628 312.678 531.303 310.928 531.858 309.136C532.193 308.079 532.478 306.99 532.709 305.891L532.791 305.494C532.835 305.273 532.874 305.05 532.912 304.829C533.461 301.816 533.62 298.697 535.032 295.975C538.326 289.585 544.739 291.218 545.716 297.111C545.79 297.568 545.832 298.029 545.842 298.491C545.991 305.949 542.916 313.238 544.321 320.722C544.718 322.548 545.216 324.351 545.815 326.124C546.309 327.758 546.754 329.412 547.094 331.088C547.784 334.206 547.919 337.414 547.495 340.575Z" fill="#BE6F72"/>
<path d="M550.515 257.643C550.663 260.699 550.515 263.791 551.152 266.788C552.64 273.87 558.289 280.139 557.664 287.338C557.51 289.093 556.834 290.98 555.242 291.847C553.65 292.714 551.014 292.645 550.493 294.389C550.345 294.876 550.422 295.404 550.257 295.885C549.911 296.91 548.61 297.349 547.512 297.323C546.413 297.296 545.315 296.948 544.179 297.037C540.198 297.36 538.738 302.487 535.191 304.247C532.803 305.431 529.7 304.776 527.729 303.026C525.758 301.276 524.896 298.549 525.05 295.964C525.165 294.014 525.808 292.132 526.148 290.208C526.768 286.778 526.444 283.263 526.121 279.796C525.643 274.716 525.149 269.573 523.414 264.758C522.596 262.485 521.509 260.313 520.8 258.008C519.79 254.747 519.559 251.317 519.455 247.918C519.241 240.766 519.752 233.118 524.188 227.367C527.521 223.054 532.297 219.55 536.069 215.559C538.43 213.059 539.111 212.277 541.719 214.396C543.866 216.135 546.112 218.535 546.353 220.892C547.012 226.934 546.353 232.875 547.528 239.027C548.703 245.18 550.207 251.327 550.515 257.643Z" fill="#4F8A8B"/>
<path d="M493.567 141.227C509.032 141.227 521.569 129.158 521.569 114.27C521.569 99.3825 509.032 87.3135 493.567 87.3135C478.102 87.3135 465.566 99.3825 465.566 114.27C465.566 129.158 478.102 141.227 493.567 141.227Z" fill="#BE6F72"/>
<path d="M519.208 165.837C519.823 165.007 520.553 164.114 521.596 163.94C522.384 163.882 523.172 164.042 523.869 164.399L531.243 167.365C533.236 164.197 534.411 160.615 534.669 156.92C534.823 154.653 534.636 152.353 535.087 150.123C535.756 146.814 537.793 143.849 538.266 140.508C538.639 137.813 537.964 135.101 537.557 132.411C536.305 124.102 537.651 115.623 536.931 107.256C536.212 98.8891 532.726 89.9247 524.973 86.082C522.777 85.0249 520.41 84.3906 518.126 83.5555C513.037 81.6896 508.474 78.7032 503.445 76.6841C498.415 74.665 492.508 73.74 487.632 76.0604C482.757 78.3808 479.918 84.9086 483.086 89.1688C484.129 90.5695 485.656 91.5632 487.116 92.5728C490.086 94.6183 493.117 97.1449 493.803 100.602C495.033 106.823 488.313 111.702 486.419 117.785C485.719 120.161 485.657 122.669 486.238 125.074C487.056 128.679 489.054 132.083 488.983 135.772C488.928 139.816 486.413 143.479 485.941 147.501C485.771 148.976 485.875 150.472 485.683 151.941C485.345 153.88 484.749 155.768 483.91 157.56C479.517 168.131 475.064 178.813 468.536 188.317C475.525 188.431 482.435 186.877 488.648 183.792C487.755 187.867 486.045 191.734 483.613 195.178C489.199 194.555 494.573 192.75 499.349 189.892C498.19 193.887 496.511 197.725 494.353 201.314C494.539 201.008 497.993 200.257 498.63 199.908C499.939 199.192 500.992 198.11 501.649 196.806C503.516 193.592 504.68 189.718 506.41 186.377C510.107 179.217 514.387 172.349 519.208 165.837Z" fill="#3F3D56"/>
<path d="M306.846 4.06994C305.516 4.19892 304.178 4.22896 302.843 4.1598C302.616 4.13586 302.388 4.1989 302.208 4.33532C302.028 4.47175 301.911 4.67065 301.882 4.88921L299.329 23.3255C299.133 24.6639 298.564 25.926 297.682 26.9779C296.955 27.8151 296.415 28.7871 296.095 29.8337C295.775 30.8802 295.681 31.979 295.821 33.0617V64.3792C295.821 64.3792 295.656 68.5548 298.989 68.5548C302.978 69.0373 307.013 69.0373 311.002 68.5548C311.002 68.5548 313.67 68.0685 313.67 64.2153V33.3788C313.874 32.303 313.832 31.1974 313.548 30.1387C313.263 29.08 312.743 28.0934 312.023 27.2475C311.171 26.1917 310.621 24.94 310.426 23.6163L307.774 4.79407C307.744 4.58246 307.631 4.38982 307.459 4.25532C307.286 4.12081 307.067 4.05453 306.846 4.06994Z" fill="#3F3D56"/>
<path d="M306.862 33.622H302.816C299.465 33.622 296.749 36.237 296.749 39.4626V54.1197C296.749 57.3454 299.465 59.9604 302.816 59.9604H306.862C310.213 59.9604 312.929 57.3454 312.929 54.1197V39.4626C312.929 36.237 310.213 33.622 306.862 33.622Z" fill="#4F8A8B"/>
<path d="M344.73 31.0267C343.401 31.1557 342.062 31.1857 340.728 31.1166C340.5 31.0927 340.272 31.1557 340.092 31.2921C339.913 31.4285 339.796 31.6274 339.767 31.846L337.214 50.2823C337.017 51.6206 336.448 52.8828 335.567 53.9347C334.84 54.7719 334.3 55.7439 333.979 56.7904C333.659 57.837 333.566 58.9358 333.705 60.0185V91.3359C333.705 91.3359 333.541 95.5116 336.873 95.5116C340.862 95.9941 344.898 95.9941 348.887 95.5116C348.887 95.5116 351.555 95.0253 351.555 91.1721V60.3356C351.759 59.2598 351.717 58.1542 351.432 57.0955C351.148 56.0367 350.628 55.0502 349.908 54.2043C349.056 53.1485 348.505 51.8968 348.31 50.573L345.658 31.7509C345.628 31.5393 345.515 31.3466 345.343 31.2121C345.171 31.0776 344.952 31.0113 344.73 31.0267Z" fill="#3F3D56"/>
<path d="M344.747 60.5788H340.7C337.35 60.5788 334.633 63.1937 334.633 66.4194V81.0765C334.633 84.3022 337.35 86.9172 340.7 86.9172H344.747C348.098 86.9172 350.814 84.3022 350.814 81.0765V66.4194C350.814 63.1937 348.098 60.5788 344.747 60.5788Z" fill="#4F8A8B"/>
<g opacity="0.2">
<path opacity="0.2" d="M302.146 346.86C302.128 347.43 302.06 347.998 301.943 348.557C298.121 347.972 294.278 347.443 290.413 346.971C290.413 346.823 290.413 346.67 290.413 346.516C290.448 344.931 290.922 343.384 291.785 342.034C292.916 340.311 294.635 339.233 296.529 339.291C298.423 339.349 300.065 340.528 301.081 342.309C301.849 343.708 302.217 345.279 302.146 346.86Z" fill="#3F3D56"/>
<path opacity="0.2" d="M302.454 337.834C302.588 333.746 300.068 330.352 296.825 330.254C293.582 330.155 290.844 333.389 290.71 337.477C290.576 341.564 293.096 344.958 296.339 345.057C299.582 345.155 302.32 341.922 302.454 337.834Z" fill="#3F3D56"/>
<path opacity="0.2" d="M302.753 328.785C302.888 324.697 300.367 321.303 297.124 321.205C293.881 321.106 291.144 324.34 291.01 328.427C290.875 332.515 293.396 335.909 296.639 336.007C299.882 336.106 302.619 332.872 302.753 328.785Z" fill="#3F3D56"/>
<path opacity="0.2" d="M303.048 319.735C303.182 315.648 300.662 312.254 297.419 312.155C294.176 312.057 291.438 315.29 291.304 319.378C291.17 323.466 293.69 326.86 296.933 326.958C300.176 327.057 302.913 323.823 303.048 319.735Z" fill="#3F3D56"/>
<path opacity="0.2" d="M303.347 310.686C303.481 306.598 300.961 303.205 297.718 303.106C294.475 303.007 291.737 306.241 291.603 310.329C291.469 314.417 293.989 317.81 297.232 317.909C300.475 318.008 303.213 314.774 303.347 310.686Z" fill="#3F3D56"/>
<path opacity="0.2" d="M277.493 247.891C276.72 246.884 276.023 245.824 275.407 244.72L290.923 242.749L274.221 242.363C272.731 238.959 271.977 235.299 272.006 231.605C272.035 227.912 272.847 224.263 274.391 220.882L296.419 232.748L276.242 217.504C278.277 214.335 280.969 211.604 284.151 209.481C287.332 207.358 290.934 205.89 294.731 205.168C298.528 204.445 302.439 204.484 306.22 205.283C310.001 206.081 313.57 207.621 316.705 209.806C319.84 211.992 322.473 214.777 324.439 217.986C326.406 221.196 327.664 224.761 328.135 228.459C328.606 232.158 328.28 235.91 327.177 239.482C326.074 243.054 324.218 246.368 321.725 249.218C322.928 250.786 323.949 252.475 324.772 254.255L304.408 263.664L326.002 257.411C327.362 261.731 327.581 266.309 326.64 270.73C325.698 275.152 323.626 279.278 320.61 282.734C323.746 286.829 325.62 291.691 326.02 296.764C326.421 301.836 325.33 306.914 322.873 311.418C320.416 315.922 316.692 319.669 312.127 322.231C307.562 324.794 302.34 326.067 297.059 325.907C291.777 325.747 286.649 324.159 282.261 321.325C277.872 318.491 274.401 314.525 272.244 309.881C270.086 305.238 269.33 300.103 270.061 295.065C270.793 290.027 272.982 285.289 276.379 281.392C272.633 276.498 270.705 270.534 270.904 264.459C271.103 258.383 273.418 252.548 277.477 247.891H277.493Z" fill="#4F8A8B"/>
<path opacity="0.1" d="M327.199 266.169C327.007 272.248 324.685 278.086 320.61 282.734C323.745 286.829 325.62 291.691 326.02 296.763C326.421 301.836 325.33 306.914 322.873 311.418C320.416 315.922 316.692 319.669 312.127 322.231C307.562 324.794 302.34 326.067 297.059 325.907C291.777 325.747 286.649 324.159 282.261 321.325C277.872 318.491 274.401 314.525 272.244 309.881C270.086 305.238 269.33 300.103 270.061 295.065C270.793 290.027 272.982 285.289 276.379 281.392C272.771 276.672 327.298 263.13 327.199 266.169Z" fill="black"/>
</g>
</g>
<defs>
<clipPath id="clip0">
<rect width="623.256" height="376.803" fill="white" transform="translate(0.744141)"/>
</clipPath>
</defs>
</svg>
