<svg width="475" height="496" viewBox="0 0 475 496" fill="none" xmlns="http://www.w3.org/2000/svg">
<g clip-path="url(#clip0)">
<path d="M421.218 209.877C395.685 109.473 307.458 36.9955 203.899 34.0885C149.15 32.5516 91.5391 50.7093 49.5941 114.25C-25.387 227.835 54.2019 306.326 109.689 343.623C136.496 361.679 160.651 383.389 181.454 408.125C218.933 452.601 291.036 507.868 376.907 421.273C439.147 358.508 438.226 276.757 421.218 209.877Z" fill="#F2F2F2"/>
<path d="M464.883 441.067C464.883 460.857 371.817 495.968 257.015 495.968C142.212 495.968 60.0427 424.815 60.0427 405.026C60.0427 385.236 142.212 424.304 257.015 424.304C371.817 424.304 464.883 421.278 464.883 441.067Z" fill="#3F3D56"/>
<path opacity="0.1" d="M464.883 441.067C464.883 460.857 371.817 495.968 257.015 495.968C142.212 495.968 60.0427 424.815 60.0427 405.026C60.0427 385.236 142.212 424.304 257.015 424.304C371.817 424.304 464.883 421.278 464.883 441.067Z" fill="black"/>
<path d="M464.883 440.858C464.883 460.647 371.817 476.69 257.015 476.69C142.212 476.69 60.0427 424.815 60.0427 405.026C60.0427 385.236 142.212 405.026 257.015 405.026C371.817 405.026 464.883 421.068 464.883 440.858Z" fill="#3F3D56"/>
<g opacity="0.7">
<path opacity="0.7" d="M458.002 141.855C450.462 156.489 426.565 173.734 411.93 166.194C397.296 158.654 397.466 129.185 405.005 114.551C408.627 107.524 414.891 102.224 422.42 99.8159C429.949 97.4077 438.126 98.0887 445.153 101.709C452.18 105.329 457.482 111.593 459.891 119.121C462.301 126.65 461.621 134.827 458.002 141.855Z" fill="#4F8A8B"/>
<path opacity="0.7" d="M413.168 170.064C412.698 169.147 411.953 168.401 411.037 167.929C410.121 167.457 409.08 167.283 408.06 167.432L410.692 162.324L415.8 164.956L413.168 170.064Z" fill="#4F8A8B"/>
<path opacity="0.7" d="M409.445 164.777C410.032 165.588 410.803 166.248 411.694 166.702C412.586 167.157 413.573 167.394 414.573 167.392" stroke="#2F2E41" stroke-width="2" stroke-miterlimit="10"/>
<path opacity="0.4" d="M453.862 125.582C455.77 121.879 454.815 117.589 451.729 115.999C448.644 114.409 444.596 116.122 442.688 119.825C440.78 123.528 441.735 127.818 444.821 129.408C447.906 130.997 451.954 129.285 453.862 125.582Z" fill="white"/>
<path opacity="0.7" d="M411.793 166.377L389.555 222.339" stroke="#2F2E41" stroke-width="2" stroke-miterlimit="10"/>
</g>
<path d="M462.696 231.627C446.189 248.28 406.343 261.477 389.689 244.97C373.035 228.462 385.881 188.501 402.389 171.848C410.317 163.855 421.095 159.338 432.353 159.291C443.61 159.243 454.426 163.668 462.422 171.594C470.417 179.519 474.938 190.296 474.989 201.553C475.041 212.811 470.619 223.628 462.696 231.627Z" fill="#FF6584"/>
<path d="M389.715 250.757C389.468 249.31 388.775 247.977 387.733 246.944C386.69 245.911 385.351 245.229 383.902 244.995L389.664 239.183L395.476 244.944L389.715 250.757Z" fill="#FF6584"/>
<path d="M386.92 241.981C387.37 243.334 388.135 244.56 389.151 245.559C390.167 246.559 391.407 247.302 392.767 247.729" stroke="#2F2E41" stroke-width="2" stroke-miterlimit="10"/>
<path d="M388.58 246.374L333.843 301.595" stroke="#2F2E41" stroke-width="2" stroke-miterlimit="10"/>
<path opacity="0.4" d="M464.038 207.748C468.215 203.534 468.754 197.297 465.243 193.816C461.731 190.336 455.499 190.93 451.323 195.144C447.146 199.357 446.607 205.594 450.118 209.075C453.629 212.555 459.862 211.961 464.038 207.748Z" fill="white"/>
<path d="M411.102 177.675C405.662 200.484 378.49 232.478 355.681 227.038C332.872 221.599 323.063 180.786 328.503 157.977C331.121 147.03 337.979 137.571 347.569 131.679C357.159 125.787 368.696 123.943 379.645 126.554C390.593 129.165 400.057 136.017 405.956 145.603C411.854 155.189 413.705 166.725 411.102 177.675Z" fill="#4F8A8B"/>
<path d="M358.713 231.968C357.749 230.861 356.464 230.082 355.036 229.742C353.609 229.401 352.11 229.516 350.751 230.07L352.65 222.108L360.611 224.007L358.713 231.968Z" fill="#4F8A8B"/>
<path d="M351.761 225.926C352.849 226.847 354.14 227.497 355.528 227.822C356.916 228.147 358.361 228.137 359.745 227.795" stroke="#2F2E41" stroke-width="2" stroke-miterlimit="10"/>
<path opacity="0.4" d="M399.83 156.581C401.206 150.81 398.423 145.202 393.614 144.056C388.805 142.909 383.791 146.657 382.414 152.428C381.038 158.199 383.821 163.807 388.63 164.954C393.439 166.101 398.453 162.352 399.83 156.581Z" fill="white"/>
<path d="M355.555 228.805L337.518 304.436" stroke="#2F2E41" stroke-width="2" stroke-miterlimit="10"/>
<g opacity="0.8">
<path opacity="0.8" d="M158.28 377.671C146.423 389.209 118.146 398.012 106.608 386.155C95.0697 374.298 104.64 346.271 116.497 334.733C119.317 331.99 122.649 329.829 126.303 328.373C129.958 326.917 133.864 326.195 137.797 326.249C141.731 326.303 145.615 327.131 149.229 328.686C152.842 330.24 156.114 332.492 158.858 335.311C161.601 338.13 163.762 341.463 165.218 345.117C166.674 348.772 167.396 352.677 167.342 356.611C167.288 360.544 166.46 364.429 164.906 368.042C163.351 371.656 161.099 374.928 158.28 377.671Z" fill="#4F8A8B"/>
<path opacity="0.8" d="M106.552 390.238C106.396 389.214 105.925 388.265 105.202 387.523C104.48 386.78 103.544 386.283 102.525 386.099L106.663 382.072L110.691 386.211L106.552 390.238Z" fill="#4F8A8B"/>
<path opacity="0.8" d="M104.692 384.011C104.992 384.971 105.516 385.846 106.221 386.564C106.925 387.282 107.79 387.822 108.744 388.141" stroke="#2F2E41" stroke-width="2" stroke-miterlimit="10"/>
<path opacity="0.4" d="M159.53 360.843C162.53 357.924 162.99 353.531 160.557 351.031C158.125 348.531 153.721 348.871 150.721 351.79C147.721 354.709 147.261 359.102 149.694 361.602C152.126 364.102 156.53 363.762 159.53 360.843Z" fill="white"/>
</g>
<path d="M286.967 134.527H295.297C300.761 134.527 306.002 136.698 309.867 140.562C313.731 144.426 315.902 149.667 315.902 155.132V184.067H266.361V155.132C266.361 152.426 266.894 149.747 267.93 147.247C268.965 144.747 270.483 142.475 272.396 140.562C274.31 138.648 276.581 137.131 279.081 136.095C281.581 135.06 284.261 134.527 286.967 134.527Z" fill="#2F2E41"/>
<path d="M263.322 263.522L257.07 276.667C257.07 276.667 251.974 294.325 257.748 296.213C263.522 298.1 264.649 278.092 264.649 278.092L269.432 264.842L263.322 263.522Z" fill="#FFB9B9"/>
<path opacity="0.1" d="M263.322 263.522L257.07 276.667C257.07 276.667 251.974 294.325 257.748 296.213C263.522 298.1 264.649 278.092 264.649 278.092L269.432 264.842L263.322 263.522Z" fill="black"/>
<path d="M264.506 242.948L256.599 270.623L269.119 277.212V244.266L264.506 242.948Z" fill="#575A89"/>
<path d="M285.921 169.479C285.921 169.479 285.262 180.022 283.944 180.022C282.626 180.022 279.991 192.541 279.991 192.541L291.192 199.789L305.03 187.27L301.076 177.386C301.076 177.386 299.099 173.432 299.758 169.479C300.417 165.525 285.921 169.479 285.921 169.479Z" fill="#FFB9B9"/>
<path opacity="0.1" d="M285.921 169.479C285.921 169.479 285.262 180.022 283.944 180.022C282.626 180.022 279.991 192.541 279.991 192.541L291.192 199.789L305.03 187.27L301.076 177.386C301.076 177.386 299.099 173.432 299.758 169.479C300.417 165.525 285.921 169.479 285.921 169.479Z" fill="black"/>
<path d="M327.433 274.247L328.751 288.743C328.751 288.743 333.363 306.534 339.294 305.216C345.224 303.898 335.999 286.108 335.999 286.108L333.363 272.27L327.433 274.247Z" fill="#FFB9B9"/>
<path d="M299.099 417.233C299.099 417.233 303.053 441.613 300.417 446.225C297.782 450.838 303.053 451.497 303.053 451.497L318.867 447.543V440.295C318.867 440.295 313.596 416.574 313.596 415.256C313.596 413.938 299.099 417.233 299.099 417.233Z" fill="#FFB9B9"/>
<path d="M266.812 307.852C266.812 307.852 271.425 355.294 278.673 370.449C285.921 385.604 292.51 427.116 295.805 427.775C299.1 428.434 324.139 423.822 327.433 421.186C330.728 418.55 305.03 354.635 305.03 353.976C305.03 353.317 299.1 294.674 299.1 294.674L291.193 281.495L266.812 307.852Z" fill="#2F2E41"/>
<path opacity="0.1" d="M266.812 307.852C266.812 307.852 271.425 355.294 278.673 370.449C285.921 385.604 292.51 427.116 295.805 427.775C299.1 428.434 324.139 423.822 327.433 421.186C330.728 418.55 305.03 354.635 305.03 353.976C305.03 353.317 299.1 294.674 299.1 294.674L291.193 281.495L266.812 307.852Z" fill="black"/>
<path d="M305.03 444.907C305.03 444.907 298.441 441.613 297.123 443.589L291.851 451.497C291.851 451.497 269.448 462.039 277.355 463.357C285.262 464.675 300.417 464.675 302.394 463.357C304.371 462.039 326.115 450.179 325.456 449.52C324.797 448.861 319.526 435.024 318.867 436.341C318.208 437.659 308.983 447.543 305.03 444.907Z" fill="#2F2E41"/>
<path d="M194.331 388.899C194.331 388.899 179.176 399.442 171.928 397.465C164.68 395.488 171.928 411.961 171.928 411.961L185.106 419.21L189.06 415.915C189.06 415.915 202.897 397.465 208.827 396.806C214.758 396.147 194.331 388.899 194.331 388.899Z" fill="#FFB9B9"/>
<path d="M262.859 268.317L265.494 282.154L216.076 357.271C216.076 357.271 186.424 386.922 189.06 390.217C191.695 393.512 208.168 412.62 212.122 409.985C216.076 407.349 307.665 308.511 307.006 295.332C306.348 282.154 284.603 257.115 284.603 257.115L262.859 266.999V268.317Z" fill="#2F2E41"/>
<path d="M175.223 402.078C175.223 402.078 181.153 395.488 177.858 394.829C174.153 394.176 170.413 393.736 166.657 393.512C165.339 393.512 147.548 384.287 146.23 387.581C144.912 390.876 154.137 408.008 159.409 409.985C164.68 411.961 183.789 425.799 183.789 425.799C183.789 425.799 193.672 417.233 192.354 415.256C191.037 413.279 172.587 409.326 175.223 402.078Z" fill="#2F2E41"/>
<path d="M291.192 176.068C299.926 176.068 307.007 168.988 307.007 160.254C307.007 151.52 299.926 144.44 291.192 144.44C282.459 144.44 275.378 151.52 275.378 160.254C275.378 168.988 282.459 176.068 291.192 176.068Z" fill="#FFB9B9"/>
<path d="M294.487 183.975C294.487 183.975 283.285 184.634 279.991 182.657C276.696 180.68 269.448 209.673 269.448 209.673L264.836 247.89C264.836 247.89 264.177 252.503 264.836 255.138C265.495 257.774 258.246 253.821 260.882 261.069C263.518 268.317 258.905 271.611 263.518 272.27C268.13 272.929 292.51 263.045 292.51 263.045L303.712 204.402L307.007 180.68L294.487 183.975Z" fill="#D0CDE1"/>
<path d="M284.743 178.622C284.743 178.622 278.673 177.386 276.696 178.704C274.719 180.022 267.471 189.905 267.471 192.541C267.471 195.177 264.836 224.169 264.836 226.805C264.836 229.441 262.859 243.278 262.859 244.596C262.859 245.914 264.549 251.577 264.549 251.577L268.789 243.937C268.789 243.937 267.471 234.053 272.084 218.239C276.696 202.425 284.743 178.622 284.743 178.622Z" fill="#575A89"/>
<path d="M291.193 188.587C291.193 188.587 299.995 174.75 300.536 176.068C301.076 177.386 310.96 179.363 310.96 179.363C310.96 179.363 328.751 191.882 327.433 197.153C326.115 202.425 316.89 241.96 316.89 241.96C316.89 241.96 308.324 262.386 314.914 276.883C321.503 291.379 313.596 296.65 313.596 296.65C313.596 296.65 308.324 299.286 309.642 301.922C310.96 304.557 294.487 314.441 292.51 307.193C290.534 299.945 266.154 256.456 271.425 240.642C276.696 224.828 291.193 188.587 291.193 188.587Z" fill="#575A89"/>
<path d="M324.138 195.177C324.138 195.177 331.387 209.014 330.069 210.991C328.751 212.967 334.681 224.828 334.681 224.828C334.271 225.888 334.271 227.063 334.681 228.123C335.34 230.099 339.294 238.665 339.294 241.96C339.294 245.255 338.635 255.797 339.294 260.41C339.953 265.022 348.518 276.224 341.27 276.883C334.022 277.542 322.162 283.472 322.821 276.883C323.479 270.294 325.456 254.479 322.821 251.844C320.185 249.208 318.208 249.208 319.526 245.913C320.844 242.619 313.596 234.053 313.596 234.053L324.138 195.177Z" fill="#575A89"/>
<path d="M304.406 156.358H279.394L273.731 143.343H308.654L304.406 156.358Z" fill="#2F2E41"/>
<path d="M276.113 165.882C276.781 165.688 276.904 164.087 276.387 162.305C275.871 160.523 274.911 159.236 274.243 159.43C273.575 159.623 273.452 161.225 273.968 163.006C274.484 164.788 275.444 166.075 276.113 165.882Z" fill="#FFB9B9"/>
<path d="M307.875 163.006C308.392 161.225 308.268 159.623 307.6 159.43C306.932 159.236 305.972 160.523 305.456 162.305C304.94 164.087 305.063 165.688 305.731 165.882C306.399 166.075 307.359 164.788 307.875 163.006Z" fill="#FFB9B9"/>
<path d="M455.682 413.678C455.682 428.984 446.584 434.328 435.36 434.328C435.099 434.328 434.839 434.324 434.581 434.321C434.06 434.307 433.545 434.282 433.037 434.247C422.906 433.531 415.039 427.912 415.039 413.678C415.039 398.951 433.855 380.367 435.276 378.985C435.276 378.985 435.277 378.985 435.277 378.985C435.278 378.984 435.278 378.984 435.278 378.984C435.279 378.984 435.279 378.983 435.279 378.983C435.279 378.982 435.279 378.982 435.279 378.981C435.332 378.932 435.36 378.904 435.36 378.904C435.36 378.904 455.682 398.372 455.682 413.678Z" fill="#F2F2F2"/>
<path d="M434.62 431.987L442.051 421.602L434.603 433.126L434.581 434.321C434.06 434.307 433.545 434.282 433.037 434.247L433.838 418.937L433.831 418.818L433.845 418.796L433.922 417.348L426.453 405.796L433.943 416.262L433.961 416.572L434.567 405.003L428.173 393.064L434.645 402.969L435.276 378.985L435.279 378.904V378.981L435.174 397.897L441.54 390.399L435.145 399.525L434.98 409.885L440.923 399.945L434.955 411.408L434.86 417.168L443.489 403.332L434.828 419.177L434.62 431.987Z" fill="#3F3D56"/>
</g>
<path d="M35.9409 114.942L22.6255 129.868C33.6872 134.56 44.8845 128.046 49.4745 124.78C64.2955 132.925 81.6627 135.116 98.0424 130.909C114.422 126.703 128.584 116.413 137.646 102.135C146.708 87.8568 149.99 70.6623 146.824 54.05C143.658 37.4378 134.282 22.6558 120.603 12.7117C106.924 2.76756 89.9707 -1.59156 73.1919 0.521218C56.4131 2.634 41.0695 11.0599 30.2831 24.0847C19.4966 37.1095 14.0776 53.7544 15.1287 70.633C16.1797 87.5117 23.6218 103.356 35.9409 114.942Z" fill="#EA907A"/>
<path d="M45.9207 55.9998C59.4606 55.8542 72.9987 55.6041 86.538 55.4141C91.0517 55.3508 95.5654 55.2952 100.079 55.2475C103.969 55.2057 103.979 48.9583 100.079 49.0002C86.5394 49.1458 73.0013 49.3959 59.462 49.5859C54.9483 49.6492 50.4346 49.7048 45.9207 49.7525C42.0314 49.7943 42.0215 56.0417 45.9207 55.9998Z" fill="white"/>
<path d="M45.9542 69.9998L101.304 69.4141L117.046 69.2475C120.98 69.2059 120.99 62.9585 117.046 63.0002L61.6959 63.5859L45.9542 63.7525C42.0203 63.7941 42.0103 70.0415 45.9542 69.9998Z" fill="white"/>
<path d="M45.9542 83.9998L101.304 83.4141L117.046 83.2475C120.98 83.2059 120.99 76.9585 117.046 77.0002L61.6959 77.5859L45.9542 77.7525C42.0203 77.7941 42.0103 84.0415 45.9542 83.9998Z" fill="white"/>
<path d="M5 143C7.76142 143 10 140.761 10 138C10 135.239 7.76142 133 5 133C2.23858 133 0 135.239 0 138C0 140.761 2.23858 143 5 143Z" fill="#E6E6E6"/>
<path d="M232 117.474C231.994 102.899 227.201 88.7304 218.357 77.1461C209.512 65.5618 197.107 57.2038 183.05 53.3575C168.992 49.5113 154.06 50.3898 140.55 55.8579C127.04 61.3261 115.701 71.081 108.276 83.6225C100.852 96.1639 97.7525 110.797 99.4558 125.272C101.159 139.746 107.57 153.261 117.704 163.736C127.837 174.211 141.131 181.067 155.541 183.25C169.951 185.433 184.679 182.821 197.46 175.816C202.059 179.088 213.277 185.615 224.36 180.913L211.02 165.959C217.651 159.745 222.935 152.235 226.545 143.895C230.154 135.555 232.01 126.562 232 117.474Z" fill="#F0B656"/>
<path d="M131.969 107C145.735 106.854 159.499 106.604 173.264 106.414C177.853 106.351 182.442 106.295 187.031 106.248C190.985 106.206 190.995 99.9583 187.031 100C173.265 100.146 159.501 100.396 145.736 100.586C141.147 100.649 136.558 100.705 131.969 100.752C128.015 100.794 128.005 107.042 131.969 107Z" fill="white"/>
<path d="M131.954 121L187.304 120.414L203.046 120.248C206.98 120.206 206.99 113.958 203.046 114L147.696 114.586L131.954 114.752C128.02 114.794 128.01 121.042 131.954 121V121Z" fill="white"/>
<path d="M131.954 135L187.304 134.414L203.046 134.248C206.98 134.206 206.99 127.958 203.046 128L147.696 128.586L131.954 128.752C128.02 128.794 128.01 135.042 131.954 135Z" fill="white"/>
<defs>
<clipPath id="clip0">
<rect width="456" height="461.968" fill="white" transform="translate(19 34)"/>
</clipPath>
</defs>
</svg>
