<svg width="626" height="447" viewBox="0 0 626 447" fill="none" xmlns="http://www.w3.org/2000/svg">
<g clip-path="url(#clip0)">
<path d="M602.239 6.31378H1.09351V397.757H602.239V6.31378Z" fill="#E6E6E6"/>
<path d="M585.049 55.4105H18.2832V374.599H585.049V55.4105Z" fill="white"/>
<path d="M601.982 5.96729H0.836914V31.9336H601.982V5.96729Z" fill="#F0B656"/>
<path d="M19.8155 24.0553C22.4297 24.0553 24.5489 21.9006 24.5489 19.2426C24.5489 16.5847 22.4297 14.43 19.8155 14.43C17.2013 14.43 15.082 16.5847 15.082 19.2426C15.082 21.9006 17.2013 24.0553 19.8155 24.0553Z" fill="white"/>
<path d="M37.7823 24.0553C40.3965 24.0553 42.5157 21.9006 42.5157 19.2426C42.5157 16.5847 40.3965 14.43 37.7823 14.43C35.1681 14.43 33.0488 16.5847 33.0488 19.2426C33.0488 21.9006 35.1681 24.0553 37.7823 24.0553Z" fill="white"/>
<path d="M55.7491 24.0553C58.3633 24.0553 60.4825 21.9006 60.4825 19.2426C60.4825 16.5847 58.3633 14.43 55.7491 14.43C53.1349 14.43 51.0156 16.5847 51.0156 19.2426C51.0156 21.9006 53.1349 24.0553 55.7491 24.0553Z" fill="white"/>
</g>
<g clip-path="url(#clip1)">
<path d="M486.557 202.347C485.39 199.346 487.057 197.846 487.724 195.179C488.391 192.512 486.224 184.177 486.224 184.177C486.224 184.177 479.223 155.339 477.056 149.672C476.139 147.273 474.147 145.624 472.155 144.516C472.02 143.78 471.824 143.305 471.555 143.171C469.624 142.205 464.814 140.107 461.609 139.527C461.009 138.497 460.298 137.536 459.489 136.661C460.052 135.58 460.312 134.368 460.244 133.152C460.04 130.007 457.658 127.189 457.968 124.053C458.203 121.674 459.942 119.72 460.613 117.426C460.894 116.396 460.961 115.319 460.809 114.262C460.656 113.204 460.288 112.19 459.727 111.281C460.22 111.806 460.714 112.33 461.207 112.855C461.877 111.849 462.2 110.652 462.126 109.446C462.051 108.24 461.584 107.091 460.794 106.176C459.233 104.451 456.622 103.804 455.411 101.818C454.166 99.7769 454.834 97.0035 453.657 94.9227C450.773 89.8252 443.392 93.4387 438.97 91.6595C437.153 90.9284 435.772 90.1237 433.727 90.1815C431.989 90.2812 430.271 90.6022 428.614 91.1365C426.237 91.8244 424.168 93.3073 422.753 95.3375C422.893 95.1785 423.046 95.0321 423.211 94.8998C424.282 94.0602 426.161 94.1301 426.727 95.3682C426.862 95.6794 426.919 96.019 426.892 96.3571C426.799 97.8497 425.495 98.9642 424.2 99.7111C422.904 100.458 421.447 101.083 420.601 102.316C419.206 104.352 420.026 107.083 420.027 109.551C420.015 111.12 419.652 112.665 418.965 114.075C418.277 115.484 417.281 116.722 416.052 117.696L420.756 115.773C418.51 119.704 417.035 124.027 416.412 128.511L422.772 123.257C420.416 127.006 418.985 131.261 418.595 135.671L423.699 130.44C423.932 130.849 424.048 131.313 424.036 131.783L423.504 133.836C423.316 134.244 423.107 134.642 422.879 135.028C422.058 136.439 421.209 138.175 421.977 139.615L421.98 139.613C421.172 142.334 419.952 145.057 417.238 146.38C420.248 146.695 423.39 145.189 424.749 142.794C424.971 143.225 425.239 143.631 425.548 144.004C425.635 144.114 425.721 144.222 425.808 144.331L425.058 144.831L423.047 146.171C423.047 146.171 409.879 148.838 410.712 153.839C410.746 154.045 410.787 154.29 410.834 154.566L407.045 161.007L401.544 179.676C401.544 179.676 398.71 185.677 399.21 188.178C399.71 190.678 399.21 191.678 399.21 196.179C399.21 200.68 397.043 202.513 399.21 206.181C401.377 209.848 407.878 220.516 407.878 220.516L409.306 221.587C409.237 222.23 409.261 222.88 409.378 223.517C410.712 230.184 423.214 294.028 423.214 294.028C423.214 294.028 416.88 344.536 429.715 347.703C431.325 348.1 432.906 348.461 434.441 348.781L436.383 361.539L435.216 377.708C435.216 377.708 426.381 397.711 442.55 398.878C458.72 400.045 451.385 381.542 451.385 381.542C452.239 379.962 452.588 378.158 452.385 376.374C452.22 374.89 450.832 367.168 449.471 359.742C455.608 359.006 454.459 352.493 453.642 349.63C453.996 349.424 454.261 349.093 454.386 348.703C454.57 348.038 454.14 345.422 453.36 341.757C452.724 338.113 451.638 332.214 450.897 328.217L454.886 328.867L471.722 230.184C471.722 230.184 471.833 228.613 471.782 226.316C474.084 225.125 476.458 224.079 478.889 223.183C484.39 221.016 486.557 213.015 488.391 209.681C490.225 206.347 487.724 205.347 486.557 202.347ZM426.78 139.515C427.325 139.14 427.964 138.923 428.625 138.89C428.482 139.665 427.149 139.892 426.031 140.298C426.236 139.998 426.489 139.733 426.78 139.515ZM418.38 189.178C419.73 191.397 417.285 197.409 415.082 202.18C413.819 201.092 412.501 201.435 414.046 198.346C415.099 196.388 415.724 194.229 415.879 192.012C415.879 191.631 416.075 188.83 417.717 187.667C417.89 188.19 418.112 188.696 418.38 189.178ZM413.321 208.328C414.085 208.017 415.242 207.539 416.805 207.007C416.057 207.99 415.202 209.161 414.342 210.439C414.017 210.193 413.755 209.873 413.578 209.506C413.4 209.139 413.312 208.735 413.321 208.328ZM467.388 210.515C466.374 209.438 465.555 208.475 464.881 207.613C466.138 207.944 467.418 208.3 468.721 208.681C469.37 208.778 470.033 208.734 470.663 208.552C470.721 209.704 470.721 211.348 470.721 211.348L468.896 212.612C468.479 211.855 467.973 211.15 467.388 210.515V210.515ZM472.561 204.734C472.541 204.75 472.52 204.77 472.5 204.788C472.41 204.129 472.261 203.479 472.055 202.847C470.963 199.401 470.379 193.288 470.068 188.072L473.222 198.679C473.222 198.679 473.389 204.014 472.561 204.734Z" fill="#D0CDE1"/>
<path d="M407.81 160.92C407.81 160.92 390.708 131.526 390.174 128.32C389.639 125.113 381.089 119.234 381.089 119.234C378.167 116.313 373.374 115.388 368.329 115.437C370.229 113.865 363.446 112.809 362.918 111.752C362.384 110.684 360.78 110.684 358.643 109.08C356.505 107.477 351.169 108.813 351.169 108.813C350.366 107.125 349.808 105.332 349.511 103.487C351.788 100.792 353.036 97.3773 353.031 93.8493C353.031 93.8109 353.029 93.7731 353.028 93.7348C353.164 93.9466 353.3 94.1596 353.437 94.379C354.438 88.3823 356.205 83.3976 352.837 77.9272C350.449 74.05 346.712 71.1929 342.344 69.9059L339.136 72.4723L340.383 69.4789C339.335 69.3189 338.273 69.2575 337.213 69.2956L334.326 73.0067L335.521 69.4227C333.016 69.734 330.603 70.5608 328.434 71.8511C326.265 73.1413 324.387 74.867 322.918 76.9193C319.244 82.2164 319.49 89.5796 323.103 94.9181C323.116 94.8807 323.125 94.8441 323.137 94.8068C323.297 97.3042 324.08 99.7218 325.416 101.838C326.752 103.954 328.597 105.701 330.783 106.92L331.691 114.181C330.874 114.939 329.826 115.401 328.715 115.493C327.112 115.493 325.508 119.769 325.508 119.769C325.508 119.769 324.6 120.227 323.62 122.392C321.097 124.11 313.402 129.505 310.547 133.275C308.858 134.106 307.043 135.955 307.338 140.077C307.872 147.559 307.338 182.297 307.338 182.297C307.338 182.297 302.528 211.69 304.131 213.828C305.735 215.965 303.597 222.913 303.597 222.913L305.2 223.269V225.051C305.2 225.051 300.378 247.405 307.872 246.428C320.164 244.824 311.079 226.654 311.079 226.654V224.576L313.217 225.051C313.217 225.051 314.285 217.569 316.423 217.034C317.167 216.848 318.039 214.851 318.862 212.326C319.341 216.265 319.63 218.638 319.63 218.638L322.974 217.894L323.905 221.31C324.135 221.438 324.375 221.547 324.623 221.635L323.905 225.585C323.905 225.585 323.371 229.86 323.905 232.533C324.175 233.88 334.095 262.685 343.863 290.91L343.679 297.732C343.679 297.732 338.869 303.077 339.938 306.818C341.007 310.559 337.266 341.555 337.266 341.555L334.059 357.054L334.866 357.302L334.125 360.017C333.487 360.34 332.92 360.785 332.456 361.329C328.181 366.139 322.836 380.034 322.836 380.034C322.836 380.034 313.217 394.463 328.18 393.929C343.144 393.394 344.213 388.05 344.213 388.05C344.213 388.05 346.351 374.155 346.351 373.621C346.351 373.086 345.282 367.593 345.282 367.593L344.867 367.135L345.157 360.468L347.954 361.329C347.954 361.329 350.626 347.434 352.764 345.831C353.511 345.27 355.499 339.029 357.768 331.011C360.088 337.69 362.334 360.786 363.063 362.882C362.805 363.235 362.578 363.609 362.384 364.001C359.981 368.611 357.304 373.073 354.367 377.362C354.367 377.362 337.266 387.516 354.367 390.188C354.367 390.188 363.987 390.722 368.797 387.516C373.607 384.309 386.433 379.499 386.433 378.431C386.433 377.362 383.226 361.65 380.02 363.36L377.872 358.419L380.02 357.588L366.489 296.856C366.809 295.562 367.045 294.248 367.194 292.923C367.194 290.124 374.113 235.63 375.874 221.808C383.624 224.003 390.708 207.949 390.708 207.949L392.465 204.787L394.984 206.346C394.984 206.346 397.121 201.002 400.328 200.467C403.534 199.933 409.413 171.608 409.413 167.867C409.364 165.465 408.818 163.1 407.81 160.92ZM382.91 202.791C382.384 201.956 381.774 201.177 381.089 200.467C382.486 196.828 383.559 193.072 384.295 189.244C385.364 183.365 382.692 164.126 382.692 164.126L382.645 162.819C385.268 166.263 388.57 170.853 388.57 172.142C388.57 172.765 388.715 173.378 388.994 173.935C389.272 174.492 389.676 174.976 390.174 175.349L386.967 186.572C386.967 186.572 384.829 191.916 384.295 194.588C383.975 196.173 383.796 197.782 383.761 199.398L384.518 199.867L382.91 202.791Z" fill="#D0CDE1"/>
<path d="M163.148 170.811L165.999 170.17L154.242 137.035L128.857 127.683C128.857 127.683 128.76 127.791 128.58 127.977C126.415 125.881 125.496 122.84 125.112 120.447C127.153 119.622 128.988 118.357 130.484 116.742C131.98 115.127 133.101 113.201 133.767 111.103C134.433 109.004 134.628 106.785 134.338 104.602C134.047 102.42 133.278 100.328 132.086 98.4773C134.178 97.9752 134.925 96.0775 135.627 93.8146C135.192 93.6864 134.749 93.5898 134.3 93.5258C134.629 92.7881 134.958 92.0505 135.287 91.3128C134.709 91.2609 134.131 91.209 133.553 91.1571C133.701 90.4675 133.848 89.7779 133.996 89.0883C133.259 89.5973 132.522 90.1063 131.784 90.6153C132.035 89.8913 132.097 89.1156 131.965 88.361C131.834 87.6064 131.512 86.8977 131.031 86.3015C130.052 85.1184 128.775 84.218 127.332 83.6931C124.509 82.5827 121.436 82.2714 118.448 82.7936C115.46 83.3158 112.674 84.6512 110.396 86.6531L110.236 86.0303C105.724 89.4988 102.772 94.6149 102.026 100.257C101.319 105.834 103.998 111.512 107.48 115.926C107.451 115.733 107.419 115.541 107.387 115.349C107.538 115.556 107.693 115.76 107.854 115.959L108.282 132.226L107.209 133.145C107.208 133.145 89.2217 141.283 88.5206 151.002L88.5186 151.009C87.439 155.74 86.9046 180.324 86.9046 180.324H88.3845L86.9046 189.943L77.2849 227.353C77.2849 227.353 64.9931 243.386 75.6816 246.593C82.3235 248.585 84.2185 240.879 84.7017 234.758C85.0866 236.275 86.2375 237.301 88.5078 237.507C88.6865 237.524 88.8773 237.537 89.0618 237.552C84.0079 250.613 87.439 293.088 87.439 293.088C84.7668 298.432 116.298 335.307 116.298 335.307L118.197 334.294L118.607 335.116C117.551 335.217 116.832 335.307 116.832 335.307V351.874C116.832 351.874 112.023 368.441 118.436 371.648C120.095 372.478 121.826 371.874 123.48 370.526C123.164 375.639 122.711 383.269 122.711 385.009C122.711 387.681 129.659 392.491 129.659 392.491C129.659 392.491 131.262 398.369 144.088 398.369C156.914 398.369 147.295 382.871 147.295 382.871L140.347 367.373C140.347 367.373 139.827 367.627 138.254 366.346L138.818 360.149L141.95 360.425L146.226 297.897C146.226 297.897 149.967 242.317 150.501 233.766C150.626 231.025 150.562 228.278 150.308 225.546L165.999 193.15L163.148 170.811ZM151.57 191.547L149.967 197.134V184.777L151.57 191.547ZM84.8508 231.179C84.8641 229.22 84.7669 227.888 84.7669 227.888L95.2149 206.992L94.9209 213.458C94.9209 213.458 86.5534 224.043 84.8508 231.179ZM109.35 291.484L119.505 255.678L125.383 298.966L124.962 314.704C124.246 313.257 123.671 311.746 123.245 310.189C121.642 303.776 109.35 291.484 109.35 291.484Z" fill="#D0CDE1"/>
<path d="M253.973 376.541C248.966 374.479 239.246 370.061 238.067 367.705C236.889 365.348 230.998 347.086 230.998 347.086L229.481 347.197C229.285 338.9 228.45 306.747 227.169 302.904C227.169 302.904 233.354 251.946 220.983 231.622L218.754 222.617C219.486 219.007 219.392 210.648 218.922 209.237C218.332 207.469 225.696 201.873 223.634 198.338C221.573 194.803 215.976 182.727 215.976 182.727C215.976 182.727 216.565 175.069 208.612 167.999C208.612 167.999 206.288 154.842 195.815 154.646C194.4 152.175 192.418 148.246 193.001 146.497C193.625 144.624 196.013 138.785 197.361 135.517C198.077 135.194 198.765 134.811 199.417 134.373C207.746 130.641 213.618 121.67 213.618 111.19C213.618 99.9715 206.891 90.4773 197.622 87.2937C198.035 86.2054 198.204 85.0398 198.117 83.8792C198.03 82.7186 197.689 81.5912 197.118 80.5768C196.548 79.5624 195.761 78.6857 194.814 78.0086C193.868 77.3315 192.784 76.8705 191.64 76.6583C190.495 76.4461 189.318 76.4877 188.192 76.7803C187.065 77.0729 186.017 77.6094 185.12 78.3517C184.224 79.094 183.501 80.0242 183.004 81.0764C182.506 82.1286 182.246 83.2772 182.241 84.4411C181.731 83.2329 181.529 81.9172 181.651 80.6115C181.774 79.3059 182.218 78.0509 182.944 76.9586C183.669 75.8663 184.654 74.9707 185.81 74.3518C186.966 73.7329 188.258 73.4099 189.569 73.4117C190.085 73.4124 190.6 73.4631 191.107 73.5633C189.361 72.7328 187.371 72.5676 185.512 73.0986C183.653 73.6296 182.051 74.8205 181.007 76.448C179.962 78.0755 179.548 80.0279 179.84 81.9394C180.132 83.8508 181.111 85.5902 182.594 86.8314C182.685 87.1223 182.794 87.4076 182.918 87.6859C174.196 91.2055 167.975 100.4 167.975 111.19C167.975 121.199 173.329 129.832 181.066 133.839C181.025 137.095 180.217 142.584 175.727 145.929C173.408 144.869 170.189 143.706 168.124 144.233C167.056 143.401 165.444 143.126 163.251 145.319C158.833 149.737 155.004 161.225 155.004 168.294C155.004 175.363 155.888 216.306 155.888 216.306C155.888 216.306 151.175 218.073 154.415 220.724C155.084 221.281 155.924 221.593 156.795 221.608L160.011 245.466C160.011 245.466 157.949 268.441 165.902 268.736C166.526 268.77 167.146 268.618 167.683 268.299L161.779 294.951C161.779 294.951 148.229 303.787 137.625 321.166C132.164 330.117 129.441 335.623 128.081 338.865L126.138 337.661L119.363 350.621C119.363 350.621 104.341 359.752 107.581 366.527C110.821 373.301 113.767 375.069 113.767 375.069L115.829 374.185L119.658 381.254C119.658 381.254 129.673 395.687 145.873 388.323C146.633 387.302 147.044 386.062 147.044 384.789C147.044 383.515 146.633 382.276 145.873 381.254C143.222 377.425 136.447 369.178 136.447 369.178L140.866 346.792L139.951 346.225L167.964 312.329C167.964 312.329 176.212 307.322 179.157 302.904C182.103 298.485 200.365 252.83 200.365 252.83L210.674 300.547C210.674 300.547 210.085 317.926 212.736 329.119C214.181 335.397 215.123 341.781 215.554 348.21L214.798 348.265L216.565 361.519C216.565 361.519 208.907 380.371 214.209 381.843C217.981 382.818 221.821 383.507 225.696 383.905L226.285 381.843C226.285 381.843 248.966 394.214 257.213 385.083C257.213 385.083 258.98 378.603 253.973 376.541ZM173.266 231.917C174.15 232.801 173.855 236.924 173.855 236.924L172.088 248.412L170.323 256.38C170.079 252.615 169.586 248.871 168.848 245.172L168.032 223.157C168.193 223.258 168.369 223.332 168.553 223.375C169.142 223.375 168.848 218.368 168.848 218.368C168.848 218.368 169.192 217.473 169.621 216.062C170.766 219.49 172.164 221.727 173.855 222.197L174.15 226.026C174.15 226.026 170.321 227.793 173.855 227.793C174.06 227.786 174.264 227.755 174.462 227.703L174.15 229.266C174.15 229.266 172.382 231.033 173.266 231.917Z" fill="#D0CDE1"/>
<path d="M248.938 390.263C379.707 390.263 485.715 388.515 485.715 386.36C485.715 384.204 379.707 382.457 248.938 382.457C118.17 382.457 12.1611 384.204 12.1611 386.36C12.1611 388.515 118.17 390.263 248.938 390.263Z" fill="#3F3D56"/>
<path d="M331.809 406.525C475.653 406.525 592.262 402.011 592.262 396.442C592.262 390.874 475.653 386.36 331.809 386.36C187.964 386.36 71.3555 390.874 71.3555 396.442C71.3555 402.011 187.964 406.525 331.809 406.525Z" fill="#3F3D56"/>
<path d="M283.739 421.486C354.333 421.486 411.56 416.972 411.56 411.404C411.56 405.835 354.333 401.321 283.739 401.321C213.146 401.321 155.919 405.835 155.919 411.404C155.919 416.972 213.146 421.486 283.739 421.486Z" fill="#3F3D56"/>
<path d="M468.477 428.641C499.912 428.641 525.395 426.312 525.395 423.438C525.395 420.564 499.912 418.234 468.477 418.234C437.043 418.234 411.56 420.564 411.56 423.438C411.56 426.312 437.043 428.641 468.477 428.641Z" fill="#3F3D56"/>
<path d="M390.419 446.205C405.328 446.205 417.414 443.875 417.414 441.001C417.414 438.127 405.328 435.797 390.419 435.797C375.51 435.797 363.424 438.127 363.424 441.001C363.424 443.875 375.51 446.205 390.419 446.205Z" fill="#3F3D56"/>
<path d="M170.555 424.088C185.464 424.088 197.55 421.758 197.55 418.884C197.55 416.01 185.464 413.68 170.555 413.68C155.646 413.68 143.56 416.01 143.56 418.884C143.56 421.758 155.646 424.088 170.555 424.088Z" fill="#3F3D56"/>
<path d="M303.904 360.015L306.506 378.229L319.516 376.928L318.215 358.063L303.904 360.015Z" fill="#FFB8B8"/>
<path d="M242.108 360.015L239.506 378.229L226.497 376.928L227.798 358.063L242.108 360.015Z" fill="#FFB8B8"/>
<path d="M223.244 171.374C223.244 171.374 211.535 185.034 214.137 206.5C216.739 227.966 221.293 276.753 221.293 276.753L224.545 363.268L245.361 361.967L248.613 288.462L259.021 229.267L286.992 298.219C286.992 298.219 300.652 362.617 301.302 362.617C301.953 362.617 320.817 360.666 320.817 360.666L311.71 284.559C311.71 284.559 297.4 173.976 288.943 172.025C280.487 170.073 223.244 171.374 223.244 171.374Z" fill="#2F2E41"/>
<path d="M320.817 374.326C320.817 374.326 309.108 366.52 304.555 375.627C300.001 384.734 303.904 391.239 303.904 391.239C303.904 391.239 307.807 393.84 305.856 396.442C303.904 399.044 303.254 415.957 320.166 413.355C337.079 410.753 328.623 393.19 328.623 393.19L320.817 374.326Z" fill="#2F2E41"/>
<path d="M225.196 374.326C225.196 374.326 236.904 366.52 241.458 375.627C246.011 384.734 242.108 391.239 242.108 391.239C242.108 391.239 238.205 393.84 240.157 396.442C242.108 399.044 242.759 415.957 225.846 413.355C208.933 410.753 217.39 393.19 217.39 393.19L225.196 374.326Z" fill="#2F2E41"/>
<path d="M239.181 44.8545C239.181 44.8545 245.035 61.1167 240.482 70.2235C235.928 79.3303 247.637 89.7381 247.637 89.7381C247.637 89.7381 278.21 74.1264 274.307 66.3206C270.404 58.5148 263.899 48.107 265.2 41.6021L239.181 44.8545Z" fill="#FFB8B8"/>
<path d="M250.565 51.0342C262.061 51.0342 271.38 41.7148 271.38 30.2186C271.38 18.7225 262.061 9.40308 250.565 9.40308C239.068 9.40308 229.749 18.7225 229.749 30.2186C229.749 41.7148 239.068 51.0342 250.565 51.0342Z" fill="#FFB8B8"/>
<path d="M235.603 69.2478C235.603 69.2478 256.489 86.6277 272.066 62.0008L288.293 71.1992L296.749 170.073C296.749 170.073 249.264 197.394 226.497 173.976L229.749 82.2575L235.603 69.2478Z" fill="#D0CDE1"/>
<path d="M242.162 59.5117L212.836 79.0048L223.244 127.141L209.584 201.947L231.7 168.772L242.162 59.5117Z" fill="#575A89"/>
<path d="M268.08 54.0859L275.283 58.84L304.555 69.2478L300.001 149.908L312.361 201.947L294.797 211.054C294.797 211.054 291.545 186.335 271.38 173.976C251.215 161.617 263.48 57.7882 268.08 54.0859Z" fill="#575A89"/>
<path d="M219.341 180.481L227.798 186.335C227.798 186.335 217.065 197.719 215.113 195.767C214.548 195.225 214.11 194.565 213.829 193.835C213.548 193.104 213.431 192.32 213.487 191.539L211.535 186.986L219.341 180.481Z" fill="#FFB8B8"/>
<path d="M275.556 179.215L272.681 183.733C272.681 183.733 264.225 187.636 266.176 190.238C268.128 192.84 284.39 198.695 287.642 192.84L290.895 186.986L275.556 179.215Z" fill="#FFB8B8"/>
<path d="M216.739 78.3546L212.186 79.0051L204.705 127.466C204.705 127.466 201.778 136.248 205.031 157.063C208.283 177.879 211.504 191.434 211.504 191.434L225.846 181.131L219.341 164.219L227.798 102.423L216.739 78.3546Z" fill="#575A89"/>
<path d="M294.147 67.9468L304.555 69.2478C304.555 69.2478 316.264 81.6071 318.215 94.6168C320.167 107.627 319.516 144.704 319.516 144.704L289.594 192.19L273.332 180.481L296.099 140.151L285.04 92.0148L294.147 67.9468Z" fill="#575A89"/>
<path d="M270.414 11.3921C267.267 6.2806 262.34 2.514 256.581 0.817214L252.352 4.20059L253.996 0.254262C252.614 0.0433203 251.214 -0.0375628 249.816 0.0126723L246.011 4.90515L247.586 0.180257C244.284 0.590589 241.103 1.68063 238.244 3.38163C235.384 5.08263 232.908 7.3577 230.971 10.0634C226.128 17.0467 225.311 26.7583 230.074 33.7963C231.382 29.7779 232.969 26.0072 234.276 21.9887C235.304 22.1288 236.346 22.1339 237.375 22.0038L238.966 18.2917L239.41 21.8468C244.341 21.4172 251.655 20.474 256.33 19.6099L255.875 16.8826L258.595 19.149C260.027 18.8192 260.877 18.5203 260.807 18.2917C264.284 23.8966 267.728 27.4765 271.205 33.0813C272.525 25.1755 274.855 18.604 270.414 11.3921Z" fill="#2F2E41"/>
<path d="M269.262 32.3829C270.04 32.3829 270.671 31.1211 270.671 29.5646C270.671 28.0082 270.04 26.7464 269.262 26.7464C268.483 26.7464 267.853 28.0082 267.853 29.5646C267.853 31.1211 268.483 32.3829 269.262 32.3829Z" fill="#FFB8B8"/>
<path d="M494.411 397.47C495.01 417.999 483.016 425.522 467.963 425.961C467.613 425.971 467.265 425.978 466.919 425.98C466.221 425.985 465.53 425.974 464.845 425.945C451.231 425.38 440.455 418.154 439.898 399.062C439.321 379.305 463.843 353.635 465.683 351.736L465.687 351.734C465.756 351.662 465.792 351.626 465.792 351.626C465.792 351.626 493.811 376.944 494.411 397.47Z" fill="#C71F84"/>
<path d="M466.879 422.85L476.441 408.63L466.899 424.38L466.919 425.98C466.221 425.985 465.529 425.974 464.845 425.945L465.319 405.377L465.306 405.219L465.324 405.188L465.369 403.244L454.897 388.041L465.357 401.79L465.394 402.201L465.752 386.661L456.707 370.898L465.778 383.931L465.683 351.736L465.683 351.629L465.686 351.734L466.287 377.108L474.53 366.801L466.314 379.294L466.494 393.194L474.079 379.628L466.522 395.238L466.622 402.967L477.653 384.07L466.655 405.663L466.879 422.85Z" fill="#3F3D56"/>
<path d="M145.75 366.897C146.35 387.426 134.355 394.949 119.303 395.388C118.953 395.399 118.605 395.405 118.258 395.407C117.56 395.412 116.869 395.401 116.184 395.372C102.571 394.807 91.7946 387.581 91.2371 368.489C90.6601 348.732 115.183 323.062 117.023 321.163L117.026 321.161C117.096 321.089 117.132 321.053 117.132 321.053C117.132 321.053 145.151 346.371 145.75 366.897Z" fill="#C71F84"/>
<path d="M118.219 392.277L127.781 378.058L118.238 393.807L118.258 395.407C117.56 395.412 116.869 395.401 116.184 395.372L116.658 374.804L116.645 374.646L116.663 374.615L116.708 372.671L106.237 357.468L116.696 371.217L116.733 371.628L117.091 356.088L108.047 340.325L117.117 353.358L117.022 321.163L117.023 321.056L117.026 321.161L117.626 346.535L125.869 336.228L117.653 348.721L117.833 362.621L125.418 349.055L117.861 364.665L117.961 372.394L128.992 353.497L117.995 375.09L118.219 392.277Z" fill="#3F3D56"/>
<path d="M406.282 426.411C406.634 438.46 399.593 442.876 390.757 443.134C390.552 443.14 390.348 443.144 390.145 443.145C389.735 443.149 389.329 443.142 388.927 443.125C380.936 442.793 374.611 438.551 374.284 427.345C373.945 415.749 388.339 400.681 389.419 399.566L389.421 399.565C389.462 399.523 389.483 399.501 389.483 399.501C389.483 399.501 405.93 414.362 406.282 426.411Z" fill="#C71F84"/>
<path d="M390.121 441.308L395.734 432.962L390.133 442.206L390.145 443.145C389.735 443.149 389.329 443.142 388.927 443.125L389.206 431.052L389.198 430.959L389.208 430.941L389.235 429.8L383.088 420.876L389.228 428.946L389.249 429.187L389.46 420.066L384.151 410.814L389.475 418.463L389.419 399.566L389.419 399.503L389.421 399.565L389.774 414.459L394.612 408.409L389.789 415.742L389.895 423.901L394.347 415.938L389.911 425.1L389.97 429.637L396.445 418.545L389.99 431.22L390.121 441.308Z" fill="#3F3D56"/>
<path d="M624.78 33.2964C624.798 33.2371 624.818 33.1771 624.837 33.1176C624.829 33.1436 624.819 33.1687 624.811 33.1949L624.78 33.2964Z" fill="#2F2E41"/>
<path d="M533.879 378.458L582.059 306.81L533.978 386.166L534.078 394.229C530.561 394.255 527.078 394.197 523.629 394.053L526.018 290.418L525.953 289.618L526.041 289.464L526.27 279.671L473.507 203.065L526.208 272.341L526.395 274.411L528.2 196.111L482.627 116.688L528.329 182.356L527.852 20.137L527.853 19.5971L527.869 20.1281L530.894 147.978L572.428 96.0453L531.03 158.992L531.937 229.03L570.157 160.676L532.077 239.327L532.582 278.272L588.164 183.055L532.751 291.858L533.879 378.458Z" fill="#3F3D56"/>
<path d="M41.9185 375.681L74.7037 326.926L41.9856 380.926L42.054 386.412C39.6605 386.43 37.2903 386.391 34.9434 386.293L36.5695 315.772L36.5249 315.228L36.5849 315.123L36.7406 308.459L0.836914 256.331L36.6982 303.471L36.8255 304.88L38.0537 251.599L7.04259 197.554L38.142 242.239L37.8174 131.854L37.8181 131.486L37.8287 131.848L39.8872 218.846L68.1502 183.507L39.9798 226.34L40.5966 273.999L66.6043 227.486L40.6922 281.006L41.0356 307.507L78.8577 242.714L41.1505 316.752L41.9185 375.681Z" fill="#3F3D56"/>
</g>
<defs>
<clipPath id="clip0">
<rect width="601.402" height="391.79" fill="white" transform="translate(0.836914 5.96729)"/>
</clipPath>
<clipPath id="clip1">
<rect width="624" height="446.205" fill="white" transform="translate(0.836914)"/>
</clipPath>
</defs>
</svg>
